<svg width="343" height="452" viewBox="0 0 343 452" fill="none" xmlns="http://www.w3.org/2000/svg">
<path d="M-14.4337 148.729L-13.4599 145.715C3.67322 92.5978 39.2647 51.4583 83.4855 26.7984C128.344 1.82089 182.071 -6.19312 234.487 7.58562C270.426 17.026 297.262 36.2637 315.235 60.1047C328.105 77.1974 336.386 96.664 340.207 116.616C344.029 136.569 343.351 157.024 338.313 176.067C331.768 200.745 317.932 223.102 297.048 239.226C289.608 244.956 281.785 249.722 273.762 253.559C254.572 264.675 223.704 269.979 194.108 261.419C161.276 251.902 161.474 234.351 142.321 220.864C135.1 215.78 125.881 214.537 119.934 223.095C114.744 230.592 116.564 242.701 129.243 246.198C115.394 253.026 93.5868 245.464 84.8532 227.37C73.6232 204.035 83.2437 159.247 136.07 163.596C109.425 154.342 98.4198 116.223 116.354 88.3208C133.225 115.948 182.385 87.2081 185.123 133.765C196.958 89.5488 242.01 90.5413 258.203 108.099C280.112 131.815 268.365 175.539 225.501 180.262C241.364 163.789 231.684 140.382 208.651 146.735C191.364 151.511 178.796 173.854 191.766 199.453C202.767 221.159 225.738 232.769 247.039 230.326C257.752 227.175 268.375 221.856 278.19 214.297C293.36 202.585 303.443 186.231 308.22 168.14C312.065 153.637 312.576 138.009 309.64 122.756C306.705 107.503 300.327 92.5286 290.385 79.3617C276.323 60.7037 255.068 45.5714 226.408 38.0533C181.945 26.3852 136.4 33.15 98.3803 54.3371C60.892 75.2321 30.7143 110.173 16.1233 155.255L15.3229 157.809L15.3012 157.866C-1.2444 211.402 5.33964 265.809 29.0453 310.979C50.234 351.393 85.1389 384.47 129.462 403.044C104.56 377.642 93.1802 336.822 114.267 305.282C125.032 289.185 140.447 277.598 159.58 274.371C175.384 271.727 192.029 275.275 205.262 284.266C226.415 298.638 234.582 324.856 224.383 348.912C216.991 366.378 201.229 379.574 182.039 380.286C162.425 381.002 145.853 368.061 145.419 347.547C145.131 332.832 157.119 325.698 164.894 327.249C162.658 329.656 160.953 333.149 161.109 336.26C161.368 341.248 164.532 344.804 168.906 346.781C181.217 352.372 192.539 338.75 191.969 326.85C191.656 320.2 187.863 314.274 182.392 310.736C174.818 305.814 165.367 305.961 156.95 308.435C115.493 320.515 123.33 377.101 152.552 396.712C163.566 404.112 180.88 414.313 193.758 417.197C199.107 418.392 204.238 419.308 209.239 419.879C225.785 420.338 242.217 418.948 258.353 415.937L258.82 415.817C259.371 415.73 259.905 415.603 260.467 415.486L247.708 449.344C212.033 453.821 175.241 451.116 139.141 440.039L139.084 440.018L136.278 439.125L136.164 439.082C76.1426 419.778 28.9366 378.16 1.54382 325.922C-25.9232 273.623 -33.5554 210.648 -14.4337 148.729Z" fill="#E9F1FB"/>
</svg>
