<svg width="351" height="435" viewBox="0 0 351 435" fill="none" xmlns="http://www.w3.org/2000/svg">
<path d="M378.213 252.929L378.877 249.833C390.6 195.265 380.348 141.842 354.384 98.374C328.025 54.3124 285.504 20.5069 233.222 6.22966C197.378 -3.56554 164.519 -0.324428 137.033 11.3349C117.341 19.7021 100.435 32.4194 87.1489 47.7873C73.8627 63.1553 64.221 81.2091 59.0616 100.219C52.3904 124.863 53.1931 151.144 63.2156 175.549C66.794 184.232 71.1853 192.271 76.215 199.605C87.2756 218.828 111.355 238.856 141.266 246.242C174.457 254.418 183.061 239.119 206.392 237.016C215.188 236.224 223.793 239.758 224.664 250.143C225.41 259.231 217.779 268.807 205.05 265.496C213.629 278.333 236.295 282.689 252.906 271.386C274.3 256.794 288.364 213.196 240.442 190.547C268.144 195.857 296.735 168.349 295.156 135.217C266.731 150.706 238.529 101.236 212.878 140.186C224.738 95.9762 185.227 74.3084 162.424 81.4161C131.592 90.999 119.901 134.739 154.66 160.262C149.16 138.064 169.247 122.633 186.017 139.653C198.6 152.433 198.311 178.067 174.279 193.75C153.898 207.047 128.2 205.615 110.975 192.848C103.273 184.762 96.7329 174.845 92.0132 163.39C84.7317 145.662 84.177 126.457 89.0868 108.402C93.0087 93.9199 100.381 80.1303 110.55 68.389C120.719 56.6477 133.73 46.8687 148.924 40.4376C170.431 31.3109 196.405 28.8344 224.984 36.6548C269.324 48.7833 305.383 77.4156 327.714 114.775C349.731 151.615 358.393 196.964 348.487 243.302L347.903 245.914L347.893 245.974C335.452 300.61 302.545 344.434 259.429 371.698C220.871 396.102 174.104 407.293 126.432 401.215C160.699 391.669 190.966 362.008 188.475 324.151C187.202 304.828 179.647 287.086 164.69 274.723C152.327 264.531 136.137 259.281 120.181 260.45C94.6768 262.319 74.4942 280.94 71.298 306.873C68.9659 325.695 76.0176 345.004 92.2806 355.216C108.907 365.644 129.73 362.723 140.364 345.175C147.971 332.576 141.157 320.403 133.648 317.859C134.38 321.061 134.11 324.939 132.42 327.555C129.701 331.746 125.184 333.243 120.407 332.767C106.949 331.453 103.956 313.995 110.4 303.975C113.996 298.373 120.245 295.138 126.752 294.809C135.772 294.333 143.883 299.187 149.935 305.538C179.797 336.729 144.715 381.814 109.602 384.186C96.3635 385.087 76.2692 385.264 63.6748 381.321C58.4447 379.682 53.5436 377.909 48.9268 375.904C34.3686 368.027 20.8329 358.607 8.36453 347.931L8.02057 347.594C7.58684 347.242 7.18803 346.865 6.75929 346.483L0.878734 382.184C29.5351 403.9 62.75 419.955 99.5514 428.414L99.6112 428.424L102.488 429.053L102.608 429.073C164.239 442.369 225.931 429.931 275.774 398.39C325.711 366.834 363.811 316.113 378.213 252.929Z" fill="#E9F1FB"/>
</svg>
