<svg width="204" height="322" viewBox="0 0 204 322" fill="none" xmlns="http://www.w3.org/2000/svg"><path d="M199.786 187.411l.491-2.291c8.674-40.372 1.089-79.899-18.121-112.06-19.502-32.599-50.962-57.61-89.644-68.174C65.992-2.36 41.682.037 21.345 8.664c-14.57 6.19-27.077 15.6-36.907 26.97-9.83 11.37-16.964 24.727-20.781 38.792-4.936 18.234-4.342 37.677 3.073 55.734a96.385 96.385 0 009.618 17.798c8.184 14.223 26 29.041 48.129 34.506 24.557 6.048 30.923-5.271 48.185-6.826 6.507-.586 12.874 2.028 13.518 9.712.553 6.723-5.093 13.808-14.511 11.359 6.347 9.498 23.117 12.721 35.407 4.358 15.829-10.797 26.234-43.053-9.222-59.81 20.496 3.929 41.649-16.424 40.481-40.937-21.03 11.46-41.896-25.142-60.875 3.676 8.776-32.71-20.458-48.74-37.329-43.482-22.811 7.09-31.46 39.452-5.744 58.336-4.07-16.424 10.792-27.84 23.2-15.249 9.31 9.457 9.096 28.422-8.684 40.026-15.08 9.837-34.093 8.778-46.837-.668-5.699-5.982-10.537-13.32-14.03-21.795-5.387-13.117-5.797-27.325-2.165-40.684 2.902-10.715 8.357-20.917 15.88-29.604 7.524-8.687 17.15-15.922 28.392-20.68 15.913-6.753 35.13-8.585 56.274-2.8 32.806 8.974 59.485 30.158 76.007 57.8 16.29 27.256 22.699 60.809 15.369 95.092l-.432 1.932-.007.045c-9.205 40.423-33.552 72.848-65.452 93.019a148.62 148.62 0 01-98.4 21.839c25.353-7.063 47.746-29.008 45.904-57.017-.942-14.297-6.532-27.424-17.598-36.57-9.148-7.541-21.125-11.426-32.93-10.56-18.87 1.382-33.803 15.16-36.168 34.346-1.725 13.926 3.492 28.212 15.524 35.768 12.302 7.715 27.708 5.554 35.576-7.429 5.628-9.322.586-18.328-4.969-20.21.542 2.369.342 5.238-.909 7.174-2.011 3.1-5.354 4.208-8.888 3.856-9.956-.972-12.171-13.889-7.403-21.303 2.66-4.145 7.283-6.538 12.098-6.782 6.673-.351 12.675 3.24 17.152 7.939 22.094 23.077-3.862 56.434-29.84 58.189-9.796.666-24.663.797-33.98-2.12-3.87-1.213-7.497-2.524-10.913-4.008-10.77-5.828-20.785-12.797-30.01-20.696l-.255-.25c-.32-.26-.616-.539-.933-.821l-4.35 26.413c21.201 16.068 45.776 27.946 73.004 34.204l.044.008 2.129.465.088.015c45.6 9.837 91.243.635 128.12-22.701 36.947-23.348 65.135-60.874 75.791-107.622z" fill="#E9F1FB"/></svg>