<svg width="468" height="489" viewBox="0 0 468 489" fill="none" xmlns="http://www.w3.org/2000/svg"><g clip-path="url(#clip0_1121_7184)"><path d="M344.494-249.508l-7.928-.383c-139.697-6.813-267.619 40.648-364.522 123.17-98.212 83.746-164.481 203.547-178.49 339.654-9.621 93.315 11.776 173.846 51.8 237.536 28.709 45.624 67.04 82.521 110.45 109.314 43.41 26.792 91.977 43.404 141.083 48.456 63.653 6.507 128.306-6.277 184.57-41.261 20.012-12.477 38.099-26.716 54.186-42.255 43.025-35.443 89.876-101.736 95.957-179.281 6.696-86.043-41.771-103.114-56.472-160.374-5.542-21.587-.308-44.475 25.014-50.906 22.167-5.588 48.952 9.493 45.95 42.562 28.248-26.639 29.787-84.894-4.926-121.638C396.371 7.778 282.842-9.37 246.359 119.312 248.207 48.12 168.544-11.819 87.266 5.711c49.875 64.455-60.96 155.014 45.796 202.935C18.918 197.24-18.566 304.564 8.296 358.455c36.252 72.876 149.165 84.052 198.117-13.013-52.647 22.812-98.982-20.899-63.73-69.661 26.477-36.591 89.976-46.39 138.543 7.042 41.178 45.318 44.596 129.209 23.774 166.321-20.821 37.111-37.521 42.957-63.921 59.415-40.87 25.415-89.545 26.345-136.188 21.522-37.406-3.827-74.505-16.535-107.678-37.05-33.174-20.516-62.653-48.916-84.742-84.129-31.327-49.834-48.029-113.524-40.332-187.931 11.93-115.438 68.04-217.02 151.32-287.983 82.125-69.967 190.728-110.156 309.336-104.491l6.696.382h.154c140.16 8.574 261.924 72.57 346.897 168.794 76.045 86.043 122.764 197.959 127.151 319.215-37.56-81.449-123.226-144.68-215.819-122.94-47.258 11.1-30.204 37.204-54.68 79.536-20.166 34.984-26.554 77.469-17.164 116.74 15.009 62.771 11.424 105.409 76.847 102.73 47.49-1.914 92.362-27.405 110.989-72.11 19.011-45.701 3.309-96.377-44.411-115.668-34.251-13.779-61.575 8.191-64.808 27.941 7.62-3.139 17.318-4.057 24.476-.919 11.469 5.053 17.01 15.693 17.78 27.788 2.232 34.065-39.716 48.686-67.116 36.744-15.317-6.66-25.862-20.898-29.325-36.973-4.849-22.277 3.848-44.476 17.087-62.159 64.961-87.191 190.727-18.296 210.893 68.206 7.62 32.61 16.24 82.598 11.622 115.591-1.924 13.703-4.31 26.64-7.389 38.964-13.546 39.5-31.326 77.087-52.646 112.529l-.693.995c-.692 1.225-1.462 2.373-2.232 3.598h90.669c42.025-80.301 68.194-169.635 74.12-264.787v-.154l.385-7.425v-.306c7.774-158.995-48.105-307.58-146.394-418.808-98.365-111.457-239.294-185.558-401.39-195.509z" fill="#D3E4F6"/></g><defs><clipPath id="clip0_1121_7184"><path fill="#fff" transform="translate(.313 .281)" d="M0 0h467v488H0z"/></clipPath></defs></svg>