<svg width="258" height="322" viewBox="0 0 258 322" fill="none" xmlns="http://www.w3.org/2000/svg"><path d="M4.845 187.411l-.491-2.291c-8.674-40.372-1.09-79.899 18.121-112.06 19.502-32.599 50.961-57.61 89.643-68.174 26.52-7.247 50.832-4.849 71.168 3.778 14.569 6.19 27.077 15.6 36.907 26.97 9.83 11.37 16.964 24.727 20.781 38.792 4.936 18.234 4.342 37.677-3.073 55.734a96.427 96.427 0 01-9.618 17.798c-8.184 14.223-25.999 29.041-48.129 34.506-24.557 6.048-30.923-5.271-48.185-6.826-6.508-.586-12.875 2.028-13.519 9.712-.552 6.723 5.094 13.808 14.512 11.359-6.347 9.498-23.117 12.721-35.407 4.358-15.829-10.797-26.235-43.053 9.222-59.81-20.496 3.929-41.65-16.424-40.481-40.937 21.03 11.46 41.896-25.142 60.875 3.676-8.776-32.71 20.457-48.74 37.329-43.482 22.811 7.09 31.461 39.452 5.744 58.336 4.069-16.424-10.792-27.84-23.2-15.249-9.31 9.457-9.096 28.422 8.684 40.026 15.079 9.837 34.093 8.778 46.837-.668 5.699-5.982 10.537-13.32 14.029-21.795 5.387-13.117 5.798-27.325 2.165-40.684-2.901-10.715-8.356-20.917-15.88-29.604-7.523-8.687-17.15-15.922-28.391-20.68-15.913-6.753-35.13-8.585-56.274-2.8-32.806 8.974-59.485 30.158-76.007 57.8-16.29 27.256-22.699 60.809-15.37 95.092l.433 1.932.007.045c9.205 40.423 33.552 72.848 65.452 93.019a148.62 148.62 0 0098.4 21.839c-25.353-7.063-47.747-29.008-45.904-57.017.942-14.297 6.532-27.424 17.598-36.57 9.147-7.541 21.125-11.426 32.93-10.56 18.87 1.382 33.803 15.16 36.168 34.346 1.725 13.926-3.492 28.212-15.525 35.768-12.301 7.715-27.707 5.554-35.575-7.429-5.628-9.322-.587-18.328 4.969-20.21-.542 2.369-.342 5.238.909 7.174 2.011 3.1 5.354 4.208 8.888 3.856 9.956-.972 12.171-13.889 7.403-21.303-2.66-4.145-7.283-6.538-12.098-6.782-6.673-.351-12.675 3.24-17.152 7.939-22.094 23.077 3.862 56.434 29.841 58.189 9.795.666 24.662.797 33.98-2.12 3.869-1.213 7.496-2.524 10.911-4.008 10.771-5.828 20.786-12.797 30.011-20.696l.255-.25c.32-.26.616-.539.933-.821l4.351 26.413c-21.202 16.068-45.777 27.946-73.005 34.204l-.044.008-2.129.465-.088.015c-45.6 9.837-91.243.635-128.12-22.701C43.689 271.685 15.5 234.159 4.845 187.411z" fill="#E9F1FB"/></svg>