<svg width="351" height="435" viewBox="0 0 351 435" fill="none" xmlns="http://www.w3.org/2000/svg"><path d="M378.213 252.929l.664-3.096c11.723-54.568 1.471-107.991-24.493-151.459-26.359-44.062-68.88-77.867-121.162-92.144-35.844-9.796-68.703-6.554-96.189 5.105-19.692 8.367-36.598 21.084-49.884 36.452C73.863 63.155 64.22 81.21 59.062 100.22c-6.672 24.644-5.869 50.925 4.154 75.33a130.267 130.267 0 0012.999 24.056c11.06 19.223 35.14 39.251 65.051 46.637 33.191 8.176 41.795-7.123 65.126-9.226 8.796-.792 17.401 2.742 18.272 13.127.746 9.088-6.885 18.664-19.614 15.353 8.579 12.837 31.245 17.193 47.856 5.89 21.394-14.592 35.458-58.19-12.464-80.839 27.702 5.31 56.293-22.198 54.714-55.33-28.425 15.489-56.627-33.981-82.278 4.969 11.86-44.21-27.651-65.878-50.454-58.77-30.832 9.583-42.523 53.323-7.764 78.846-5.5-22.198 14.587-37.629 31.357-20.609 12.583 12.78 12.294 38.414-11.738 54.097-20.381 13.297-46.079 11.865-63.304-.902-7.702-8.086-14.242-18.003-18.962-29.458-7.281-17.728-7.836-36.933-2.926-54.988C93.009 93.92 100.38 80.13 110.55 68.389s23.18-21.52 38.374-27.951c21.507-9.127 47.481-11.604 76.06-3.783 44.34 12.128 80.399 40.76 102.73 78.12 22.017 36.84 30.679 82.189 20.773 128.527l-.584 2.612-.01.06c-12.441 54.636-45.348 98.46-88.464 125.724-38.558 24.404-85.325 35.595-132.997 29.517 34.267-9.546 64.534-39.207 62.043-77.064-1.273-19.323-8.828-37.065-23.785-49.428-12.363-10.192-28.553-15.442-44.509-14.273-25.504 1.869-45.687 20.49-48.883 46.423-2.332 18.822 4.72 38.131 20.983 48.343 16.626 10.428 37.449 7.507 48.083-10.041 7.607-12.599.793-24.772-6.716-27.316.732 3.202.462 7.08-1.228 9.696-2.719 4.191-7.236 5.688-12.013 5.212-13.458-1.314-16.451-18.772-10.007-28.792 3.596-5.602 9.845-8.837 16.352-9.166 9.02-.476 17.131 4.378 23.183 10.729 29.862 31.191-5.22 76.276-40.333 78.648-13.239.901-33.333 1.078-45.927-2.865-5.23-1.639-10.131-3.412-14.748-5.417-14.558-7.877-28.094-17.297-40.562-27.973l-.344-.337c-.434-.352-.833-.729-1.262-1.111L.88 382.184c28.656 21.716 61.871 37.771 98.672 46.23l.06.01 2.877.629.12.02c61.631 13.296 123.323.858 173.166-30.683 49.937-31.556 88.037-82.277 102.439-145.461z" fill="#E9F1FB"/></svg>