<svg width="343" height="452" viewBox="0 0 343 452" fill="none" xmlns="http://www.w3.org/2000/svg"><path d="M-14.434 148.729l.974-3.014C3.673 92.598 39.265 51.458 83.486 26.798 128.344 1.821 182.07-6.193 234.487 7.586c35.939 9.44 62.775 28.678 80.748 52.519 12.87 17.092 21.151 36.559 24.972 56.511 3.822 19.953 3.144 40.408-1.894 59.451-6.545 24.678-20.381 47.035-41.265 63.159a130.296 130.296 0 01-23.286 14.333c-19.19 11.116-50.058 16.42-79.654 7.86-32.832-9.517-32.634-27.068-51.787-40.555-7.221-5.084-16.44-6.327-22.387 2.231-5.19 7.497-3.37 19.606 9.309 23.103-13.849 6.828-35.656-.734-44.39-18.828-11.23-23.335-1.61-68.123 51.217-63.774-26.645-9.254-37.65-47.373-19.716-75.275 16.871 27.627 66.031-1.113 68.769 45.444 11.835-44.216 56.887-43.224 73.08-25.666 21.909 23.716 10.162 67.44-32.702 72.163 15.863-16.473 6.183-39.88-16.85-33.527-17.287 4.776-29.855 27.119-16.885 52.718 11.001 21.706 33.972 33.316 55.273 30.873 10.713-3.151 21.336-8.47 31.151-16.029 15.17-11.712 25.253-28.066 30.03-46.157 3.845-14.503 4.356-30.131 1.42-45.384-2.935-15.253-9.313-30.227-19.255-43.394-14.062-18.658-35.317-33.79-63.977-41.309C181.945 26.385 136.4 33.15 98.38 54.337c-37.488 20.895-67.666 55.836-82.257 100.918l-.8 2.554-.022.057C-1.244 211.402 5.34 265.809 29.045 310.979c21.189 40.414 56.094 73.491 100.417 92.065-24.902-25.402-36.282-66.222-15.195-97.762 10.765-16.097 26.18-27.684 45.313-30.911 15.804-2.644 32.449.904 45.682 9.895 21.153 14.372 29.32 40.59 19.121 64.646-7.392 17.466-23.154 30.662-42.344 31.374-19.614.716-36.186-12.225-36.62-32.739-.288-14.715 11.7-21.849 19.475-20.298-2.236 2.407-3.941 5.9-3.785 9.011.259 4.988 3.423 8.544 7.797 10.521 12.311 5.591 23.633-8.031 23.063-19.931-.313-6.65-4.106-12.576-9.577-16.114-7.574-4.922-17.025-4.775-25.442-2.301-41.457 12.08-33.62 68.666-4.398 88.277 11.014 7.4 28.328 17.601 41.206 20.485 5.349 1.195 10.48 2.111 15.481 2.682 16.546.459 32.978-.931 49.114-3.942l.467-.12c.551-.087 1.085-.214 1.647-.331l-12.759 33.858c-35.675 4.477-72.467 1.772-108.567-9.305l-.057-.021-2.806-.893-.114-.043C76.143 419.778 28.937 378.16 1.544 325.922c-27.467-52.299-35.1-115.274-15.978-177.193z" fill="#E9F1FB"/></svg>