<svg width="179" height="32" viewBox="0 0 179 32" fill="none" xmlns="http://www.w3.org/2000/svg"><path d="M4.097 20.373A4.108 4.108 0 000 24.483a4.108 4.108 0 004.097 4.11 4.108 4.108 0 004.097-4.11 4.108 4.108 0 00-4.097-4.11zm16.387 0a4.108 4.108 0 00-4.097 4.11 4.108 4.108 0 004.097 4.11 4.108 4.108 0 004.097-4.11 4.108 4.108 0 00-4.097-4.11zm16.387 0a4.108 4.108 0 00-4.097 4.11 4.108 4.108 0 004.097 4.11 4.108 4.108 0 004.097-4.11 4.108 4.108 0 00-4.097-4.11zm16.387 0a4.108 4.108 0 00-4.097 4.11 4.108 4.108 0 004.097 4.11 4.108 4.108 0 004.097-4.11 4.108 4.108 0 00-4.097-4.11zm-8.194-8.219a4.108 4.108 0 00-4.097 4.11 4.108 4.108 0 004.097 4.11 4.108 4.108 0 004.097-4.11 4.108 4.108 0 00-4.097-4.11zM12.29 3.937a4.108 4.108 0 00-4.096 4.11 4.108 4.108 0 004.097 4.109 4.108 4.108 0 004.097-4.11 4.108 4.108 0 00-4.097-4.11zm24.581 8.217a4.108 4.108 0 004.097-4.11 4.108 4.108 0 00-4.097-4.11 4.108 4.108 0 00-4.097 4.11 4.108 4.108 0 004.097 4.11zm16.387 0a4.108 4.108 0 004.097-4.11 4.108 4.108 0 00-4.097-4.11 4.108 4.108 0 00-4.097 4.11 4.108 4.108 0 004.097 4.11z" fill="#F16041"/><path d="M66.179 14.463c-.665-.504-1.088-1.292-1.088-2.423 0-2.485 2.073-3.454 5.598-3.454h1.006v-.243c0-1.03-.241-1.676-1.389-1.676-.987 0-1.349.587-1.429 1.252h-3.384c.08-1.273.625-2.223 1.51-2.869.868-.627 2.076-.929 3.526-.929 1.45 0 2.639.302 3.464.95.825.646 1.288 1.657 1.288 3.05v6.849h-3.504v-1.233c-.503.788-1.43 1.476-3.121 1.476-.947 0-1.833-.243-2.477-.748m5.518-3.192v-.646h-.947c-1.45 0-2.094.283-2.094 1.15 0 .628.383.99 1.248.99 1.027 0 1.793-.584 1.793-1.494zM80.3 6.868v8.1h-3.585V4.405h10.13V14.97H83.26v-8.1H80.3zm11.663 0v8.1h-3.586V4.405h10.131V14.97h-3.586v-8.1h-2.96zm9.161 6.949c-1.027-.91-1.63-2.282-1.63-4v-.163c0-1.697.624-3.071 1.651-4.04 1.027-.97 2.456-1.495 4.047-1.495 1.451 0 2.779.424 3.766 1.313.966.889 1.591 2.263 1.591 4.142v.95h-7.411c.101 1.393.907 2.202 2.195 2.202 1.209 0 1.692-.545 1.833-1.252h3.384c-.322 2.404-2.134 3.736-5.337 3.736-1.671 0-3.102-.485-4.087-1.393m4.068-7.313c-1.107 0-1.833.688-2.014 1.98h3.866c-.061-1.292-.665-1.98-1.852-1.98zm11.857.364v8.1h-3.586v-8.1h-2.959V4.404h9.505v2.464h-2.96zm3.455-2.464h3.584v6.424l3.304-6.424h3.584v10.564h-3.584V8.544l-3.304 6.425h-3.584V4.404zm17.524 2.464v8.1h-3.585v-8.1h-2.961V4.404h9.507v2.464h-2.961zm7.04 3.96v4.14h-3.584V4.405h3.584v3.959h3.161v-3.96h3.586v10.564h-3.586v-4.14h-3.161zm11.875-6.424v3.152h1.692c2.597 0 4.089 1.474 4.089 3.737v.06c0 2.264-1.33 3.617-4.23 3.617h-5.136V4.404h3.585zm2.134 6.929v-.061c0-.828-.484-1.252-1.471-1.252h-.665v2.485h.665c.947 0 1.471-.283 1.471-1.172zm7.894 3.636h-3.565V4.404h3.565V14.97v-.002zm1.556-10.565h3.585v6.424l3.302-6.424H179V14.97h-3.584V8.546l-3.302 6.424h-3.585V4.404zM170.341 0h2.438c.06.566.301 1.03.886 1.03.584 0 .865-.464.947-1.03h2.416c-.162 1.94-1.349 3.09-3.363 3.09-2.014 0-3.183-1.15-3.324-3.09zM68.456 28.145h-2.82V17.581h4.613l2.052 5.272 2.096-5.272h4.33v10.564h-3.545v-6.787l-2.719 6.787h-1.35l-2.657-6.787v6.787zm12.373-.505c-.665-.504-1.088-1.292-1.088-2.423 0-2.485 2.075-3.454 5.598-3.454h1.006v-.243c0-1.03-.242-1.676-1.389-1.676-.987 0-1.349.585-1.43 1.252h-3.383c.08-1.273.625-2.223 1.51-2.87.868-.626 2.076-.928 3.526-.928 1.45 0 2.639.302 3.464.95.825.646 1.288 1.657 1.288 3.05v6.849h-3.504v-1.233c-.503.787-1.43 1.475-3.121 1.475-.947 0-1.833-.242-2.477-.747m5.518-3.192v-.646H85.4c-1.45 0-2.094.283-2.094 1.15 0 .627.383.99 1.248.99 1.027 0 1.793-.586 1.793-1.494zm8.637-6.87v1.576c.625-1.03 1.672-1.858 3.283-1.858 1.23 0 2.337.464 3.143 1.374.805.91 1.309 2.303 1.309 4.1v.162c0 1.839-.504 3.192-1.309 4.081-.806.91-1.934 1.374-3.162 1.374-1.612 0-2.719-.747-3.262-1.798v5.09h-3.605v-14.1h3.605-.002zm4.069 5.354v-.162c0-1.858-.786-2.747-2.075-2.747-1.29 0-2.095.95-2.095 2.728v.16c0 1.799.786 2.707 2.095 2.707 1.309 0 2.075-.929 2.075-2.686zm8.276 5.211h-3.605V17.581h3.605v4.182l2.839-4.182h3.746l-3.445 4.746 3.727 5.818h-4.028l-2.839-4.625v4.625z" fill="#252829"/><path d="M115.252 26.995c-1.027-.91-1.631-2.283-1.631-4v-.163c0-1.697.624-3.071 1.652-4.04 1.027-.97 2.456-1.495 4.047-1.495 1.45 0 2.778.424 3.765 1.313.966.889 1.591 2.263 1.591 4.142v.95h-7.41c.101 1.393.907 2.201 2.195 2.201 1.208 0 1.692-.544 1.833-1.252h3.384c-.322 2.405-2.134 3.737-5.337 3.737-1.671 0-3.102-.485-4.088-1.393m4.069-7.313c-1.108 0-1.833.686-2.015 1.98h3.867c-.061-1.292-.665-1.98-1.852-1.98zm11.855.363v8.1h-3.584v-8.1h-2.96V17.58h9.505v2.464h-2.961zm3.456-2.464h3.584v6.424l3.302-6.424h3.586v10.564h-3.586v-6.424l-3.302 6.424h-3.584V17.581zm15.601 6.424v4.14h-3.586V17.581h3.586v3.959h3.162v-3.96h3.584v10.564h-3.584v-4.14h-3.162zm11.875 4.14h-3.585V17.581h7.552v2.464h-3.967v8.1z" fill="#252829"/></svg>