<svg width="174" height="174" viewBox="0 0 174 174" fill="none" xmlns="http://www.w3.org/2000/svg"><g clip-path="url(#clip0_3583_79)"><path d="M127.685-91.976l-2.903-.14c-51.17-2.5-98.025 14.918-133.52 45.205C-44.71-16.175-68.983 27.794-74.114 77.746c-3.525 34.248 4.313 63.804 18.973 87.18 10.516 16.744 24.556 30.286 40.456 40.119 15.9 9.834 33.69 15.93 51.677 17.785 23.315 2.388 46.996-2.304 67.605-15.144a119.712 119.712 0 0019.847-15.508c15.76-13.008 32.921-37.339 35.148-65.799 2.453-31.579-15.3-37.844-20.685-58.86-2.03-7.922-.113-16.322 9.162-18.682 8.12-2.051 17.931 3.483 16.831 15.62 10.347-9.776 10.911-31.157-1.804-44.642-16.409-17.364-57.993-23.658-71.356 23.57.677-26.127-28.502-48.125-58.273-41.692C51.735 25.35 11.138 58.586 50.24 76.173c-41.81-4.186-55.539 35.203-45.7 54.982 13.279 26.747 54.637 30.849 72.567-4.776-19.283 8.372-36.255-7.67-23.343-25.566 9.698-13.43 32.957-17.026 50.746 2.584 15.083 16.633 16.335 47.422 8.708 61.042-7.626 13.621-13.743 15.766-23.413 21.807-14.97 9.327-32.799 9.668-49.883 7.898-13.702-1.404-27.29-6.068-39.442-13.598a96.765 96.765 0 01-31.04-30.876c-11.474-18.29-17.591-41.665-14.772-68.973 4.37-42.368 24.922-79.65 55.426-105.694 30.081-25.68 69.86-40.429 113.305-38.35l2.453.14h.056c51.339 3.147 95.939 26.635 127.063 61.95 27.854 31.579 44.967 72.654 46.574 117.157-13.758-29.894-45.136-53.1-79.051-45.121-17.31 4.074-11.064 13.654-20.029 29.19-7.386 12.84-9.726 28.433-6.287 42.846 5.498 23.038 4.185 38.687 28.148 37.703 17.395-.702 33.831-10.058 40.654-26.465 6.963-16.773 1.212-35.372-16.267-42.452-12.546-5.057-22.554 3.006-23.738 10.255 2.791-1.152 6.343-1.489 8.965-.337 4.2 1.854 6.23 5.759 6.512 10.198.818 12.502-14.547 17.869-24.584 13.486-5.61-2.444-9.472-7.67-10.741-13.57-1.776-8.176 1.41-16.323 6.259-22.813 23.794-32 69.86-6.715 77.247 25.032 2.791 11.969 5.948 30.315 4.257 42.424-.705 5.029-1.579 9.777-2.707 14.3-4.961 14.497-11.474 28.292-19.283 41.3l-.254.365c-.254.45-.535.871-.817 1.321h33.21c15.393-29.472 24.979-62.259 27.149-97.181v-.056l.141-2.725v-.113c2.848-58.353-17.62-112.886-53.621-153.708-36.03-40.906-87.651-68.102-147.024-71.755z" fill="#E42313"/></g><defs><clipPath id="clip0_3583_79"><path fill="#fff" d="M0 0h174v174H0z"/></clipPath></defs></svg>