<svg width="174" height="174" viewBox="0 0 174 174" fill="none" xmlns="http://www.w3.org/2000/svg">
<g clip-path="url(#clip0_3583_79)">
<path d="M127.685 -91.9759L124.782 -92.1163C73.6124 -94.6168 26.7567 -77.1979 -8.73747 -46.9113C-44.7109 -16.1753 -68.9845 27.7935 -74.1155 77.7465C-77.6396 111.994 -69.8021 141.55 -55.1421 164.926C-44.6263 181.67 -30.5865 195.212 -14.686 205.045C1.21446 214.879 19.0038 220.975 36.9906 222.83C60.3056 225.218 83.9872 220.526 104.596 207.686C111.926 203.107 118.551 197.881 124.443 192.178C140.203 179.17 157.364 154.839 159.591 126.379C162.044 94.8003 144.291 88.5351 138.906 67.5199C136.876 59.5971 138.793 51.1967 148.068 48.8367C156.188 46.7857 165.999 52.3205 164.899 64.4576C175.246 54.6805 175.81 33.3001 163.095 19.8145C146.687 2.45171 105.103 -3.84159 91.7401 43.3862C92.4167 17.2578 63.2376 -4.74064 33.4665 1.69314C51.7351 25.3492 11.1382 58.5857 50.241 76.1732C8.43169 71.9871 -5.29798 111.376 4.54116 131.155C17.8198 157.902 59.1779 162.004 77.1083 126.379C57.8247 134.751 40.8529 118.709 53.765 100.813C63.4632 87.3832 86.7219 83.787 104.511 103.397C119.594 120.03 120.846 150.819 113.219 164.439C105.593 178.06 99.476 180.205 89.806 186.246C74.8359 195.573 57.0071 195.914 39.9226 194.144C26.2211 192.74 12.6324 188.076 0.481454 180.546C-11.6695 173.017 -22.4671 162.594 -30.5583 149.67C-42.0326 131.38 -48.1504 108.005 -45.3311 80.6965C-40.9613 38.3291 -20.4091 1.04696 10.095 -24.9972C40.1763 -50.6761 79.9557 -65.426 123.4 -63.347L125.853 -63.2065L125.909 -63.2065C177.248 -60.0599 221.848 -36.5724 252.972 -1.25685C280.826 30.322 297.939 71.397 299.546 115.9C285.788 86.0065 254.41 62.7999 220.495 70.7789C203.185 74.8527 209.431 84.4332 200.466 99.9697C193.08 112.809 190.74 128.402 194.179 142.815C199.677 165.853 198.364 181.502 222.327 180.518C239.722 179.816 256.158 170.46 262.981 154.053C269.944 137.28 264.193 118.681 246.714 111.601C234.168 106.544 224.16 114.607 222.976 121.856C225.767 120.704 229.319 120.367 231.941 121.519C236.141 123.373 238.171 127.278 238.453 131.717C239.271 144.219 223.906 149.586 213.869 145.203C208.259 142.759 204.397 137.533 203.128 131.633C201.352 123.457 204.538 115.31 209.387 108.82C233.181 76.8194 279.247 102.105 286.634 133.852C289.425 145.821 292.582 164.167 290.891 176.276C290.186 181.305 289.312 186.053 288.184 190.576C283.223 205.073 276.71 218.868 268.901 231.876L268.647 232.241C268.393 232.691 268.112 233.112 267.83 233.562L301.04 233.562C316.433 204.09 326.019 171.303 328.189 136.381L328.189 136.325L328.33 133.6L328.33 133.487C331.178 75.1337 310.71 20.6011 274.709 -20.221C238.679 -61.1275 187.058 -88.3235 127.685 -91.9759Z" fill="#E42313"/>
</g>
<defs>
<clipPath id="clip0_3583_79">
<rect width="174" height="174" fill="white"/>
</clipPath>
</defs>
</svg>
