<svg width="75" height="76" viewBox="0 0 75 76" fill="none" xmlns="http://www.w3.org/2000/svg"><path d="M37.631.711L.375 37.967l37.256 37.256 37.256-37.256L37.631.71z" fill="#27A536"/><path d="M15.245 41.202h2.661c-.151-.437-.407-.77-.78-.996-.373-.228-.816-.338-1.334-.338a2.379 2.379 0 00-1.473.524l-.589-1.235c.227-.21.542-.402.955-.576.414-.175.903-.257 1.486-.257.489 0 .943.088 1.363.268.419.18.78.431 1.083.757.309.327.547.717.716 1.171.17.454.257.961.257 1.526a4.51 4.51 0 01-.25 1.555c-.17.46-.409.85-.729 1.17a3.147 3.147 0 01-1.142.735 4.19 4.19 0 01-1.502.256 3.5 3.5 0 01-.71-.064 4.371 4.371 0 01-.647-.163 3.032 3.032 0 01-.536-.239 1.777 1.777 0 01-.39-.285l.658-1.387c.175.158.396.297.675.414.274.122.583.18.927.18.227 0 .442-.029.658-.081a1.864 1.864 0 001.06-.722c.134-.187.233-.414.302-.676h-2.72v-1.543.006zm5.008-2.749h1.55v3.134l2.219-3.134h1.858l-2.546 3.32 2.75 3.873H24.12l-2.313-3.419v3.42H20.26v-7.188l-.006-.006z" fill="#fff"/><path d="M25.338 42.048c0-.518.088-1.008.262-1.456.175-.454.42-.845.734-1.182.315-.338.694-.6 1.136-.793a3.663 3.663 0 011.48-.285c.518 0 .995.087 1.432.256.437.17.822.42 1.142.74.32.32.576.71.757 1.17.18.46.274.98.274 1.55 0 .547-.093 1.048-.274 1.503a3.416 3.416 0 01-1.899 1.939c-.437.18-.914.274-1.433.274-.518 0-.995-.087-1.432-.256a3.274 3.274 0 01-1.142-.74c-.32-.32-.576-.71-.757-1.17a4.217 4.217 0 01-.274-1.55h-.006zm1.649 0a2.336 2.336 0 00.576 1.555c.175.198.379.35.618.46.238.11.495.163.763.163.32 0 .605-.058.844-.169.245-.11.443-.268.612-.46.163-.198.291-.425.373-.693.081-.268.128-.553.128-.85a2.53 2.53 0 00-.152-.891 2.081 2.081 0 00-.413-.688 1.874 1.874 0 00-.623-.442 1.878 1.878 0 00-.764-.152c-.285 0-.547.053-.786.152-.239.105-.442.25-.617.442a2.07 2.07 0 00-.408.688 2.555 2.555 0 00-.146.89l-.005-.005zm10.239.698h-2.47v2.895h-1.549v-7.188h1.55v2.755h2.469v-2.755h1.55v7.188h-1.55v-2.895z" fill="#fff"/><path d="M39.544 45.64v-7.187h1.55v4.467l2.999-4.467h1.357v7.188H43.9v-4.468l-2.999 4.468h-1.357z" fill="#004C23"/><path d="M53.453 38.447h1.38l2.813 7.188h-1.648l-.565-1.509h-2.69l-.566 1.509h-1.55l2.814-7.188h.012zm-.117 4.141h1.526l-.757-2.032-.769 2.032zM20.253 30.44h5.132v1.537h-3.582v1.264h3.29v1.538h-3.29v1.304h3.68v1.538h-5.23v-7.187.005zm6.029 0h1.549v3.133l2.22-3.134h1.857l-2.545 3.32 2.749 3.874h-1.963l-2.312-3.42v3.42h-1.55v-7.188l-.005-.006z" fill="#fff"/><path d="M31.617 34.032c0-.518.088-1.007.262-1.456.175-.454.42-.844.734-1.182.315-.338.693-.6 1.136-.792a3.663 3.663 0 011.48-.286c.518 0 .995.088 1.432.257.437.169.821.419 1.142.74.32.32.576.71.757 1.17.18.46.274.979.274 1.55 0 .547-.094 1.048-.274 1.502-.18.454-.431.85-.757 1.177-.32.326-.705.582-1.142.763-.437.18-.914.273-1.433.273-.518 0-.996-.087-1.433-.256a3.276 3.276 0 01-1.898-1.91 4.218 4.218 0 01-.274-1.55h-.006zm1.649 0a2.336 2.336 0 00.576 1.556c.175.192.379.349.617.46.24.11.496.163.763.163.32 0 .606-.058.845-.17.245-.11.443-.267.612-.46.163-.197.29-.425.372-.692.082-.268.128-.554.128-.85a2.53 2.53 0 00-.15-.892 2.081 2.081 0 00-.415-.687 1.876 1.876 0 00-.623-.443 1.88 1.88 0 00-.763-.151c-.285 0-.547.052-.786.151-.239.105-.443.25-.617.443a2.07 2.07 0 00-.408.687 2.554 2.554 0 00-.146.891l-.005-.006z" fill="#fff"/><path d="M44.215 37.627L41 33.31v4.316h-1.45v-7.188h1.24l3.215 4.334v-4.334h1.45v7.188h-1.24z" fill="#004C23"/><path d="M46.225 30.44h1.549v7.187h-1.55v-7.188zm10.338 0h1.38l2.814 7.187h-1.649l-.565-1.509h-2.69l-.565 1.509h-1.55l2.813-7.188h.012zm-.116 4.14h1.526l-.758-2.032-.768 2.033zm-2.598-4.14l-1.987 5.073-1.986-5.073h-1.654l2.813 7.187h1.655l2.813-7.188h-1.654zm-7.624 8.03c.099-.005.22-.011.378-.023.157-.012.326-.012.513-.023l.582-.018h.583c.407 0 .751.047 1.042.14.286.093.524.221.705.379.186.163.32.35.402.57.081.222.128.455.128.7 0 .378-.064.693-.198.949a1.863 1.863 0 01-.577.652v.023a1.432 1.432 0 01.67.547c.088.135.163.292.216.473.052.18.081.39.081.623 0 .378-.064.705-.192.978a1.87 1.87 0 01-.542.694c-.233.186-.506.32-.815.413a3.783 3.783 0 01-1.02.134h-.524c-.186 0-.366-.006-.547-.012-.18 0-.344-.005-.501-.017a4.589 4.589 0 01-.379-.03v-7.146l-.005-.006zm2.032 1.48c-.099 0-.18 0-.244.011-.07.006-.146.018-.24.03v1.304h.513a.82.82 0 00.507-.157c.14-.105.21-.285.21-.542 0-.221-.076-.384-.233-.489a.901.901 0 00-.513-.157zm-.483 2.784v1.345c.052.012.116.03.186.041.076.012.187.018.332.018.303 0 .53-.065.676-.199.145-.133.221-.32.221-.559 0-.227-.075-.39-.221-.495-.146-.105-.35-.151-.6-.151h-.6.006zM60.081 31.19c0-.436.309-.792.687-.792.379 0 .688.356.688.793 0 .436-.31.792-.688.792-.378 0-.687-.356-.687-.792zm.169 0c0 .333.233.595.518.595.292 0 .519-.262.519-.594 0-.332-.227-.595-.519-.595-.285 0-.518.263-.518.595zm.81-.168c0 .11-.053.198-.14.233l.18.303s-.046.029-.105.029c-.052 0-.087-.018-.087-.018l-.18-.291h-.053v.291s-.04.018-.081.018c-.053 0-.088-.018-.088-.018v-.804h.291c.152 0 .25.105.25.257h.013zm-.268.099c.058 0 .093-.035.093-.1 0-.063-.035-.098-.093-.098h-.111v.192h.11v.006z" fill="#fff"/></svg>