<svg width="154" height="50" viewBox="0 0 154 50" fill="none" xmlns="http://www.w3.org/2000/svg"><path d="M5.348 35.257h8.513c-.474-1.387-1.302-2.444-2.497-3.159-1.184-.715-2.604-1.078-4.262-1.078-.785 0-1.582.139-2.4.406A7.727 7.727 0 002.4 32.685L.505 28.779c.721-.673 1.744-1.281 3.046-1.825 1.302-.545 2.895-.811 4.757-.811 1.571 0 3.024.277 4.348.843a10.305 10.305 0 013.465 2.39c.98 1.036 1.744 2.274 2.292 3.715.55 1.44.818 3.052.818 4.834 0 1.825-.269 3.469-.807 4.931-.538 1.462-1.313 2.7-2.325 3.714-1.011 1.014-2.227 1.783-3.659 2.327-1.42.544-3.024.811-4.8.811a13.346 13.346 0 01-4.337-.715 10.662 10.662 0 01-1.722-.747 5.94 5.94 0 01-1.259-.907l2.11-4.398c.56.502 1.27.94 2.152 1.324.883.384 1.862.566 2.96.566.72 0 1.42-.086 2.109-.267a6.133 6.133 0 001.894-.833 5.909 5.909 0 001.518-1.451c.43-.587.753-1.302.957-2.145H5.316v-4.889l.032.011zm16.014-8.727h4.962v9.936l7.092-9.937h5.951L31.22 37.053l8.793 12.284h-6.285l-7.404-10.854v10.854h-4.95V26.529h-.012z" fill="#27A536"/><path d="M37.645 37.937c0-1.654.28-3.191.84-4.632.56-1.43 1.334-2.679 2.335-3.746 1.001-1.068 2.207-1.9 3.627-2.508 1.41-.609 2.992-.918 4.725-.918 1.646 0 3.175.277 4.584.81 1.4.545 2.626 1.324 3.66 2.349 1.033 1.024 1.84 2.263 2.42 3.714.582 1.452.873 3.095.873 4.92 0 1.74-.29 3.33-.872 4.771-.581 1.44-1.388 2.69-2.422 3.735-1.033 1.046-2.249 1.847-3.659 2.423-1.41.577-2.927.865-4.584.865-1.658 0-3.175-.267-4.585-.812a10.482 10.482 0 01-3.66-2.348c-1.032-1.024-1.84-2.262-2.41-3.714-.58-1.451-.872-3.095-.872-4.92v.01zm5.263 0c0 .982.162 1.889.495 2.732.334.843.775 1.58 1.335 2.199a6.04 6.04 0 001.98 1.451 5.773 5.773 0 002.443.523c1.033 0 1.937-.181 2.712-.533a5.66 5.66 0 001.948-1.463 6.307 6.307 0 001.195-2.198c.269-.843.398-1.75.398-2.7 0-1.046-.162-1.986-.485-2.84-.322-.842-.764-1.579-1.334-2.187a5.789 5.789 0 00-2.002-1.398 6.09 6.09 0 00-2.443-.491c-.904 0-1.743.16-2.507.49a5.738 5.738 0 00-1.98 1.399c-.56.608-.99 1.334-1.303 2.188-.312.853-.463 1.793-.463 2.839l.011-.011zm32.749 2.211h-7.9v9.189h-4.961V26.529h4.961v8.73h7.9v-8.73h4.95v22.808h-4.95v-9.19z" fill="#27A536"/><path d="M83.084 49.337V26.529h4.95v14.174l9.6-14.174h4.337v22.808h-4.96V35.164l-9.6 14.173h-4.338.011z" fill="#004C23"/><path d="M127.563 26.53h4.424l8.997 22.807h-5.263l-1.797-4.792h-8.599l-1.797 4.792h-4.951l8.997-22.808h-.011zm-.376 13.127h4.875l-2.421-6.446-2.454 6.446zM21.362 1.117h16.423v4.888H26.324v4.013H36.86v4.888H26.324v4.141h11.773v4.889H21.362V1.118zm19.286 0h4.96v9.937l7.093-9.937h5.951l-8.147 10.524 8.793 12.284h-6.285L45.61 13.07v10.854h-4.95V1.117h-.011z" fill="#27A536"/><path d="M57.717 12.515c0-1.654.28-3.191.84-4.632.559-1.43 1.334-2.679 2.335-3.746 1-1.067 2.206-1.9 3.626-2.508C65.928 1.02 67.51.71 69.243.71c1.647 0 3.175.277 4.585.811 1.399.544 2.626 1.323 3.659 2.348s1.84 2.263 2.421 3.714c.581 1.452.872 3.095.872 4.92 0 1.74-.29 3.33-.872 4.771-.58 1.44-1.388 2.69-2.41 3.736-1.034 1.046-2.25 1.846-3.66 2.422-1.41.577-2.927.865-4.584.865-1.658 0-3.175-.267-4.585-.811a10.484 10.484 0 01-3.659-2.348c-1.033-1.025-1.84-2.263-2.41-3.715-.582-1.451-.872-3.095-.872-4.92l-.011.011zm5.263 0c0 .982.16 1.89.495 2.732.333.843.774 1.58 1.334 2.199.56.619 1.216 1.1 1.98 1.451a5.774 5.774 0 002.443.523c1.033 0 1.937-.181 2.712-.533a5.66 5.66 0 001.948-1.463 6.306 6.306 0 001.195-2.198c.269-.843.398-1.75.398-2.7 0-1.046-.161-1.985-.484-2.84-.323-.842-.764-1.579-1.335-2.187A5.79 5.79 0 0071.665 6.1a6.09 6.09 0 00-2.444-.491c-.904 0-1.743.16-2.507.49a5.76 5.76 0 00-1.98 1.399c-.56.608-.99 1.334-1.302 2.188-.313.843-.463 1.793-.463 2.839l.01-.011z" fill="#27A536"/><path d="M98.011 23.925L87.723 10.242v13.683h-4.65V1.117h3.96l10.29 13.747V1.117h4.648v22.808h-3.96z" fill="#004C23"/><path d="M104.456 1.105h4.951v22.808h-4.951V1.105zm33.061 0h4.423l8.997 22.808h-5.263l-1.797-4.792h-8.599l-1.797 4.792h-4.951l8.997-22.808h-.01zm-.377 13.128h4.875l-2.421-6.446-2.454 6.446zm-8.307-13.128l-6.35 16.106-6.349-16.106h-5.306l9.008 22.808h5.295l8.997-22.808h-5.295zM104.456 26.59c.312-.02.71-.042 1.205-.064.495-.02 1.044-.042 1.647-.064a96.94 96.94 0 011.862-.053c.635 0 1.259-.01 1.862-.01 1.302 0 2.41.149 3.325.437.915.288 1.668.694 2.26 1.206.592.512 1.023 1.11 1.281 1.804a6.07 6.07 0 01.398 2.22c0 1.195-.215 2.198-.635 3.01-.42.81-1.033 1.504-1.84 2.07v.064c.387.15.775.373 1.141.672.376.288.699.651.99 1.078.29.427.516.929.699 1.495.172.576.259 1.238.259 1.974 0 1.195-.205 2.23-.625 3.116a6.018 6.018 0 01-1.732 2.199 7.33 7.33 0 01-2.616 1.302c-1 .288-2.087.427-3.271.427-.517 0-1.076 0-1.668-.021-.603 0-1.184-.022-1.755-.032a63.98 63.98 0 01-1.592-.054 13.476 13.476 0 01-1.206-.096V26.59h.011zm6.5 4.697c-.312 0-.57.01-.785.032-.215.02-.474.053-.754.096v4.14h1.647c.635 0 1.184-.16 1.625-.49.441-.331.667-.897.667-1.73 0-.693-.247-1.205-.742-1.547a2.904 2.904 0 00-1.647-.501h-.011zm-1.549 8.826v4.27c.161.042.366.084.602.127.237.043.592.064 1.066.064.968 0 1.689-.213 2.163-.63.473-.426.71-1.013.71-1.771 0-.715-.237-1.238-.71-1.57-.474-.33-1.119-.49-1.916-.49h-1.915zm39.367-36.617c0-1.387.98-2.508 2.196-2.508 1.216 0 2.195 1.12 2.195 2.508s-.979 2.508-2.195 2.508c-1.216 0-2.196-1.12-2.196-2.508zm.539 0c0 1.057.742 1.89 1.657 1.89.925 0 1.657-.833 1.657-1.89 0-1.056-.732-1.889-1.657-1.889-.915 0-1.657.833-1.657 1.89zm2.593-.533c0 .341-.161.63-.441.747l.581.96s-.151.096-.344.096c-.172 0-.269-.053-.269-.053l-.571-.928h-.161v.928s-.129.053-.258.053c-.162 0-.27-.053-.27-.053v-2.55h.937c.484 0 .807.33.807.81l-.011-.01zm-.85.31c.194 0 .301-.118.301-.31 0-.203-.107-.31-.301-.31h-.355v.62h.355z" fill="#27A536"/></svg>