<svg width="149" height="99" viewBox="0 0 149 99" fill="none" xmlns="http://www.w3.org/2000/svg"><path d="M117.218 54.193h28.885v4.931c0 2.273-1.862 4.12-4.154 4.12h-20.566c-2.293 0-4.154-1.846-4.154-4.12v-4.93h-.011z" fill="#E42313"/><path d="M121.383 36.082h20.566c2.292 0 4.154 1.846 4.154 4.12v4.93h-28.885v-4.93c0-2.274 1.862-4.12 4.154-4.12h.011z" fill="#fff"/><path d="M146.103 45.133h-28.885v9.061h28.885v-9.061z" fill="#005CA9"/><path d="M52.505 30.398C58.07 24.175 66.076 20.6 74.46 20.6c10.472 0 19.662 5.464 24.86 13.672a6.34 6.34 0 01.786-.075 30.11 30.11 0 00-25.646-14.29 30.198 30.198 0 00-22.482 10.032.34.34 0 00.032.49c.14.129.366.118.495-.031zm46.762 34.77A29.367 29.367 0 0174.46 78.765c-10.407 0-19.565-5.411-24.774-13.544a4.804 4.804 0 01-.775.096 30.087 30.087 0 0025.55 14.153 30.083 30.083 0 0025.635-14.291c-.27.021-.55.01-.83 0v-.011z" fill="#000"/><path d="M119.123 27.173C110.524 10.417 93.401 0 74.46 0 52.365 0 33.564 14.27 26.935 34.004c.247 0 .484.01.72.042C34.243 14.676 52.732.694 74.46.694c18.683 0 35.558 10.267 44.038 26.788a.356.356 0 00.474.15.34.34 0 00.151-.47v.01zM64.321 47.706a.63.63 0 00.485.203.695.695 0 00.71-.683v-6.617a.65.65 0 00-.205-.48.66.66 0 00-.505-.203.98.98 0 00-.399.075c-.118.053-.215.16-.3.32l-2.1 4.237-2.087-4.195a.767.767 0 00-.28-.341.872.872 0 00-.441-.096.703.703 0 00-.495.192.634.634 0 00-.205.502v6.617c0 .181.065.341.204.48a.63.63 0 00.485.203.695.695 0 00.7-.683v-4.045l1.452 3.01a.807.807 0 00.29.33.697.697 0 00.377.107.64.64 0 00.388-.117.805.805 0 00.29-.331l1.453-3.02v4.055a.65.65 0 00.205.48h-.022zM47.21 51.774a.686.686 0 00-.505-.214h-4.768a.71.71 0 00-.517.214.698.698 0 00-.215.512.64.64 0 00.215.502.7.7 0 00.517.203h1.647v5.742a.734.734 0 00.743.726.71.71 0 00.516-.214.698.698 0 00.215-.512V52.99h1.647a.676.676 0 00.505-.203.665.665 0 00.205-.502.688.688 0 00-.205-.512zm5.1 3.531a42.57 42.57 0 00-1.13-3.084c-.128-.32-.279-.534-.462-.63a1.13 1.13 0 00-.516-.15c-.162 0-.334.054-.506.15s-.323.31-.452.63a45.923 45.923 0 00-1.12 3.084 38.448 38.448 0 00-.893 3.245.775.775 0 000 .384.769.769 0 00.15.277.66.66 0 00.26.182.737.737 0 00.732-.075.762.762 0 00.279-.438c.043-.192.086-.384.14-.576.043-.192.097-.373.15-.566h2.519c.054.182.107.374.161.566.043.192.097.384.14.576.043.203.13.352.27.449a.825.825 0 00.44.138.778.778 0 00.313-.064.917.917 0 00.269-.181.655.655 0 00.161-.278.769.769 0 000-.384 35.77 35.77 0 00-.883-3.244l-.021-.011zm-3.023 1.12c.14-.458.29-.907.441-1.344.15-.438.301-.875.474-1.313.161.438.323.875.473 1.313.15.437.29.886.43 1.345h-1.817zM56.4 40.813a2.276 2.276 0 00-.87-.652c-.356-.16-.797-.245-1.325-.245-.527 0-.968.085-1.323.245-.355.16-.646.385-.872.651a2.538 2.538 0 00-.474.93c-.096.34-.14.704-.14 1.066v2.21c0 .362.044.715.14 1.067.097.352.248.662.474.928.215.267.506.491.872.651.355.16.796.246 1.323.246.528 0 .969-.085 1.324-.245.355-.16.646-.385.872-.652a2.52 2.52 0 00.473-.928 3.99 3.99 0 00.151-1.067v-2.21a4.03 4.03 0 00-.15-1.067 2.716 2.716 0 00-.474-.928zm-.87 4.215a2.9 2.9 0 01-.066.63 1.364 1.364 0 01-.215.49.945.945 0 01-.409.321c-.172.075-.387.107-.645.107-.495 0-.84-.139-1.044-.427a1.366 1.366 0 01-.216-.491 2.83 2.83 0 01-.064-.63v-2.23a2.9 2.9 0 01.064-.63 1.2 1.2 0 01.216-.491c.204-.288.548-.427 1.044-.427.258 0 .473.032.645.107.173.075.302.181.41.32.096.139.172.299.215.491.043.192.064.395.064.63v2.23zm6.983 7.226a2.335 2.335 0 00-.754-.512c-.312-.128-.7-.203-1.173-.203h-2.034a.703.703 0 00-.527.224.74.74 0 00-.215.523V58.7a.735.735 0 00.743.736.735.735 0 00.742-.736v-2.24h1.356c.377 0 .72-.054 1.022-.16.301-.108.55-.257.754-.45.204-.191.355-.415.462-.682.108-.267.162-.555.162-.875v-.545c0-.267-.043-.523-.13-.79a1.79 1.79 0 00-.408-.704zm-.947 2.028a.837.837 0 01-.216.576c-.14.171-.398.256-.764.256h-1.302v-2.166h1.162c.226 0 .41.021.55.075.14.053.258.117.344.192.086.074.14.17.172.266a.979.979 0 01.043.31v.491h.01zm-19.489-7.269c.215-.266.376-.576.473-.928a3.99 3.99 0 00.15-1.067v-2.21a3.99 3.99 0 00-.15-1.067 2.716 2.716 0 00-.473-.928 2.276 2.276 0 00-.872-.652c-.355-.16-.797-.245-1.324-.245s-.968.085-1.324.245a2.46 2.46 0 00-.871.651 2.537 2.537 0 00-.474.93c-.097.34-.14.704-.14 1.066v2.21c0 .362.043.715.14 1.067.097.352.248.662.474.928.215.267.505.491.871.651.356.16.797.246 1.324.246s.969-.085 1.324-.245c.355-.16.646-.385.872-.652zm-.872-1.974a2.9 2.9 0 01-.065.63 1.364 1.364 0 01-.215.49.946.946 0 01-.409.32c-.172.075-.387.108-.646.108-.495 0-.839-.14-1.043-.427a1.366 1.366 0 01-.216-.491 2.837 2.837 0 01-.064-.63v-2.23c0-.225.021-.438.053-.63.044-.193.108-.353.216-.491.204-.288.549-.427 1.044-.427.258 0 .473.032.645.106.173.075.302.182.41.32.096.14.172.3.215.492.043.192.064.395.064.63v2.23h.01zM24.06 41.442h1.647v5.742a.734.734 0 00.743.726.71.71 0 00.516-.214.698.698 0 00.215-.512v-5.742h1.646a.677.677 0 00.506-.203.665.665 0 00.205-.502.689.689 0 00-.205-.512.686.686 0 00-.505-.213H24.06a.71.71 0 00-.517.213.698.698 0 00-.215.512.64.64 0 00.215.502.7.7 0 00.517.203zm-13.323-1.205a.679.679 0 00-.495-.214H6.787a.68.68 0 00-.495.214.681.681 0 00-.204.502v6.446c0 .203.075.384.215.523s.312.213.527.213a.717.717 0 00.528-.213.705.705 0 00.215-.523v-5.753h2.68a.67.67 0 00.495-.203.658.658 0 00.204-.49.681.681 0 00-.204-.502h-.01zm101.508-.001a.727.727 0 00-.538-.224h-2.013c-.85 0-1.474.192-1.894.565-.409.374-.624.908-.624 1.612v.427c0 .267.043.523.129.747a1.893 1.893 0 00.7.918c.129.085.269.16.441.224a24.292 24.292 0 00-1.259 2.37.639.639 0 00-.076.32.66.66 0 00.248.523.859.859 0 00.549.192.869.869 0 00.355-.086c.118-.064.215-.181.29-.363.205-.448.431-.896.678-1.344.237-.449.496-.886.775-1.334h1.001v2.39a.7.7 0 00.215.512c.14.14.313.214.517.214a.776.776 0 00.538-.214.658.658 0 00.215-.512V40.76a.73.73 0 00-.226-.534l-.021.01zm-1.27 3.202h-1.216c-.14 0-.28-.011-.409-.043a1.232 1.232 0 01-.345-.139c-.226-.139-.333-.352-.333-.64v-.427c0-.245.086-.448.258-.587.172-.139.431-.213.775-.213h1.259v2.038l.011.01zm-75.077-.673v-.544c0-.267-.043-.534-.129-.79a1.79 1.79 0 00-.409-.704 2.333 2.333 0 00-.753-.512c-.312-.129-.7-.203-1.173-.203H31.4a.703.703 0 00-.527.224.74.74 0 00-.216.523v6.414a.734.734 0 00.743.736.734.734 0 00.742-.736v-2.241h1.356c.377 0 .721-.053 1.023-.16.301-.107.549-.256.753-.448.205-.193.355-.417.463-.683a2.3 2.3 0 00.161-.876zm-1.474-.021a.837.837 0 01-.215.576c-.14.171-.399.256-.764.256h-1.303V41.41h1.163c.226 0 .409.021.549.075.14.053.258.117.344.192.086.074.14.17.172.267a.981.981 0 01.043.309v.49h.011zM22.447 46.8a.609.609 0 00-.183-.448.595.595 0 00-.43-.17.567.567 0 00-.227.042l-.247.107c-.13.095-.27.16-.43.202a1.908 1.908 0 01-.496.064c-.226 0-.42-.032-.592-.106a.956.956 0 01-.42-.353 1.989 1.989 0 01-.258-.64 4.967 4.967 0 01-.086-.982v-1.131c0-.758.118-1.292.355-1.622.237-.331.592-.491 1.066-.491.333 0 .613.074.818.213.096.053.182.096.247.128s.14.043.215.032c.226 0 .398-.064.517-.213a.726.726 0 00.172-.438.646.646 0 00-.075-.299.643.643 0 00-.248-.267 1.98 1.98 0 00-.333-.213 2.43 2.43 0 00-.42-.15c-.15-.042-.302-.063-.452-.096a3.227 3.227 0 00-.452-.032c-.527 0-.98.086-1.356.257a2.38 2.38 0 00-.904.715 3.037 3.037 0 00-.506 1.078 5.36 5.36 0 00-.162 1.344v1.185c0 .502.054.971.162 1.388.108.416.269.779.495 1.077.226.3.517.534.883.694.365.16.796.246 1.313.246.129 0 .268 0 .43-.032.15-.022.312-.054.474-.096a2.08 2.08 0 00.451-.171c.14-.064.27-.15.377-.256.194-.16.29-.352.29-.566h.012zm-6.598-3.03a42.55 42.55 0 00-1.13-3.085c-.13-.32-.28-.533-.463-.63a1.128 1.128 0 00-.516-.149c-.162 0-.334.054-.506.15s-.323.31-.452.63a45.974 45.974 0 00-1.12 3.084 38.496 38.496 0 00-.893 3.244.772.772 0 000 .384.768.768 0 00.151.278c.065.075.15.139.258.181a.737.737 0 00.732-.075.762.762 0 00.28-.437c.043-.192.086-.384.14-.576.043-.192.097-.374.15-.566H15c.054.182.107.374.161.566.043.192.097.384.14.576.043.203.13.352.27.448.14.086.279.14.44.14a.777.777 0 00.313-.065.915.915 0 00.269-.181.655.655 0 00.161-.278.771.771 0 000-.384 35.768 35.768 0 00-.882-3.244l-.022-.011zm-3.024 1.12c.14-.459.29-.907.441-1.344.15-.438.302-.876.474-1.313.161.438.322.875.473 1.313.15.437.29.886.43 1.344h-1.817zm27.41 7.364a2.335 2.335 0 00-.753-.512c-.312-.128-.7-.203-1.173-.203h-2.034a.703.703 0 00-.528.224.74.74 0 00-.215.523V58.7a.735.735 0 00.743.736.734.734 0 00.742-.736v-2.24h1.356c.377 0 .721-.054 1.023-.16a2.11 2.11 0 00.753-.45c.205-.191.355-.415.463-.682.107-.267.161-.555.161-.875v-.545c0-.267-.043-.523-.129-.79a1.79 1.79 0 00-.409-.704zm-.947 2.028a.837.837 0 01-.215.576c-.14.171-.398.256-.764.256h-1.302v-2.166h1.162c.226 0 .409.021.549.075.14.053.258.117.344.192.086.074.14.17.172.266a.979.979 0 01.043.31v.491h.011zm-5.758 1.023a42.523 42.523 0 00-1.13-3.084c-.128-.32-.28-.534-.462-.63a1.13 1.13 0 00-.517-.15c-.161 0-.333.054-.505.15-.173.096-.323.31-.453.63a45.978 45.978 0 00-1.119 3.084 38.486 38.486 0 00-.893 3.245.772.772 0 000 .384.769.769 0 00.15.277.66.66 0 00.259.182.737.737 0 00.732-.075.762.762 0 00.28-.438c.043-.192.086-.384.14-.576.043-.192.096-.373.15-.566h2.519c.053.182.107.374.16.566.044.192.098.384.14.576.044.203.13.352.27.449a.83.83 0 00.441.138.778.778 0 00.312-.064.917.917 0 00.27-.181.654.654 0 00.16-.278.769.769 0 000-.384 35.738 35.738 0 00-.882-3.244l-.021-.011zm-3.024 1.12c.14-.458.291-.907.442-1.344.15-.438.301-.875.473-1.313.162.438.323.875.474 1.313.15.437.29.886.43 1.345h-1.818zm57.793-4.96a.752.752 0 00-.528.213.692.692 0 00-.226.523v.609l-2.98 3.297v-3.906a.734.734 0 00-.743-.737.734.734 0 00-.743.737v6.51a.74.74 0 00.215.524.68.68 0 00.528.213.734.734 0 00.742-.736v-.609l2.981-3.308v3.917c0 .202.076.373.226.523a.71.71 0 00.528.213.734.734 0 00.742-.736v-6.51a.734.734 0 00-.743-.737zm10.095-6.137c-.3-.47-.624-.94-.947-1.409l1.82-2.87a1.25 1.25 0 00.075-.203.729.729 0 00-.721-.94.684.684 0 00-.635.385l-1.787 2.924h-1.065v-2.572a.691.691 0 00-.226-.523.753.753 0 00-.528-.214.735.735 0 00-.742.737v6.51a.74.74 0 00.215.523c.14.15.312.224.527.224a.703.703 0 00.528-.224c.15-.15.226-.32.226-.523v-2.572h1.076c.334.502.656.992.947 1.483.29.491.57.972.84 1.441a.69.69 0 00.645.384.741.741 0 00.538-.213.722.722 0 00.215-.523.693.693 0 00-.107-.384c-.29-.502-.581-.982-.894-1.452v.011zm-71.73 11.548c-.301-.47-.624-.94-.947-1.409l1.819-2.87c.032-.065.054-.129.075-.193a.729.729 0 00-.721-.94.684.684 0 00-.635.385l-1.786 2.924h-1.066v-2.572a.692.692 0 00-.226-.523.752.752 0 00-.527-.213.734.734 0 00-.743.736v6.51a.74.74 0 00.215.524.68.68 0 00.528.213.734.734 0 00.527-.213c.15-.15.226-.32.226-.523v-2.573h1.076c.334.502.657.993.948 1.484.29.491.57.971.839 1.44.14.257.355.385.646.385a.741.741 0 00.538-.213.722.722 0 00.215-.523.692.692 0 00-.108-.385c-.29-.501-.58-.981-.893-1.451zm69.201-5.411a.753.753 0 00-.527.213.692.692 0 00-.226.523v.609l-2.981 3.297v-3.906a.734.734 0 00-.743-.737.734.734 0 00-.743.737v6.51a.74.74 0 00.216.524c.14.149.312.213.527.213a.734.734 0 00.743-.736v-.609l2.98-3.308v3.917a.71.71 0 00.227.523.71.71 0 00.527.213.734.734 0 00.743-.736v-6.51a.734.734 0 00-.742-.737zM67.863 47.91a.703.703 0 00.527-.224.74.74 0 00.215-.523v-.608l2.981-3.31v3.918c0 .203.076.373.226.523a.72.72 0 00.528.224.703.703 0 00.527-.224.74.74 0 00.215-.523v-6.51a.734.734 0 00-.743-.736.752.752 0 00-.527.212.691.691 0 00-.226.523v.609l-2.98 3.298v-3.907a.734.734 0 00-.743-.736.734.734 0 00-.743.736v6.51a.74.74 0 00.215.524c.14.15.313.224.528.224zm-22.956 0a.734.734 0 00.742-.726v-2.53h2.798v2.53a.7.7 0 00.216.513.71.71 0 00.516.213.734.734 0 00.743-.726v-6.51a.734.734 0 00-.743-.736.71.71 0 00-.516.213.722.722 0 00-.216.523v2.657H45.65v-2.657a.734.734 0 00-.743-.736.734.734 0 00-.742.736v6.51a.7.7 0 00.215.513.72.72 0 00.528.213zm60.352-4.152a42.149 42.149 0 00-1.13-3.084c-.129-.32-.28-.534-.463-.63a1.125 1.125 0 00-.516-.15c-.162 0-.334.054-.506.15s-.323.31-.452.63a45.61 45.61 0 00-1.119 3.084 38.223 38.223 0 00-.893 3.245.903.903 0 000 .384.771.771 0 00.15.277.667.667 0 00.258.182.737.737 0 00.732-.075.702.702 0 00.269-.437c.043-.193.086-.385.14-.577.043-.192.097-.373.151-.566h2.518c.054.182.108.374.162.566.043.192.086.384.14.577.043.202.129.352.269.448a.83.83 0 00.441.139.776.776 0 00.312-.065.91.91 0 00.269-.181.666.666 0 00.162-.277.776.776 0 000-.385 35.77 35.77 0 00-.883-3.244l-.011-.01zm-3.024 1.12c.14-.458.291-.907.441-1.344.151-.438.302-.875.474-1.313.161.438.323.875.473 1.313.151.438.291.886.431 1.345h-1.819zm-10.932 2.893c.161-.043.312-.096.452-.17.14-.065.269-.15.377-.257.193-.16.29-.352.29-.565a.609.609 0 00-.183-.449.596.596 0 00-.43-.17.562.562 0 00-.226.042c-.076.032-.151.064-.248.107-.129.096-.269.16-.43.203a1.907 1.907 0 01-.495.064c-.226 0-.42-.032-.592-.107a.956.956 0 01-.42-.352 1.986 1.986 0 01-.258-.64 4.967 4.967 0 01-.086-.982v-1.132c0-.757.118-1.291.355-1.622.236-.33.592-.49 1.065-.49.334 0 .614.074.818.213.097.053.183.096.248.128.064.032.14.042.215.032.226 0 .398-.064.516-.214a.727.727 0 00.173-.437.646.646 0 00-.076-.3.642.642 0 00-.247-.266 1.977 1.977 0 00-.334-.213 2.426 2.426 0 00-.42-.15c-.15-.043-.301-.064-.452-.096a3.225 3.225 0 00-.452-.032c-.527 0-.979.085-1.356.256-.366.17-.667.406-.904.715a3.035 3.035 0 00-.505 1.078 5.36 5.36 0 00-.162 1.345v1.185c0 .501.054.97.162 1.387.107.416.269.78.495 1.078.226.299.516.534.882.694.366.16.796.245 1.313.245.13 0 .27 0 .43-.032.151-.021.313-.053.474-.096h.01zm-4.898-.17a.665.665 0 00.205-.502.658.658 0 00-.205-.49.669.669 0 00-.495-.203h-2.712V44.59h2.325a.663.663 0 00.484-.203.62.62 0 00.204-.48.635.635 0 00-.204-.48.663.663 0 00-.484-.203h-2.325V41.41h2.561a.676.676 0 00.506-.203.658.658 0 00.205-.491.682.682 0 00-.205-.502.686.686 0 00-.506-.213h-3.347a.68.68 0 00-.495.213.682.682 0 00-.204.502v6.382c0 .203.065.363.204.502a.67.67 0 00.495.203h3.498a.669.669 0 00.495-.203zm-13.409 5.676c.237-.33.592-.49 1.066-.49.333 0 .613.074.817.213.097.053.183.096.248.128s.14.042.215.032c.226 0 .398-.075.517-.214a.726.726 0 00.172-.437.616.616 0 00-.075-.3.734.734 0 00-.248-.277 1.975 1.975 0 00-.334-.213 2.428 2.428 0 00-.42-.15c-.15-.042-.3-.064-.451-.096a3.225 3.225 0 00-.452-.032c-.528 0-.98.086-1.356.257-.366.17-.667.405-.904.715a3.037 3.037 0 00-.506 1.078 4.91 4.91 0 00-.15 1.344v1.185c0 .502.053.971.16 1.387.108.417.27.78.496 1.078.226.3.516.534.882.694.366.16.797.246 1.313.246.13 0 .27 0 .43-.032.151-.022.313-.054.474-.096a2.08 2.08 0 00.452-.171c.14-.064.27-.15.377-.256.194-.16.29-.352.29-.566a.609.609 0 00-.183-.448.596.596 0 00-.43-.171c-.075 0-.15.01-.226.043l-.248.106c-.129.096-.269.16-.43.192a1.907 1.907 0 01-.495.065c-.226 0-.42-.032-.592-.107a.956.956 0 01-.42-.352 1.99 1.99 0 01-.258-.64 4.969 4.969 0 01-.086-.983v-1.131c0-.758.118-1.291.355-1.622v.021zm-3.778-.927a2.276 2.276 0 00-.871-.651c-.356-.16-.797-.246-1.324-.246-.528 0-.969.085-1.324.246-.355.16-.646.384-.872.65a2.537 2.537 0 00-.473.93c-.097.34-.14.704-.14 1.066v2.21c0 .363.043.715.14 1.067.097.352.247.662.473.928.216.267.506.492.872.652.355.16.796.245 1.324.245.527 0 .968-.085 1.324-.245a2.46 2.46 0 00.871-.651c.215-.267.377-.577.474-.929a3.59 3.59 0 00.14-1.067v-2.21a3.99 3.99 0 00-.151-1.067 2.716 2.716 0 00-.474-.928h.011zm-.871 4.215c0 .224-.022.438-.065.63a1.366 1.366 0 01-.215.491.945.945 0 01-.41.32c-.171.075-.387.107-.645.107-.495 0-.84-.139-1.044-.427a1.366 1.366 0 01-.215-.49 2.837 2.837 0 01-.065-.63v-2.231c0-.224.022-.438.054-.63.043-.192.108-.352.215-.49.205-.289.55-.428 1.044-.428.259 0 .474.032.646.107.172.075.301.181.409.32.097.139.172.299.215.491.043.192.065.395.065.63v2.23h.01zM78.84 53.28c.236-.332.591-.492 1.065-.492.334 0 .613.075.818.214.097.053.183.096.247.128.065.032.14.042.216.032.225 0 .398-.075.516-.214a.726.726 0 00.172-.437.616.616 0 00-.075-.3.735.735 0 00-.248-.277 1.984 1.984 0 00-.333-.213 2.421 2.421 0 00-.42-.15c-.15-.042-.301-.064-.452-.096a3.209 3.209 0 00-.452-.032c-.527 0-.98.086-1.356.257a2.38 2.38 0 00-.904.715 3.035 3.035 0 00-.506 1.078 5.36 5.36 0 00-.161 1.344v1.185c0 .502.054.971.161 1.387.108.417.27.78.495 1.078.226.3.517.534.883.694.366.16.796.246 1.313.246.129 0 .269 0 .43-.032.15-.022.312-.054.474-.097a2.08 2.08 0 00.452-.17c.14-.064.269-.15.376-.256.194-.16.291-.353.291-.566a.609.609 0 00-.183-.448.596.596 0 00-.43-.171.547.547 0 00-.226.043l-.248.106c-.13.096-.269.16-.43.193a1.908 1.908 0 01-.496.063 1.47 1.47 0 01-.591-.106.956.956 0 01-.42-.352 1.989 1.989 0 01-.258-.64 4.967 4.967 0 01-.087-.983V54.88c0-.758.119-1.291.356-1.622l.01.021zm-.247-8.508v2.39a.734.734 0 00.743.736.779.779 0 00.537-.212.682.682 0 00.216-.523v-6.51a.708.708 0 00-.226-.524.727.727 0 00-.538-.224.687.687 0 00-.528.224.74.74 0 00-.215.523v2.797a4.819 4.819 0 01-1.647.288c-.204 0-.365-.022-.505-.075a.738.738 0 01-.313-.213.811.811 0 01-.172-.331 1.864 1.864 0 01-.043-.449v-2.027a.708.708 0 00-.226-.523.726.726 0 00-.538-.224.703.703 0 00-.527.224.708.708 0 00-.226.523v2.091c0 .78.204 1.367.613 1.75.41.385.969.577 1.69.577.29 0 .602-.021.915-.075a7.55 7.55 0 00.947-.224l.043.011zm44.793-21.932a2.539 2.539 0 012.55 2.53 2.539 2.539 0 01-2.55 2.529 2.539 2.539 0 01-2.551-2.53 2.539 2.539 0 012.551-2.53zm0 .555c-1.098 0-1.959.843-1.959 1.974 0 1.132.861 1.975 1.959 1.975 1.097 0 1.958-.843 1.958-1.975 0-1.131-.861-1.974-1.958-1.974zm-.302 2.262v.62c0 .149 0 .192-.043.266-.043.086-.14.139-.258.139s-.205-.053-.248-.139c-.032-.064-.043-.117-.043-.267V24.43c0-.085 0-.192.086-.277.087-.086.194-.086.28-.086h.689c.538 0 .861.374.861.811a.703.703 0 01-.463.683l.355.598c.065.117.087.17.097.235 0 .085-.032.17-.15.235a.298.298 0 01-.151.042c-.129 0-.205-.085-.28-.234l-.452-.79h-.28v.01zm0-1.099v.64h.398c.205 0 .356-.117.356-.32 0-.202-.151-.32-.356-.32h-.398zM121.491 64.7c-6.737 20.139-25.463 33.597-46.988 33.597-21.524 0-40.25-13.448-46.998-33.587h-.732c3.175 9.605 9.385 18.208 17.575 24.323 8.75 6.521 19.178 9.968 30.155 9.968 10.978 0 21.406-3.447 30.145-9.968 8.19-6.105 14.4-14.718 17.574-24.323h-.731v-.01z" fill="#000"/><path d="M143.779 34.078H5.131c-2.39 0-4.326 1.932-4.326 4.301v22.616c0 2.37 1.937 4.29 4.326 4.29H143.78c2.389 0 4.326-1.931 4.326-4.3V38.368c0-2.37-1.948-4.29-4.326-4.29zm-28.821 26.17c0 1.44-1.184 2.604-2.626 2.604H5.97a2.612 2.612 0 01-2.625-2.604V39.105c0-1.44 1.183-2.604 2.625-2.604h106.362a2.612 2.612 0 012.626 2.604v21.143zm30.629 0c0 1.43-1.184 2.604-2.637 2.604h-22.751c-1.453 0-2.636-1.163-2.636-2.604V39.094c0-1.43 1.183-2.604 2.636-2.604h22.751c1.453 0 2.637 1.163 2.637 2.604v21.154z" fill="#000"/><path fill-rule="evenodd" clip-rule="evenodd" d="M143.121 36.502h-23.095c-1.356 0-2.464 1.1-2.464 2.444v21.463a2.453 2.453 0 002.464 2.444h23.095c1.357 0 2.465-1.1 2.465-2.444V38.946a2.454 2.454 0 00-2.465-2.444z" stroke="#706F6F" stroke-width=".75" stroke-miterlimit="10"/></svg>