<svg width="149" height="99" viewBox="0 0 149 99" fill="none" xmlns="http://www.w3.org/2000/svg">
<path d="M117.218 54.1934H146.103V59.1242C146.103 61.3975 144.241 63.2439 141.949 63.2439H121.383C119.09 63.2439 117.229 61.3975 117.229 59.1242V54.1934H117.218Z" fill="#E42313"/>
<path d="M121.383 36.082H141.949C144.241 36.082 146.103 37.9284 146.103 40.2017V45.1326H117.218V40.2017C117.218 37.9284 119.08 36.082 121.372 36.082H121.383Z" fill="white"/>
<path d="M146.103 45.1328H117.218V54.194H146.103V45.1328Z" fill="#005CA9"/>
<path d="M52.5054 30.3976C58.0694 24.1754 66.0764 20.6 74.4601 20.6C84.9316 20.6 94.1224 26.0644 99.3205 34.2718C99.5788 34.2291 99.8371 34.2078 100.106 34.1971C94.822 25.6375 85.3083 19.9062 74.4601 19.9062C65.8719 19.9062 57.682 23.567 51.9781 29.9387C51.8489 30.0881 51.8597 30.3015 52.0104 30.4296C52.1503 30.5577 52.3763 30.547 52.5054 30.3976Z" fill="black"/>
<path d="M99.2669 65.168C94.0689 73.3326 84.8996 78.7651 74.4603 78.7651C64.0534 78.7651 54.8948 73.354 49.686 65.2213C49.4277 65.2747 49.1694 65.3067 48.9111 65.3174C54.2061 73.8022 63.6767 79.4695 74.4603 79.4695C85.2978 79.4695 94.8115 73.7489 100.096 65.1786C99.8266 65.2 99.5468 65.1893 99.2669 65.1786V65.168Z" fill="black"/>
<path d="M119.123 27.1729C110.524 10.4166 93.4013 0 74.46 0C52.3654 0 33.564 14.2695 26.9346 34.0035C27.1821 34.0035 27.4189 34.0142 27.6557 34.0462C34.2421 14.6751 52.7313 0.693733 74.46 0.693733C93.143 0.693733 110.018 10.9609 118.498 27.4824C118.585 27.6532 118.8 27.7172 118.972 27.6318C119.144 27.5465 119.22 27.333 119.123 27.1622V27.1729Z" fill="black"/>
<path d="M64.3214 47.7062C64.4505 47.845 64.6119 47.909 64.8056 47.909C65.0101 47.909 65.1715 47.845 65.3114 47.7062C65.4406 47.5675 65.5159 47.4074 65.5159 47.226V40.6088C65.5159 40.4274 65.4514 40.2673 65.3114 40.1286C65.1823 39.9898 65.0101 39.9258 64.8056 39.9258C64.6657 39.9258 64.5258 39.9471 64.4074 40.0005C64.289 40.0539 64.1922 40.1606 64.1061 40.3207L62.0075 44.5578L59.9196 40.3634C59.8443 40.2033 59.7474 40.0859 59.6398 40.0218C59.5322 39.9578 59.3815 39.9258 59.1986 39.9258C59.0049 39.9258 58.8434 39.9898 58.7035 40.1179C58.5636 40.246 58.499 40.4061 58.499 40.6195V47.2366C58.499 47.4181 58.5636 47.5782 58.7035 47.7169C58.8327 47.8557 58.9941 47.9197 59.1878 47.9197C59.3815 47.9197 59.543 47.8557 59.6829 47.7169C59.812 47.5782 59.8874 47.4181 59.8874 47.2366V43.1917L61.3402 46.2014C61.4156 46.3508 61.5124 46.4575 61.6308 46.5322C61.7492 46.6069 61.8783 46.639 62.0075 46.639C62.1474 46.639 62.2765 46.6069 62.3949 46.5216C62.5133 46.4469 62.6102 46.3401 62.6855 46.1907L64.1383 43.1703V47.226C64.1383 47.4074 64.2029 47.5675 64.3428 47.7062H64.3214Z" fill="black"/>
<path d="M47.2103 51.774C47.0704 51.6353 46.909 51.5605 46.7046 51.5605H41.9369C41.7324 51.5605 41.5602 51.6353 41.4203 51.774C41.2804 51.9127 41.2051 52.0835 41.2051 52.2863C41.2051 52.4891 41.2697 52.6492 41.4203 52.7879C41.5602 52.9267 41.7324 52.9907 41.9369 52.9907H43.5835V58.7327C43.5835 58.9354 43.6589 59.1062 43.7988 59.2449C43.9387 59.3837 44.1216 59.4584 44.3261 59.4584C44.5306 59.4584 44.7028 59.3837 44.8427 59.2449C44.9826 59.1062 45.0579 58.9354 45.0579 58.7327V52.9907H46.7046C46.909 52.9907 47.0704 52.9267 47.2103 52.7879C47.3503 52.6492 47.4148 52.4891 47.4148 52.2863C47.4148 52.0835 47.3503 51.9127 47.2103 51.774Z" fill="black"/>
<path d="M52.3109 55.305C51.9773 54.2697 51.6006 53.2451 51.1809 52.2205C51.0518 51.9003 50.9011 51.6869 50.7182 51.5908C50.5352 51.4948 50.363 51.4414 50.2016 51.4414C50.0402 51.4414 49.8679 51.4948 49.6957 51.5908C49.5235 51.6869 49.3729 51.9003 49.2438 52.2205C48.8348 53.2344 48.4581 54.2697 48.1245 55.305C47.7908 56.3402 47.4895 57.4182 47.2312 58.5495C47.199 58.6882 47.199 58.8163 47.2312 58.9337C47.2635 59.0404 47.3173 59.1365 47.3819 59.2112C47.4464 59.2859 47.5326 59.3499 47.6402 59.3926C47.7371 59.4353 47.8447 59.4567 47.9415 59.4567C48.0922 59.4567 48.2321 59.414 48.372 59.3179C48.5012 59.2219 48.598 59.0831 48.6518 58.8803C48.6949 58.6882 48.738 58.4961 48.7918 58.304C48.8348 58.1119 48.8886 57.9305 48.9424 57.7383H51.4607C51.5146 57.9198 51.5683 58.1119 51.6221 58.304C51.6652 58.4961 51.719 58.6882 51.762 58.8803C51.8051 59.0831 51.8912 59.2325 52.0311 59.3286C52.171 59.414 52.3109 59.4673 52.4724 59.4673C52.58 59.4673 52.6876 59.446 52.7845 59.4033C52.8813 59.3606 52.9782 59.2966 53.0535 59.2219C53.1288 59.1472 53.1827 59.0511 53.215 58.9444C53.2473 58.8376 53.2473 58.7096 53.215 58.5602C52.9674 57.4395 52.6661 56.3509 52.3325 55.3156L52.3109 55.305ZM49.2868 56.4256C49.4267 55.9667 49.5774 55.5184 49.7281 55.0808C49.8787 54.6432 50.0294 54.2057 50.2016 53.7681C50.363 54.2057 50.5245 54.6432 50.6751 55.0808C50.8258 55.5184 50.9657 55.9667 51.1056 56.4256H49.2975H49.2868Z" fill="black"/>
<path d="M56.4008 40.8125C56.1856 40.5457 55.895 40.3216 55.5291 40.1615C55.1739 40.0014 54.7327 39.916 54.2054 39.916C53.678 39.916 53.2368 40.0014 52.8817 40.1615C52.5265 40.3216 52.2359 40.5457 52.0099 40.8125C51.7947 41.0793 51.6333 41.3889 51.5364 41.7411C51.4395 42.0826 51.3965 42.4455 51.3965 42.8083V45.0176C51.3965 45.3805 51.4395 45.7327 51.5364 46.0849C51.6333 46.4371 51.7839 46.7466 52.0099 47.0134C52.2252 47.2802 52.5157 47.5044 52.8817 47.6645C53.2368 47.8245 53.678 47.9099 54.2054 47.9099C54.7327 47.9099 55.1739 47.8245 55.5291 47.6645C55.8842 47.5044 56.1748 47.2802 56.4008 47.0134C56.6161 46.7466 56.7775 46.4371 56.8744 46.0849C56.9712 45.7327 57.025 45.3805 57.025 45.0176V42.8083C57.025 42.4455 56.9712 42.0933 56.8744 41.7411C56.7775 41.3995 56.6161 41.09 56.4008 40.8125ZM55.5291 45.0283C55.5291 45.2524 55.5076 45.4659 55.4645 45.658C55.4215 45.8501 55.3462 46.0102 55.2493 46.1489C55.1525 46.2877 55.0126 46.3944 54.8404 46.4691C54.6682 46.5438 54.4529 46.5758 54.1946 46.5758C53.6995 46.5758 53.3552 46.4371 53.1507 46.1489C53.0539 46.0102 52.9785 45.8501 52.9355 45.658C52.8924 45.4659 52.8709 45.2631 52.8709 45.0283V42.7977C52.8709 42.5735 52.8924 42.3601 52.9355 42.168C52.9785 41.9759 53.0431 41.8158 53.1507 41.677C53.3552 41.3889 53.6995 41.2501 54.1946 41.2501C54.4529 41.2501 54.6682 41.2821 54.8404 41.3568C55.0126 41.4315 55.1417 41.5383 55.2493 41.677C55.3462 41.8158 55.4215 41.9759 55.4645 42.168C55.5076 42.3601 55.5291 42.5629 55.5291 42.7977V45.0283Z" fill="black"/>
<path d="M62.5127 52.2541C62.3189 52.0514 62.0714 51.8806 61.7593 51.7418C61.4472 51.6138 61.0597 51.5391 60.5862 51.5391H58.5522C58.3477 51.5391 58.1647 51.6138 58.0248 51.7632C57.8849 51.9126 57.8096 52.0834 57.8096 52.2862V58.7005C57.8096 58.9033 57.8849 59.0847 58.0248 59.2235C58.1647 59.3622 58.3477 59.4369 58.5522 59.4369C58.7566 59.4369 58.9396 59.3622 59.0796 59.2235C59.2195 59.0847 59.2947 58.9033 59.2947 58.7005V56.4592H60.6508C61.0275 56.4592 61.3719 56.4059 61.6732 56.2991C61.9745 56.1924 62.2221 56.043 62.4266 55.8509C62.631 55.6587 62.7817 55.4346 62.8893 55.1678C62.9969 54.901 63.0508 54.6128 63.0508 54.2926V53.7483C63.0508 53.4815 63.0077 53.2254 62.9216 52.9585C62.8355 52.6917 62.7064 52.4569 62.5127 52.2541ZM61.5656 54.282C61.5656 54.4954 61.501 54.6875 61.3503 54.8583C61.2104 55.0291 60.9521 55.1144 60.5862 55.1144H59.284V52.9479H60.4463C60.6723 52.9479 60.8553 52.9692 60.9952 53.0226C61.1351 53.0759 61.2535 53.14 61.3396 53.2147C61.4257 53.2894 61.4794 53.3855 61.5117 53.4815C61.544 53.5776 61.5548 53.6843 61.5548 53.791V54.282H61.5656Z" fill="black"/>
<path d="M42.0766 47.0134C42.2918 46.7466 42.4533 46.4371 42.5501 46.0849C42.647 45.7327 42.7008 45.3805 42.7008 45.0176V42.8083C42.7008 42.4455 42.647 42.0933 42.5501 41.7411C42.4533 41.3995 42.2918 41.09 42.0766 40.8125C41.8614 40.5457 41.5708 40.3216 41.2049 40.1615C40.8497 40.0014 40.4085 39.916 39.8812 39.916C39.3538 39.916 38.9126 40.0014 38.5574 40.1615C38.2023 40.3216 37.9117 40.5457 37.6857 40.8125C37.4705 41.0793 37.309 41.3889 37.2122 41.7411C37.1153 42.0826 37.0723 42.4455 37.0723 42.8083V45.0176C37.0723 45.3805 37.1153 45.7327 37.2122 46.0849C37.309 46.4371 37.4597 46.7466 37.6857 47.0134C37.901 47.2802 38.1915 47.5044 38.5574 47.6645C38.9126 47.8245 39.3538 47.9099 39.8812 47.9099C40.4085 47.9099 40.8497 47.8245 41.2049 47.6645C41.56 47.5044 41.8506 47.2802 42.0766 47.0134ZM41.2049 45.0389C41.2049 45.2631 41.1834 45.4765 41.1403 45.6686C41.0973 45.8608 41.0219 46.0208 40.925 46.1596C40.8282 46.2983 40.6883 46.4051 40.5161 46.4798C40.344 46.5545 40.1287 46.5865 39.8704 46.5865C39.3753 46.5865 39.031 46.4478 38.8265 46.1596C38.7296 46.0208 38.6543 45.8608 38.6112 45.6686C38.5682 45.4765 38.5467 45.2737 38.5467 45.0389V42.8083C38.5467 42.5842 38.5682 42.3708 38.6005 42.1786C38.6435 41.9865 38.7081 41.8264 38.8157 41.6877C39.0202 41.3995 39.3646 41.2608 39.8596 41.2608C40.1179 41.2608 40.3332 41.2928 40.5054 41.3675C40.6776 41.4422 40.8067 41.5489 40.9143 41.6877C41.0112 41.8264 41.0865 41.9865 41.1295 42.1786C41.1726 42.3708 41.1941 42.5735 41.1941 42.8083V45.0389H41.2049Z" fill="black"/>
<path d="M24.0599 41.4419H25.7066V47.1838C25.7066 47.3866 25.7819 47.5574 25.9218 47.6961C26.0617 47.8349 26.2447 47.9096 26.4492 47.9096C26.6536 47.9096 26.8258 47.8349 26.9657 47.6961C27.1056 47.5574 27.181 47.3866 27.181 47.1838V41.4419H28.8275C29.032 41.4419 29.1935 41.3778 29.3334 41.2391C29.4733 41.1003 29.5379 40.9403 29.5379 40.7375C29.5379 40.5347 29.4733 40.3639 29.3334 40.2252C29.1935 40.0864 29.032 40.0117 28.8275 40.0117H24.0599C23.8555 40.0117 23.6833 40.0864 23.5434 40.2252C23.4035 40.3639 23.3281 40.5347 23.3281 40.7375C23.3281 40.9403 23.3927 41.1003 23.5434 41.2391C23.6833 41.3778 23.8555 41.4419 24.0599 41.4419Z" fill="black"/>
<path d="M10.7371 40.2369C10.5972 40.0981 10.4358 40.0234 10.2421 40.0234H6.78745C6.59374 40.0234 6.43228 40.0981 6.29237 40.2369C6.15247 40.3756 6.08789 40.5464 6.08789 40.7385V47.1849C6.08789 47.3877 6.16324 47.5691 6.30315 47.7078C6.44305 47.8466 6.61524 47.9213 6.83048 47.9213C7.04572 47.9213 7.21797 47.8466 7.35788 47.7078C7.49778 47.5691 7.57306 47.3983 7.57306 47.1849V41.4322H10.2528C10.4465 41.4322 10.608 41.3682 10.7479 41.2295C10.8878 41.0907 10.9524 40.9306 10.9524 40.7385C10.9524 40.5464 10.8878 40.3756 10.7479 40.2369H10.7371Z" fill="black"/>
<path d="M112.245 40.2358C112.094 40.0864 111.922 40.0117 111.707 40.0117H109.694C108.844 40.0117 108.22 40.2038 107.8 40.5774C107.391 40.9509 107.176 41.4846 107.176 42.189V42.6159C107.176 42.8827 107.219 43.1388 107.305 43.363C107.391 43.5871 107.499 43.7899 107.66 43.9713C107.757 44.0887 107.875 44.1848 108.005 44.2808C108.134 44.3662 108.274 44.4409 108.446 44.505C108.209 44.8999 107.983 45.2841 107.779 45.679C107.574 46.0739 107.37 46.4688 107.187 46.8743C107.133 46.9704 107.111 47.0771 107.111 47.1945C107.111 47.408 107.197 47.5787 107.359 47.7175C107.52 47.8455 107.703 47.9096 107.908 47.9096C108.026 47.9096 108.144 47.8776 108.263 47.8242C108.381 47.7602 108.478 47.6428 108.553 47.4613C108.758 47.0131 108.984 46.5648 109.231 46.1166C109.468 45.6683 109.727 45.2307 110.006 44.7825H111.007V47.1732C111.007 47.3759 111.083 47.5467 111.222 47.6855C111.362 47.8242 111.535 47.8989 111.739 47.8989C111.944 47.8989 112.127 47.8242 112.277 47.6855C112.428 47.5467 112.492 47.3759 112.492 47.1732V40.7588C112.492 40.556 112.417 40.3746 112.266 40.2252L112.245 40.2358ZM110.975 43.4377H109.759C109.619 43.4377 109.479 43.427 109.35 43.395C109.221 43.363 109.113 43.3203 109.005 43.2562C108.779 43.1175 108.672 42.904 108.672 42.6159V42.189C108.672 41.9435 108.758 41.7407 108.93 41.602C109.102 41.4632 109.361 41.3885 109.705 41.3885H110.964V43.427L110.975 43.4377Z" fill="black"/>
<path d="M35.8984 42.7653V42.221C35.8984 41.9542 35.8553 41.6873 35.7692 41.4312C35.6831 41.1644 35.554 40.9296 35.3603 40.7268C35.1665 40.524 34.919 40.3533 34.6069 40.2145C34.2948 40.0864 33.9074 40.0117 33.4339 40.0117H31.3998C31.1953 40.0117 31.0124 40.0864 30.8725 40.2358C30.7326 40.3853 30.6572 40.556 30.6572 40.7588V47.1732C30.6572 47.3759 30.7326 47.5574 30.8725 47.6961C31.0124 47.8349 31.1953 47.9096 31.3998 47.9096C31.6043 47.9096 31.7872 47.8349 31.9271 47.6961C32.0671 47.5574 32.1424 47.3759 32.1424 47.1732V44.9319H33.4984C33.8751 44.9319 34.2195 44.8785 34.5208 44.7718C34.8222 44.6651 35.0697 44.5156 35.2741 44.3235C35.4786 44.1314 35.6293 43.9073 35.737 43.6405C35.8446 43.3736 35.8984 43.0855 35.8984 42.7653ZM34.424 42.7439C34.424 42.9574 34.3594 43.1495 34.2087 43.3203C34.0688 43.491 33.8105 43.5764 33.4446 43.5764H32.1424V41.4099H33.3047C33.5307 41.4099 33.7137 41.4312 33.8536 41.4846C33.9935 41.5379 34.1118 41.602 34.1979 41.6767C34.284 41.7514 34.3379 41.8474 34.3702 41.9435C34.4024 42.0395 34.4132 42.1463 34.4132 42.253V42.7439H34.424Z" fill="black"/>
<path d="M22.4465 46.8001C22.4465 46.6187 22.382 46.4692 22.2636 46.3518C22.1452 46.2344 21.9945 46.1811 21.8331 46.1811C21.7577 46.1811 21.6824 46.1918 21.6071 46.2238C21.5318 46.2558 21.4564 46.2878 21.3595 46.3305C21.2304 46.4265 21.0905 46.4906 20.9291 46.5333C20.7677 46.576 20.6062 46.5973 20.434 46.5973C20.208 46.5973 20.0143 46.5653 19.8421 46.4906C19.6699 46.4159 19.53 46.2985 19.4224 46.1384C19.3147 45.9783 19.2287 45.7648 19.1641 45.498C19.1103 45.2312 19.078 44.911 19.078 44.5161V43.3848C19.078 42.627 19.1964 42.0934 19.4331 41.7625C19.6699 41.4317 20.025 41.2716 20.4986 41.2716C20.8322 41.2716 21.112 41.3463 21.3165 41.4851C21.4134 41.5384 21.4994 41.5811 21.564 41.6131C21.6286 41.6451 21.7039 41.6558 21.7793 41.6451C22.0053 41.6451 22.1774 41.5811 22.2958 41.4317C22.4035 41.2929 22.4681 41.1435 22.4681 40.9941C22.4681 40.898 22.4465 40.802 22.3927 40.6953C22.3497 40.5992 22.2636 40.5032 22.1452 40.4284C22.0484 40.3537 21.9407 40.279 21.8116 40.215C21.6824 40.151 21.5425 40.1083 21.3918 40.0656C21.2412 40.0229 21.0905 40.0015 20.9399 39.9695C20.7892 39.9482 20.6385 39.9375 20.4878 39.9375C19.9605 39.9375 19.5084 40.0229 19.1318 40.1936C18.7659 40.3644 18.4646 40.5992 18.2278 40.9087C18.0018 41.2076 17.8296 41.5704 17.7219 41.9867C17.6143 42.4029 17.5605 42.8512 17.5605 43.3314V44.5161C17.5605 45.0177 17.6143 45.4873 17.7219 45.9036C17.8296 46.3198 17.991 46.6827 18.217 46.9815C18.443 47.2804 18.7336 47.5152 19.0995 47.6753C19.4654 47.8354 19.8959 47.9207 20.4125 47.9207C20.5416 47.9207 20.6815 47.9207 20.843 47.8887C20.9936 47.8674 21.1551 47.8354 21.3165 47.7927C21.4779 47.75 21.6286 47.6966 21.7685 47.6219C21.9084 47.5579 22.0376 47.4725 22.1452 47.3658C22.3389 47.2057 22.4357 47.0136 22.4357 46.8001H22.4465Z" fill="black"/>
<path d="M15.849 43.7698C15.5154 42.7345 15.1387 41.7099 14.719 40.6854C14.5899 40.3652 14.4392 40.1517 14.2562 40.0557C14.0733 39.9596 13.9011 39.9062 13.7397 39.9062C13.5782 39.9062 13.406 39.9596 13.2338 40.0557C13.0616 40.1517 12.911 40.3652 12.7818 40.6854C12.3729 41.6993 11.9962 42.7345 11.6626 43.7698C11.329 44.8051 11.0276 45.883 10.7693 47.0143C10.737 47.1531 10.737 47.2811 10.7693 47.3985C10.8016 47.5053 10.8554 47.6013 10.92 47.676C10.9846 47.7507 11.0707 47.8148 11.1783 47.8575C11.2752 47.9002 11.3827 47.9215 11.4796 47.9215C11.6303 47.9215 11.7702 47.8788 11.9101 47.7828C12.0393 47.6867 12.1361 47.548 12.1899 47.3452C12.233 47.1531 12.276 46.961 12.3298 46.7689C12.3729 46.5767 12.4267 46.3953 12.4805 46.2032H14.9988C15.0526 46.3846 15.1065 46.5767 15.1603 46.7689C15.2033 46.961 15.2571 47.1531 15.3001 47.3452C15.3432 47.548 15.4293 47.6974 15.5692 47.7934C15.7091 47.8788 15.849 47.9322 16.0105 47.9322C16.1181 47.9322 16.2257 47.9108 16.3225 47.8681C16.4194 47.8255 16.5163 47.7614 16.5916 47.6867C16.6669 47.612 16.7208 47.5159 16.7531 47.4092C16.7853 47.3025 16.7853 47.1744 16.7531 47.025C16.5055 45.9044 16.2042 44.8157 15.8706 43.7805L15.849 43.7698ZM12.8249 44.8904C12.9648 44.4315 13.1155 43.9832 13.2661 43.5457C13.4168 43.1081 13.5675 42.6705 13.7397 42.2329C13.9011 42.6705 14.0625 43.1081 14.2132 43.5457C14.3639 43.9832 14.5038 44.4315 14.6437 44.8904H12.8356H12.8249Z" fill="black"/>
<path d="M40.2353 52.2541C40.0415 52.0514 39.794 51.8806 39.4819 51.7418C39.1698 51.6138 38.7823 51.5391 38.3088 51.5391H36.2748C36.0703 51.5391 35.8873 51.6138 35.7474 51.7632C35.6075 51.9126 35.5322 52.0834 35.5322 52.2862V58.7005C35.5322 58.9033 35.6075 59.0847 35.7474 59.2235C35.8873 59.3622 36.0703 59.4369 36.2748 59.4369C36.4793 59.4369 36.6622 59.3622 36.8021 59.2235C36.9421 59.0847 37.0174 58.9033 37.0174 58.7005V56.4592H38.3734C38.75 56.4592 39.0944 56.4059 39.3958 56.2991C39.6971 56.1924 39.9447 56.043 40.1491 55.8509C40.3536 55.6587 40.5043 55.4346 40.6119 55.1678C40.7195 54.901 40.7734 54.6128 40.7734 54.2926V53.7483C40.7734 53.4815 40.7303 53.2254 40.6442 52.9585C40.5581 52.6917 40.429 52.4569 40.2353 52.2541ZM39.2882 54.282C39.2882 54.4954 39.2236 54.6875 39.0729 54.8583C38.933 55.0291 38.6747 55.1144 38.3088 55.1144H37.0066V52.9479H38.1689C38.3949 52.9479 38.5779 52.9692 38.7178 53.0226C38.8577 53.0759 38.9761 53.14 39.0622 53.2147C39.1483 53.2894 39.2021 53.3855 39.2344 53.4815C39.2667 53.5776 39.2774 53.6843 39.2774 53.791V54.282H39.2882Z" fill="black"/>
<path d="M33.5306 55.305C33.197 54.2697 32.8204 53.2451 32.4006 52.2205C32.2715 51.9003 32.1208 51.6869 31.9379 51.5908C31.7549 51.4948 31.5828 51.4414 31.4213 51.4414C31.2599 51.4414 31.0877 51.4948 30.9155 51.5908C30.7433 51.6869 30.5926 51.9003 30.4635 52.2205C30.0545 53.2344 29.6779 54.2697 29.3442 55.305C29.0106 56.3402 28.7093 57.4182 28.451 58.5495C28.4187 58.6882 28.4187 58.8163 28.451 58.9337C28.4833 59.0404 28.5371 59.1365 28.6017 59.2112C28.6662 59.2859 28.7523 59.3499 28.8599 59.3926C28.9568 59.4353 29.0644 59.4567 29.1612 59.4567C29.3119 59.4567 29.4518 59.414 29.5918 59.3179C29.7209 59.2219 29.8178 59.0831 29.8716 58.8803C29.9146 58.6882 29.9577 58.4961 30.0115 58.304C30.0545 58.1119 30.1083 57.9305 30.1621 57.7383H32.6805C32.7343 57.9198 32.7881 58.1119 32.8419 58.304C32.885 58.4961 32.9388 58.6882 32.9818 58.8803C33.0249 59.0831 33.111 59.2325 33.2509 59.3286C33.3908 59.414 33.5307 59.4673 33.6921 59.4673C33.7997 59.4673 33.9073 59.446 34.0042 59.4033C34.101 59.3606 34.1979 59.2966 34.2732 59.2219C34.3486 59.1472 34.4024 59.0511 34.4347 58.9444C34.467 58.8376 34.467 58.7096 34.4347 58.5602C34.1872 57.4395 33.8858 56.3509 33.5522 55.3156L33.5306 55.305ZM30.5065 56.4256C30.6464 55.9667 30.7971 55.5184 30.9478 55.0808C31.0985 54.6432 31.2491 54.2057 31.4213 53.7681C31.5828 54.2057 31.7442 54.6432 31.8949 55.0808C32.0455 55.5184 32.1854 55.9667 32.3253 56.4256H30.5173H30.5065Z" fill="black"/>
<path d="M88.2987 51.4648C88.0942 51.4648 87.922 51.5395 87.7714 51.6783C87.6207 51.817 87.5453 51.9985 87.5453 52.2013V52.8096L84.5643 56.1075V52.2013C84.5643 51.9985 84.4889 51.817 84.349 51.6783C84.2091 51.5395 84.0262 51.4648 83.8217 51.4648C83.6172 51.4648 83.4343 51.5395 83.2944 51.6783C83.1544 51.817 83.0791 51.9985 83.0791 52.2013V58.7117C83.0791 58.9144 83.1544 59.0852 83.2944 59.2346C83.4343 59.384 83.6064 59.4481 83.8217 59.4481C84.0262 59.4481 84.2091 59.3734 84.349 59.2346C84.4889 59.0852 84.5643 58.9144 84.5643 58.7117V58.1033L87.5453 54.7947V58.7117C87.5453 58.9144 87.6207 59.0852 87.7714 59.2346C87.922 59.384 88.0942 59.4481 88.2987 59.4481C88.5032 59.4481 88.6861 59.3734 88.826 59.2346C88.9659 59.0852 89.0413 58.9144 89.0413 58.7117V52.2013C89.0413 51.9985 88.9659 51.817 88.826 51.6783C88.6861 51.5395 88.5032 51.4648 88.2987 51.4648Z" fill="black"/>
<path d="M98.3945 45.328C98.0932 44.8584 97.7703 44.3888 97.4475 43.9192L99.2662 41.0482C99.2985 40.9842 99.3201 40.9202 99.3416 40.8455C99.3631 40.7814 99.3739 40.7174 99.3739 40.6533C99.3739 40.4399 99.2986 40.2584 99.1587 40.1197C99.0187 39.981 98.8358 39.9062 98.6205 39.9062C98.3407 39.9062 98.1255 40.0343 97.9856 40.2905L96.1991 43.2148H95.1336V40.6427C95.1336 40.4399 95.0583 40.2584 94.9076 40.1197C94.7569 39.981 94.5848 39.9062 94.3803 39.9062C94.1758 39.9062 93.9929 39.981 93.853 40.1197C93.713 40.2584 93.6377 40.4399 93.6377 40.6427V47.1531C93.6377 47.3559 93.713 47.5266 93.853 47.676C93.9929 47.8255 94.165 47.9002 94.3803 47.9002C94.5955 47.9002 94.7569 47.8255 94.9076 47.676C95.0583 47.5266 95.1336 47.3559 95.1336 47.1531V44.5809H96.2099C96.5435 45.0825 96.8663 45.5735 97.1569 46.0644C97.4474 46.5554 97.7273 47.0357 97.9963 47.5053C98.1362 47.7614 98.3515 47.8895 98.642 47.8895C98.8573 47.8895 99.0402 47.8148 99.1801 47.676C99.32 47.5373 99.3954 47.3559 99.3954 47.1531C99.3954 47.0143 99.3631 46.8863 99.2878 46.7688C98.9972 46.2672 98.7066 45.787 98.3945 45.3174V45.328Z" fill="black"/>
<path d="M26.6641 56.8759C26.3627 56.4063 26.0399 55.9367 25.717 55.4671L27.5358 52.5962C27.5681 52.5321 27.5896 52.4681 27.6111 52.404C27.6326 52.34 27.6434 52.276 27.6434 52.2119C27.6434 51.9985 27.5681 51.817 27.4282 51.6783C27.2883 51.5395 27.1053 51.4648 26.8901 51.4648C26.6103 51.4648 26.3951 51.5929 26.2552 51.8491L24.4686 54.7734H23.4032V52.2013C23.4032 51.9985 23.3278 51.817 23.1771 51.6783C23.0265 51.5395 22.8543 51.4648 22.6498 51.4648C22.4453 51.4648 22.2624 51.5395 22.1225 51.6783C21.9826 51.817 21.9072 51.9985 21.9072 52.2013V58.7117C21.9072 58.9144 21.9826 59.0852 22.1225 59.2346C22.2624 59.384 22.4346 59.4481 22.6498 59.4481C22.8651 59.4481 23.0265 59.3734 23.1771 59.2346C23.3278 59.0852 23.4032 58.9144 23.4032 58.7117V56.1395H24.4794C24.813 56.6411 25.1359 57.1321 25.4265 57.623C25.717 58.114 25.9968 58.5943 26.2659 59.0639C26.4058 59.32 26.621 59.4481 26.9116 59.4481C27.1269 59.4481 27.3098 59.3734 27.4497 59.2346C27.5896 59.0959 27.665 58.9144 27.665 58.7117C27.665 58.5729 27.6327 58.4448 27.5573 58.3274C27.2667 57.8258 26.9762 57.3455 26.6641 56.8759Z" fill="black"/>
<path d="M95.8652 51.4648C95.6607 51.4648 95.4885 51.5395 95.3378 51.6783C95.1872 51.817 95.1118 51.9985 95.1118 52.2013V52.8096L92.1307 56.1075V52.2013C92.1307 51.9985 92.0553 51.817 91.9154 51.6783C91.7755 51.5395 91.5926 51.4648 91.3881 51.4648C91.1836 51.4648 91.0007 51.5395 90.8608 51.6783C90.7209 51.817 90.6455 51.9985 90.6455 52.2013V58.7117C90.6455 58.9144 90.7209 59.0852 90.8608 59.2346C91.0007 59.384 91.1729 59.4481 91.3881 59.4481C91.5926 59.4481 91.7755 59.3734 91.9154 59.2346C92.0553 59.0852 92.1307 58.9144 92.1307 58.7117V58.1033L95.1118 54.7947V58.7117C95.1118 58.9144 95.1872 59.0852 95.3378 59.2346C95.4885 59.384 95.6607 59.4481 95.8652 59.4481C96.0696 59.4481 96.2526 59.3734 96.3925 59.2346C96.5324 59.0852 96.6077 58.9144 96.6077 58.7117V52.2013C96.6077 51.9985 96.5324 51.817 96.3925 51.6783C96.2526 51.5395 96.0696 51.4648 95.8652 51.4648Z" fill="black"/>
<path d="M67.8627 47.9099C68.0672 47.9099 68.2501 47.8352 68.39 47.6858C68.5299 47.5364 68.6053 47.3656 68.6053 47.1628V46.5545L71.5864 43.2459V47.1628C71.5864 47.3656 71.6617 47.5364 71.8124 47.6858C71.963 47.8352 72.1352 47.9099 72.3397 47.9099C72.5442 47.9099 72.7272 47.8352 72.8671 47.6858C73.007 47.5364 73.0823 47.3656 73.0823 47.1628V40.6524C73.0823 40.4496 73.007 40.2682 72.8671 40.1295C72.7272 39.9907 72.5442 39.916 72.3397 39.916C72.1352 39.916 71.963 39.9907 71.8124 40.1295C71.6617 40.2682 71.5864 40.4496 71.5864 40.6524V41.2608L68.6053 44.5587V40.6524C68.6053 40.4496 68.5299 40.2682 68.39 40.1295C68.2501 39.9907 68.0672 39.916 67.8627 39.916C67.6582 39.916 67.4753 39.9907 67.3354 40.1295C67.1955 40.2682 67.1201 40.4496 67.1201 40.6524V47.1628C67.1201 47.3656 67.1955 47.5364 67.3354 47.6858C67.4753 47.8352 67.6475 47.9099 67.8627 47.9099Z" fill="black"/>
<path d="M44.9066 47.9101C45.1111 47.9101 45.2941 47.8354 45.434 47.6966C45.5739 47.5579 45.6492 47.3871 45.6492 47.1843V44.6549H48.4474V47.1843C48.4474 47.3871 48.5227 47.5579 48.6626 47.6966C48.8025 47.8354 48.9748 47.9101 49.1792 47.9101C49.3837 47.9101 49.5667 47.8354 49.7066 47.6966C49.8465 47.5579 49.9218 47.3871 49.9218 47.1843V40.6739C49.9218 40.4711 49.8465 40.2897 49.7066 40.151C49.5667 40.0122 49.3837 39.9375 49.1792 39.9375C48.9748 39.9375 48.8025 40.0122 48.6626 40.151C48.5227 40.2897 48.4474 40.4711 48.4474 40.6739V43.3314H45.6492V40.6739C45.6492 40.4711 45.5739 40.2897 45.434 40.151C45.2941 40.0122 45.1111 39.9375 44.9066 39.9375C44.7022 39.9375 44.5192 40.0122 44.3793 40.151C44.2394 40.2897 44.1641 40.4711 44.1641 40.6739V47.1843C44.1641 47.3871 44.2394 47.5579 44.3793 47.6966C44.5192 47.8354 44.6914 47.9101 44.9066 47.9101Z" fill="black"/>
<path d="M105.259 43.7581C104.926 42.7228 104.549 41.6982 104.129 40.6736C104 40.3535 103.849 40.14 103.666 40.0439C103.484 39.9479 103.311 39.8945 103.15 39.8945C102.988 39.8945 102.816 39.9479 102.644 40.0439C102.472 40.14 102.321 40.3535 102.192 40.6736C101.783 41.6876 101.406 42.7228 101.073 43.7581C100.739 44.7933 100.438 45.8713 100.18 47.0026C100.147 47.1414 100.158 47.2694 100.18 47.3868C100.212 47.4936 100.266 47.5896 100.33 47.6643C100.395 47.739 100.481 47.8031 100.588 47.8458C100.685 47.8884 100.793 47.9098 100.89 47.9098C101.04 47.9098 101.18 47.8671 101.32 47.771C101.449 47.675 101.546 47.5362 101.589 47.3335C101.632 47.1414 101.675 46.9492 101.729 46.7571C101.772 46.565 101.826 46.3836 101.88 46.1915H104.398C104.452 46.3729 104.506 46.565 104.56 46.7571C104.603 46.9492 104.646 47.1414 104.7 47.3335C104.743 47.5362 104.829 47.6857 104.969 47.7817C105.109 47.8671 105.248 47.9205 105.41 47.9205C105.518 47.9205 105.625 47.8991 105.722 47.8564C105.819 47.8137 105.916 47.7497 105.991 47.675C106.066 47.6003 106.12 47.5042 106.153 47.3975C106.185 47.2908 106.185 47.1627 106.153 47.0133C105.905 45.8926 105.604 44.804 105.27 43.7687L105.259 43.7581ZM102.235 44.8787C102.375 44.4198 102.526 43.9715 102.676 43.534C102.827 43.0964 102.978 42.6588 103.15 42.2212C103.311 42.6588 103.473 43.0964 103.623 43.534C103.774 43.9715 103.914 44.4198 104.054 44.8787H102.246H102.235Z" fill="black"/>
<path d="M91.3029 47.7712C91.4643 47.7285 91.6149 47.6751 91.7549 47.6004C91.8948 47.5364 92.0239 47.451 92.1315 47.3443C92.3252 47.1842 92.4221 46.9921 92.4221 46.7786C92.4221 46.5972 92.3575 46.4478 92.2392 46.3304C92.1208 46.213 91.9701 46.1596 91.8087 46.1596C91.7333 46.1596 91.658 46.1703 91.5826 46.2023C91.5073 46.2343 91.432 46.2663 91.3351 46.309C91.206 46.4051 91.066 46.4691 90.9046 46.5118C90.7432 46.5545 90.5818 46.5758 90.4096 46.5758C90.1836 46.5758 89.9899 46.5438 89.8177 46.4691C89.6455 46.3944 89.5056 46.277 89.398 46.1169C89.2903 45.9568 89.2042 45.7434 89.1397 45.4765C89.0859 45.2097 89.0536 44.8895 89.0536 44.4946V43.3633C89.0536 42.6056 89.172 42.0719 89.4087 41.7411C89.6455 41.4102 90.0006 41.2501 90.4742 41.2501C90.8078 41.2501 91.0876 41.3248 91.2921 41.4636C91.389 41.5169 91.475 41.5596 91.5396 41.5916C91.6042 41.6237 91.6795 41.6343 91.7549 41.6237C91.9809 41.6237 92.153 41.5596 92.2714 41.4102C92.379 41.2715 92.4436 41.122 92.4436 40.9726C92.4436 40.8766 92.4221 40.7805 92.3683 40.6738C92.3253 40.5777 92.2391 40.4817 92.1207 40.407C92.0239 40.3323 91.9163 40.2575 91.7871 40.1935C91.658 40.1295 91.5181 40.0868 91.3674 40.0441C91.2168 40.0014 91.066 39.9801 90.9154 39.948C90.7647 39.9267 90.6141 39.916 90.4634 39.916C89.936 39.916 89.484 40.0014 89.1074 40.1722C88.7414 40.3429 88.4401 40.5777 88.2034 40.8872C87.9774 41.1861 87.8051 41.5489 87.6975 41.9652C87.5899 42.3814 87.5361 42.8297 87.5361 43.31V44.4946C87.5361 44.9963 87.5899 45.4659 87.6975 45.8821C87.8051 46.2983 87.9666 46.6612 88.1926 46.96C88.4186 47.2589 88.7092 47.4937 89.0751 47.6538C89.441 47.8139 89.8715 47.8993 90.388 47.8993C90.5172 47.8993 90.6571 47.8993 90.8186 47.8672C90.9692 47.8459 91.1307 47.8139 91.2921 47.7712H91.3029Z" fill="black"/>
<path d="M86.4051 47.601C86.5451 47.4622 86.6096 47.3021 86.6096 47.0994C86.6096 46.9072 86.5451 46.7472 86.4051 46.6084C86.2652 46.4697 86.1039 46.4056 85.9101 46.4056H83.1981V44.5913H85.5226C85.7056 44.5913 85.867 44.5272 86.007 44.3885C86.1469 44.2604 86.2114 44.1003 86.2114 43.9082C86.2114 43.7161 86.1469 43.5667 86.007 43.4279C85.867 43.2892 85.7056 43.2251 85.5226 43.2251H83.1981V41.4108H85.7594C85.9639 41.4108 86.1253 41.3467 86.2652 41.208C86.4051 41.0692 86.4697 40.9091 86.4697 40.717C86.4697 40.5249 86.4051 40.3542 86.2652 40.2154C86.1253 40.0767 85.9639 40.002 85.7594 40.002H82.4125C82.2187 40.002 82.0573 40.0767 81.9174 40.2154C81.7775 40.3542 81.7129 40.5249 81.7129 40.717V47.0994C81.7129 47.3021 81.7775 47.4622 81.9174 47.601C82.0573 47.7397 82.2187 47.8038 82.4125 47.8038H85.9101C86.1039 47.8038 86.2652 47.7397 86.4051 47.601Z" fill="black"/>
<path d="M72.9961 53.2771C73.2328 52.9463 73.588 52.7862 74.0615 52.7862C74.3951 52.7862 74.6749 52.8609 74.8794 52.9996C74.9763 53.053 75.0624 53.0957 75.1269 53.1277C75.1915 53.1597 75.2668 53.1704 75.3422 53.1597C75.5682 53.1597 75.7404 53.085 75.8587 52.9463C75.9664 52.8075 76.031 52.6581 76.031 52.5087C76.031 52.4126 76.0094 52.3059 75.9556 52.2098C75.9126 52.1138 75.8264 52.0177 75.7081 51.9324C75.6112 51.8576 75.5036 51.7829 75.3744 51.7189C75.2453 51.6549 75.1054 51.6122 74.9548 51.5695C74.8041 51.5268 74.6534 51.5054 74.5027 51.4734C74.352 51.4521 74.2014 51.4414 74.0507 51.4414C73.5234 51.4414 73.0714 51.5268 72.6947 51.6976C72.3288 51.8683 72.0275 52.1031 71.7907 52.4126C71.5647 52.7115 71.3925 53.0743 71.2848 53.4906C71.1772 53.9068 71.1234 54.3551 71.1342 54.8354V56.02C71.1342 56.5217 71.188 56.9913 71.2956 57.4075C71.4032 57.8237 71.5647 58.1866 71.7907 58.4854C72.0167 58.7843 72.3072 59.0191 72.6731 59.1792C73.039 59.3393 73.4696 59.4247 73.9861 59.4247C74.1153 59.4247 74.2552 59.4247 74.4167 59.3926C74.5673 59.3713 74.7288 59.3393 74.8902 59.2966C75.0516 59.2539 75.2023 59.2005 75.3422 59.1258C75.4821 59.0618 75.6112 58.9764 75.7188 58.8697C75.9125 58.7096 76.0094 58.5175 76.0094 58.304C76.0094 58.1226 75.9449 57.9732 75.8265 57.8558C75.7081 57.7384 75.5574 57.685 75.396 57.685C75.3206 57.685 75.2453 57.6957 75.1699 57.7277C75.0946 57.7597 75.0193 57.7917 74.9224 57.8344C74.7933 57.9305 74.6534 57.9945 74.4919 58.0265C74.3305 58.0692 74.1691 58.0906 73.9969 58.0906C73.7709 58.0906 73.5772 58.0585 73.405 57.9838C73.2328 57.9091 73.0929 57.7917 72.9853 57.6316C72.8777 57.4715 72.7916 57.2581 72.727 56.9913C72.6732 56.7244 72.6409 56.4042 72.6409 56.0094V54.878C72.6409 54.1203 72.7593 53.5866 72.9961 53.2558V53.2771Z" fill="black"/>
<path d="M69.2183 52.3496C69.003 52.0828 68.7125 51.8587 68.3465 51.6986C67.9914 51.5385 67.5501 51.4531 67.0228 51.4531C66.4954 51.4531 66.0542 51.5385 65.699 51.6986C65.3439 51.8587 65.0533 52.0828 64.8273 52.3496C64.6121 52.6165 64.4506 52.926 64.3538 53.2782C64.2569 53.6197 64.2139 53.9826 64.2139 54.3454V56.5547C64.2139 56.9176 64.2569 57.2698 64.3538 57.622C64.4506 57.9742 64.6013 58.2837 64.8273 58.5505C65.0426 58.8173 65.3331 59.0415 65.699 59.2016C66.0542 59.3617 66.4954 59.447 67.0228 59.447C67.5501 59.447 67.9914 59.3617 68.3465 59.2016C68.7017 59.0415 68.9923 58.8173 69.2183 58.5505C69.4335 58.2837 69.5949 57.9742 69.6918 57.622C69.7887 57.2698 69.8425 56.9176 69.8317 56.5547V54.3454C69.8317 53.9826 69.7779 53.6304 69.681 53.2782C69.5842 52.9366 69.4227 52.6271 69.2075 52.3496H69.2183ZM68.3465 56.5654C68.3465 56.7895 68.325 57.003 68.282 57.1951C68.2389 57.3872 68.1636 57.5473 68.0667 57.686C67.9699 57.8248 67.8299 57.9315 67.6578 58.0062C67.4856 58.0809 67.2703 58.1129 67.0121 58.1129C66.517 58.1129 66.1726 57.9742 65.9681 57.686C65.8712 57.5473 65.7959 57.3872 65.7528 57.1951C65.7098 57.003 65.6883 56.8002 65.6883 56.5654V54.3348C65.6883 54.1106 65.7098 53.8972 65.7421 53.7051C65.7852 53.513 65.8497 53.3529 65.9573 53.2141C66.1618 52.926 66.5062 52.7872 67.0013 52.7872C67.2596 52.7872 67.4748 52.8192 67.647 52.8939C67.8192 52.9687 67.9483 53.0754 68.0559 53.2141C68.1528 53.3529 68.2281 53.513 68.2712 53.7051C68.3142 53.8972 68.3358 54.1 68.3358 54.3348V56.5654H68.3465Z" fill="black"/>
<path d="M78.8394 53.2791C79.0762 52.9482 79.4313 52.7881 79.9048 52.7881C80.2385 52.7881 80.5183 52.8628 80.7228 53.0016C80.8196 53.0549 80.9057 53.0976 80.9703 53.1297C81.0348 53.1617 81.1102 53.1724 81.1855 53.1617C81.4115 53.1617 81.5837 53.087 81.7021 52.9482C81.8097 52.8095 81.8743 52.6601 81.8743 52.5106C81.8743 52.4146 81.8528 52.3079 81.799 52.2118C81.7559 52.1157 81.6698 52.0197 81.5514 51.9343C81.4545 51.8596 81.3469 51.7849 81.2178 51.7209C81.0886 51.6568 80.9488 51.6141 80.7981 51.5714C80.6474 51.5287 80.4967 51.5074 80.346 51.4754C80.1954 51.454 80.0447 51.4434 79.8941 51.4434C79.3667 51.4434 78.9147 51.5287 78.538 51.6995C78.1721 51.8703 77.8708 52.1051 77.634 52.4146C77.408 52.7134 77.2358 53.0763 77.1282 53.4925C77.0206 53.9088 76.9668 54.357 76.9668 54.8373V56.022C76.9668 56.5236 77.0206 56.9932 77.1282 57.4094C77.2358 57.8257 77.3973 58.1886 77.6233 58.4874C77.8493 58.7862 78.1399 59.021 78.5058 59.1811C78.8717 59.3412 79.3021 59.4266 79.8187 59.4266C79.9479 59.4266 80.0878 59.4266 80.2492 59.3946C80.3999 59.3732 80.5613 59.3412 80.7228 59.2985C80.8842 59.2558 81.0348 59.2025 81.1747 59.1278C81.3147 59.0637 81.4438 58.9783 81.5514 58.8716C81.7451 58.7115 81.842 58.5194 81.842 58.306C81.842 58.1245 81.7774 57.9751 81.6591 57.8577C81.5407 57.7403 81.39 57.6869 81.2285 57.6869C81.1532 57.6869 81.0779 57.6976 81.0026 57.7296C80.9272 57.7616 80.8519 57.7937 80.755 57.8364C80.6259 57.9324 80.486 57.9964 80.3246 58.0285C80.1631 58.0712 80.0017 58.0925 79.8295 58.0925C79.6035 58.0925 79.4098 58.0605 79.2376 57.9858C79.0654 57.9111 78.9255 57.7937 78.8178 57.6336C78.7102 57.4735 78.6241 57.26 78.5596 56.9932C78.5058 56.7264 78.4735 56.4062 78.4735 56.0113V54.88C78.4735 54.1222 78.5919 53.5886 78.8286 53.2577L78.8394 53.2791Z" fill="black"/>
<path d="M78.5927 44.772V47.1627C78.5927 47.3655 78.6681 47.5469 78.808 47.6857C78.9479 47.8244 79.1308 47.8991 79.3353 47.8991C79.5398 47.8991 79.7227 47.8244 79.8734 47.6857C80.0241 47.5469 80.0887 47.3655 80.0887 47.1627V40.6523C80.0887 40.4495 80.0134 40.2788 79.8627 40.1293C79.712 39.9799 79.5398 39.9052 79.3246 39.9052C79.1094 39.9052 78.9371 39.9799 78.7972 40.1293C78.6573 40.2788 78.582 40.4495 78.582 40.6523V43.4486C78.3775 43.5233 78.13 43.598 77.8394 43.6514C77.5596 43.7047 77.2582 43.7367 76.9354 43.7367C76.7309 43.7367 76.5695 43.7154 76.4296 43.662C76.3004 43.6087 76.1928 43.5446 76.1174 43.4486C76.0421 43.3632 75.9776 43.2458 75.9453 43.1177C75.913 42.9896 75.9022 42.8402 75.9022 42.6695V40.6416C75.9022 40.4388 75.8269 40.2681 75.6762 40.1187C75.5256 39.9692 75.3534 39.8945 75.1381 39.8945C74.9229 39.8945 74.7615 39.9692 74.6108 40.1187C74.4601 40.2681 74.3848 40.4388 74.3848 40.6416V42.7335C74.3848 43.5126 74.5893 44.0996 74.9982 44.4838C75.4072 44.8681 75.9668 45.0602 76.6879 45.0602C76.9784 45.0602 77.2905 45.0388 77.6026 44.9855C77.9147 44.9321 78.2376 44.8574 78.5497 44.7613L78.5927 44.772Z" fill="black"/>
<path d="M123.386 22.8398C124.795 22.8398 125.936 23.9712 125.936 25.3693C125.936 26.7674 124.795 27.8987 123.386 27.8987C121.976 27.8987 120.835 26.7674 120.835 25.3693C120.835 23.9712 121.976 22.8398 123.386 22.8398ZM123.386 23.3948C122.288 23.3948 121.427 24.238 121.427 25.3693C121.427 26.5006 122.288 27.3438 123.386 27.3438C124.483 27.3438 125.344 26.5006 125.344 25.3693C125.344 24.238 124.483 23.3948 123.386 23.3948ZM123.084 25.6575V26.2765C123.084 26.4259 123.084 26.4686 123.041 26.5433C122.998 26.6287 122.901 26.682 122.783 26.682C122.665 26.682 122.578 26.6287 122.535 26.5433C122.503 26.4793 122.492 26.4259 122.492 26.2765V24.4301C122.492 24.3447 122.492 24.238 122.578 24.1526C122.665 24.0672 122.772 24.0672 122.858 24.0672H123.547C124.085 24.0672 124.408 24.4408 124.408 24.8783C124.408 25.2412 124.193 25.4653 123.945 25.5614L124.3 26.1591C124.365 26.2765 124.387 26.3298 124.397 26.3939C124.397 26.4793 124.365 26.5646 124.247 26.6287C124.182 26.6607 124.15 26.6714 124.096 26.6714C123.967 26.6714 123.891 26.586 123.816 26.4366L123.364 25.6468H123.084V25.6575ZM123.084 24.5582V25.1985H123.482C123.687 25.1985 123.838 25.0811 123.838 24.8783C123.838 24.6756 123.687 24.5582 123.482 24.5582H123.084Z" fill="black"/>
<path d="M121.491 64.6992C114.754 84.8388 96.0275 98.2971 74.5033 98.2971C52.9791 98.2971 34.2531 84.8494 27.5053 64.7099H26.7734C29.9483 74.3154 36.158 82.9177 44.348 89.0332C53.0975 95.5542 63.526 99.0015 74.5033 99.0015C85.4806 99.0015 95.9091 95.5542 104.648 89.0332C112.838 82.9283 119.048 74.3154 122.222 64.7099H121.491V64.6992Z" fill="black"/>
<path d="M143.779 34.0781H5.13107C2.74189 34.0781 0.804688 36.0099 0.804688 38.3793V60.9949C0.804688 63.3642 2.74189 65.2853 5.13107 65.2853H143.779C146.168 65.2853 148.105 63.3536 148.105 60.9842V38.3686C148.105 35.9992 146.157 34.0781 143.779 34.0781ZM114.958 60.2478C114.958 61.6886 113.774 62.8519 112.332 62.8519H5.97048C4.5176 62.8519 3.34453 61.6886 3.34453 60.2478V39.105C3.34453 37.6642 4.52836 36.5008 5.97048 36.5008H112.332C113.785 36.5008 114.958 37.6642 114.958 39.105V60.2478ZM145.587 60.2478C145.587 61.6779 144.403 62.8519 142.95 62.8519H120.199C118.746 62.8519 117.563 61.6886 117.563 60.2478V39.0943C117.563 37.6642 118.746 36.4902 120.199 36.4902H142.95C144.403 36.4902 145.587 37.6535 145.587 39.0943V60.2478Z" fill="black"/>
<path fill-rule="evenodd" clip-rule="evenodd" d="M143.121 36.502H120.026C118.67 36.502 117.562 37.6013 117.562 38.946V45.2857V54.0694V60.409C117.562 61.7538 118.659 62.8531 120.026 62.8531H143.121C144.478 62.8531 145.586 61.7538 145.586 60.409V54.0694V45.2857V38.946C145.586 37.6013 144.488 36.502 143.121 36.502Z" stroke="#706F6F" stroke-width="0.75" stroke-miterlimit="10"/>
</svg>
