<svg width="75" height="75" viewBox="0 0 75 75" fill="none" xmlns="http://www.w3.org/2000/svg">
<path d="M37.4294 0.533012L0.358887 37.6035L37.4294 74.674L74.4999 37.6035L37.4294 0.533012Z" fill="#575756"/>
<path d="M50.5156 38.8867H59.5493V39.009C59.5493 40.5176 58.3262 41.7465 56.8118 41.7465H53.2531C51.7446 41.7465 50.5156 40.5234 50.5156 39.009V38.8867Z" fill="#E42313"/>
<path d="M53.2472 33.1738H56.806C58.3145 33.1738 59.5434 34.397 59.5434 35.9113V36.0336H50.5098V35.9113C50.5098 34.4028 51.7329 33.1738 53.2472 33.1738Z" fill="white"/>
<path d="M59.5493 36.0332H50.5156V38.8872H59.5493V36.0332Z" fill="#005CA9"/>
<path d="M30.2816 31.3786C32.0231 29.4157 34.5218 28.2916 37.1428 28.2916C40.4161 28.2916 43.2934 30.0157 44.9126 32.6017C44.9941 32.5901 45.0757 32.5784 45.1572 32.5784C43.5089 29.8759 40.5326 28.0703 37.1428 28.0703C34.4577 28.0703 31.895 29.2235 30.1127 31.233C30.0719 31.2796 30.0778 31.3495 30.1244 31.3902C30.171 31.431 30.2409 31.4252 30.2816 31.3786Z" fill="white"/>
<path d="M44.9006 42.3477C43.2756 44.922 40.41 46.6344 37.1483 46.6344C33.8925 46.6344 31.0327 44.9279 29.4018 42.3651C29.3203 42.3826 29.2388 42.3884 29.1572 42.3943C30.8114 45.0677 33.776 46.8558 37.1425 46.8558C40.5323 46.8558 43.5086 45.0502 45.1569 42.3535C45.0695 42.3593 44.9821 42.3535 44.8948 42.3535L44.9006 42.3477Z" fill="white"/>
<path d="M51.1098 30.3666C48.4189 25.0838 43.0721 21.8047 37.1486 21.8047C30.2409 21.8047 24.364 26.3011 22.2905 32.5216C22.3662 32.5216 22.442 32.5216 22.5177 32.5391C24.5795 26.4351 30.3574 22.026 37.1486 22.026C42.9905 22.026 48.2675 25.2586 50.9176 30.4714C50.9467 30.5238 51.0108 30.5471 51.0632 30.518C51.1156 30.4889 51.1389 30.4248 51.1098 30.3724V30.3666Z" fill="white"/>
<path d="M33.9739 36.8368C34.0147 36.8776 34.0671 36.9009 34.1254 36.9009C34.1894 36.9009 34.2419 36.8776 34.2826 36.8368C34.3234 36.7961 34.3467 36.7437 34.3467 36.6854V34.6003C34.3467 34.542 34.3234 34.4896 34.2826 34.4488C34.2419 34.4081 34.1894 34.3848 34.1254 34.3848C34.0788 34.3848 34.038 34.3906 34.0031 34.4081C33.9681 34.4255 33.9332 34.4547 33.9099 34.5071L33.2517 35.8467L32.5994 34.5245C32.5761 34.4721 32.547 34.4372 32.512 34.4139C32.4771 34.3964 32.4305 34.3848 32.3722 34.3848C32.314 34.3848 32.2616 34.4022 32.215 34.443C32.1742 34.4838 32.1509 34.5362 32.1509 34.6003V36.6854C32.1509 36.7437 32.1742 36.7961 32.215 36.8368C32.2557 36.8776 32.3082 36.9009 32.3664 36.9009C32.4247 36.9009 32.477 36.8776 32.5178 36.8368C32.5586 36.7961 32.5819 36.7437 32.5819 36.6854V35.4099L33.0362 36.3592C33.0595 36.4058 33.0886 36.4408 33.1294 36.4641C33.1702 36.4874 33.2051 36.499 33.2459 36.499C33.2925 36.499 33.3333 36.4874 33.3682 36.4641C33.4031 36.4408 33.4323 36.4058 33.4614 36.3592L33.9157 35.404V36.6854C33.9157 36.7437 33.939 36.7961 33.9798 36.8368H33.9739Z" fill="white"/>
<path d="M28.6274 38.1227C28.5867 38.0761 28.5343 38.0586 28.4702 38.0586H26.9791C26.9151 38.0586 26.8626 38.0819 26.8219 38.1227C26.7753 38.1634 26.7578 38.2217 26.7578 38.2799C26.7578 38.3382 26.7811 38.3964 26.8219 38.4372C26.8685 38.4779 26.9209 38.5012 26.9791 38.5012H27.4917V40.3126C27.4917 40.3767 27.515 40.4291 27.5616 40.4757C27.6082 40.5223 27.6606 40.5456 27.7247 40.5456C27.7887 40.5456 27.8412 40.5223 27.8878 40.4757C27.9343 40.4291 27.9576 40.3767 27.9576 40.3126V38.5012H28.4702C28.5343 38.5012 28.5867 38.4779 28.6274 38.4372C28.6682 38.3964 28.6915 38.344 28.6915 38.2799C28.6915 38.2159 28.6682 38.1634 28.6274 38.1227Z" fill="white"/>
<path d="M30.2233 39.2368C30.1184 38.9107 30.002 38.5845 29.8738 38.2642C29.8331 38.1651 29.7865 38.0952 29.7282 38.0661C29.67 38.037 29.6175 38.0195 29.5651 38.0195C29.5127 38.0195 29.4603 38.037 29.4079 38.0661C29.3555 38.0952 29.3089 38.1593 29.2681 38.2642C29.14 38.5845 29.0235 38.9107 28.9186 39.2368C28.8138 39.563 28.7206 39.9066 28.639 40.2619C28.6274 40.3085 28.6332 40.3493 28.639 40.3843C28.6507 40.4192 28.6624 40.4483 28.6857 40.4716C28.709 40.4949 28.7322 40.5124 28.7672 40.5299C28.7963 40.5415 28.8313 40.5473 28.8604 40.5473C28.907 40.5473 28.9536 40.5299 28.9943 40.5066C29.0351 40.4774 29.0642 40.4308 29.0817 40.3668C29.0934 40.3085 29.1108 40.2445 29.1225 40.1862C29.1341 40.128 29.1516 40.0697 29.1691 40.0115H29.9554C29.9728 40.0697 29.9903 40.128 30.0019 40.1862C30.0194 40.2445 30.0311 40.3085 30.0427 40.3668C30.0544 40.4308 30.0835 40.4774 30.1243 40.5066C30.165 40.5357 30.2116 40.5473 30.2641 40.5473C30.299 40.5473 30.3281 40.5415 30.3631 40.5299C30.3922 40.5182 30.4213 40.5007 30.4446 40.4716C30.4679 40.4483 30.4854 40.4192 30.4912 40.3843C30.5029 40.3493 30.5029 40.3085 30.4912 40.2619C30.4155 39.9066 30.3223 39.5688 30.2175 39.2368H30.2233ZM29.2797 39.5863C29.3263 39.4407 29.3729 39.3009 29.4137 39.1611C29.4603 39.0213 29.5069 38.8874 29.5593 38.7476C29.6117 38.8874 29.6583 39.0213 29.7049 39.1611C29.7515 39.3009 29.7981 39.4407 29.8389 39.5863H29.2739H29.2797Z" fill="white"/>
<path d="M31.4989 34.6643C31.429 34.577 31.3417 34.5129 31.2252 34.4605C31.1145 34.4081 30.9747 34.3848 30.8116 34.3848C30.6485 34.3848 30.5088 34.4081 30.3981 34.4605C30.2874 34.5129 30.1942 34.5828 30.1243 34.6643C30.0545 34.7517 30.0079 34.8449 29.9787 34.9556C29.9496 35.0662 29.9321 35.1769 29.9321 35.2934V35.9923C29.9321 36.1088 29.9496 36.2195 29.9787 36.3301C30.0079 36.4408 30.0545 36.5398 30.1243 36.6213C30.1942 36.7087 30.2816 36.7728 30.3981 36.8252C30.5088 36.8776 30.6485 36.9009 30.8116 36.9009C30.9747 36.9009 31.1145 36.8776 31.2252 36.8252C31.3358 36.7728 31.429 36.7029 31.4989 36.6213C31.5688 36.534 31.6154 36.4408 31.6445 36.3301C31.6736 36.2195 31.6911 36.1088 31.6911 35.9923V35.2934C31.6911 35.1769 31.6736 35.0662 31.6445 34.9556C31.6154 34.8449 31.563 34.7517 31.4989 34.6643ZM31.2252 35.9923C31.2252 36.0622 31.2193 36.1321 31.2077 36.1903C31.196 36.2486 31.1727 36.301 31.1378 36.3418C31.1087 36.3884 31.0621 36.4233 31.0097 36.4408C30.9572 36.4641 30.8873 36.4757 30.8116 36.4757C30.6544 36.4757 30.5495 36.4291 30.4855 36.3418C30.4563 36.301 30.433 36.2486 30.4214 36.1903C30.4097 36.1321 30.4039 36.068 30.4039 35.9923V35.2876C30.4039 35.2177 30.4097 35.1478 30.4214 35.0895C30.433 35.0313 30.4563 34.9789 30.4855 34.9381C30.5495 34.8507 30.6602 34.8041 30.8116 34.8041C30.8932 34.8041 30.9572 34.8158 31.0097 34.8391C31.0621 34.8624 31.1028 34.8973 31.1378 34.9381C31.1669 34.9789 31.1902 35.0313 31.2077 35.0895C31.2193 35.1478 31.2252 35.2118 31.2252 35.2876V35.9923Z" fill="white"/>
<path d="M33.4092 38.276C33.3509 38.2119 33.2694 38.1595 33.1762 38.1129C33.0772 38.0721 32.9548 38.0488 32.8092 38.0488H32.1744C32.1103 38.0488 32.0521 38.0721 32.0113 38.1187C31.9647 38.1653 31.9414 38.2177 31.9414 38.2818V40.3029C31.9414 40.367 31.9647 40.4252 32.0113 40.466C32.0579 40.5126 32.1103 40.5359 32.1744 40.5359C32.2385 40.5359 32.2967 40.5126 32.3375 40.466C32.3841 40.4194 32.4074 40.367 32.4074 40.3029V39.5981H32.8326C32.949 39.5981 33.0597 39.5807 33.1529 39.5515C33.2461 39.5166 33.3218 39.47 33.3859 39.4117C33.45 39.3535 33.4966 39.2778 33.5315 39.1962C33.5664 39.1147 33.5781 39.0215 33.5781 38.9167V38.7419C33.5781 38.6604 33.5664 38.573 33.5373 38.4915C33.514 38.4099 33.4674 38.3342 33.4092 38.2702V38.276ZM33.1121 38.9167C33.1121 38.9866 33.0888 39.0448 33.0481 39.0972C33.0015 39.1496 32.9257 39.1788 32.8092 39.1788H32.4016V38.4973H32.7627C32.8326 38.4973 32.8908 38.5031 32.9316 38.5206C32.9782 38.5381 33.0131 38.5556 33.0364 38.5789C33.0597 38.6022 33.083 38.6313 33.0888 38.6604C33.1005 38.6895 33.1063 38.7245 33.1063 38.7594V38.9167H33.1121Z" fill="white"/>
<path d="M27.0199 36.6213C27.0898 36.534 27.1364 36.4408 27.1655 36.3301C27.1946 36.2195 27.2121 36.1088 27.2121 35.9923V35.2934C27.2121 35.1769 27.1946 35.0662 27.1655 34.9556C27.1364 34.8449 27.084 34.7517 27.0199 34.6643C26.95 34.577 26.8627 34.5129 26.7462 34.4605C26.6355 34.4081 26.4957 34.3848 26.3326 34.3848C26.1695 34.3848 26.0298 34.4081 25.9191 34.4605C25.8084 34.5129 25.7152 34.5828 25.6453 34.6643C25.5754 34.7517 25.5289 34.8449 25.4997 34.9556C25.4706 35.0662 25.4531 35.1769 25.4531 35.2934V35.9923C25.4531 36.1088 25.4706 36.2195 25.4997 36.3301C25.5289 36.4408 25.5754 36.5398 25.6453 36.6213C25.7152 36.7087 25.8026 36.7728 25.9191 36.8252C26.0298 36.8776 26.1695 36.9009 26.3326 36.9009C26.4957 36.9009 26.6355 36.8776 26.7462 36.8252C26.8568 36.7728 26.95 36.7029 27.0199 36.6213ZM26.7462 35.9981C26.7462 36.068 26.7403 36.1379 26.7287 36.1962C26.717 36.2544 26.6937 36.3068 26.6588 36.3476C26.6297 36.3942 26.5831 36.4291 26.5307 36.4466C26.4782 36.4699 26.4083 36.4816 26.3326 36.4816C26.1754 36.4816 26.0705 36.435 26.0065 36.3476C25.9773 36.3068 25.954 36.2544 25.9424 36.1962C25.9307 36.1379 25.9249 36.0738 25.9249 35.9981V35.2934C25.9249 35.2235 25.9307 35.1536 25.9424 35.0953C25.954 35.0371 25.9773 34.9847 26.0065 34.9439C26.0705 34.8565 26.1754 34.8099 26.3326 34.8099C26.4142 34.8099 26.4782 34.8216 26.5307 34.8449C26.5831 34.8682 26.6238 34.9031 26.6588 34.9439C26.6879 34.9847 26.7112 35.0371 26.7287 35.0953C26.7403 35.1536 26.7462 35.2177 26.7462 35.2934V35.9981Z" fill="white"/>
<path d="M21.3878 34.8684H21.9004V36.6798C21.9004 36.7439 21.9237 36.7963 21.9703 36.8429C22.0169 36.8895 22.0693 36.9128 22.1334 36.9128C22.1974 36.9128 22.2498 36.8895 22.2964 36.8429C22.343 36.7963 22.3663 36.7439 22.3663 36.6798V34.8684H22.8789C22.943 34.8684 22.9954 34.8451 23.0362 34.8044C23.0769 34.7636 23.1002 34.7112 23.1002 34.6471C23.1002 34.583 23.0769 34.5306 23.0362 34.4899C22.9954 34.4433 22.943 34.4258 22.8789 34.4258H21.3878C21.3238 34.4258 21.2713 34.4491 21.2306 34.4899C21.184 34.5306 21.1665 34.5889 21.1665 34.6471C21.1665 34.7112 21.1898 34.7636 21.2306 34.8044C21.2772 34.8451 21.3296 34.8684 21.3878 34.8684Z" fill="white"/>
<path d="M17.2232 34.484C17.1824 34.4374 17.13 34.4199 17.0659 34.4199H15.9826C15.9243 34.4199 15.8719 34.4432 15.8253 34.484C15.7845 34.5306 15.7612 34.5772 15.7612 34.6413V36.674C15.7612 36.738 15.7845 36.7963 15.8253 36.8371C15.8719 36.8836 15.9243 36.9011 15.9884 36.9011C16.0524 36.9011 16.1107 36.8778 16.1515 36.8371C16.1981 36.7905 16.2213 36.738 16.2213 36.674V34.8626H17.0601C17.1183 34.8626 17.1707 34.8393 17.2173 34.7985C17.2581 34.7577 17.2814 34.7053 17.2814 34.6413C17.2814 34.583 17.2581 34.5306 17.2173 34.484H17.2232Z" fill="white"/>
<path d="M48.9547 34.484C48.9081 34.4374 48.8557 34.4141 48.7858 34.4141H48.1568C47.8947 34.4141 47.6966 34.4723 47.5685 34.5888C47.4404 34.7053 47.3763 34.8742 47.3763 35.0955V35.2295C47.3763 35.3168 47.3879 35.3926 47.4171 35.4625C47.4404 35.5323 47.4811 35.5964 47.5277 35.6547C47.5568 35.6896 47.5918 35.7246 47.6326 35.7479C47.6733 35.777 47.7199 35.8003 47.7665 35.8177C47.6908 35.9401 47.6209 36.0624 47.5568 36.1905C47.4928 36.3186 47.4287 36.441 47.3705 36.5691C47.353 36.5982 47.3472 36.6332 47.3472 36.6681C47.3472 36.738 47.3705 36.7904 47.4229 36.8312C47.4753 36.872 47.5277 36.8953 47.5918 36.8953C47.6326 36.8953 47.6675 36.8836 47.7024 36.8661C47.7374 36.8487 47.7665 36.8079 47.7957 36.7555C47.8597 36.6157 47.9296 36.4759 48.0053 36.3303C48.081 36.1905 48.1626 36.0507 48.2441 35.9109H48.5587V36.6681C48.5587 36.7322 48.582 36.7846 48.6285 36.8312C48.6751 36.8778 48.7275 36.9011 48.7916 36.9011C48.8557 36.9011 48.9139 36.8778 48.9605 36.8312C49.0071 36.7846 49.0304 36.7322 49.0304 36.6681V34.647C49.0304 34.583 49.0071 34.5247 48.9605 34.4781L48.9547 34.484ZM48.5587 35.4916H48.1801C48.1335 35.4916 48.0927 35.4916 48.0519 35.4799C48.0112 35.4683 47.9762 35.4566 47.9471 35.4333C47.8772 35.3867 47.8422 35.3227 47.8422 35.2295V35.0955C47.8422 35.0198 47.8714 34.9557 47.9238 34.9091C47.9762 34.8625 48.0577 34.8451 48.1684 34.8451H48.5645V35.4858L48.5587 35.4916Z" fill="white"/>
<path d="M25.0917 35.2819V35.1071C25.0917 35.0256 25.0801 34.9382 25.051 34.8567C25.0277 34.7751 24.9811 34.6994 24.9228 34.6354C24.8646 34.5713 24.783 34.5189 24.6899 34.4723C24.5908 34.4315 24.4685 34.4082 24.3229 34.4082H23.6881C23.624 34.4082 23.5657 34.4315 23.525 34.4781C23.4784 34.5247 23.4551 34.5771 23.4551 34.6412V36.6623C23.4551 36.7263 23.4784 36.7846 23.525 36.8253C23.5716 36.8719 23.624 36.8952 23.6881 36.8952C23.7521 36.8952 23.8104 36.8719 23.8511 36.8253C23.8919 36.7787 23.9211 36.7263 23.9211 36.6623V35.9575H24.3462C24.4627 35.9575 24.5734 35.94 24.6666 35.9109C24.7598 35.876 24.8355 35.8294 24.8996 35.7711C24.9636 35.7129 25.0102 35.6372 25.0452 35.5556C25.0801 35.4741 25.0917 35.3809 25.0917 35.276V35.2819ZM24.6316 35.2819C24.6316 35.3518 24.6083 35.41 24.5676 35.4624C24.521 35.5148 24.4452 35.544 24.3287 35.544H23.9211V34.8625H24.2822C24.3521 34.8625 24.4103 34.8683 24.4511 34.8858C24.4977 34.9033 24.5326 34.9208 24.5559 34.944C24.5792 34.9673 24.6025 34.9965 24.6083 35.0256C24.62 35.0547 24.6258 35.0897 24.6258 35.1246V35.2819H24.6316Z" fill="white"/>
<path d="M20.881 36.5515C20.881 36.4933 20.8635 36.4467 20.8227 36.4117C20.782 36.3768 20.7412 36.3593 20.6888 36.3593C20.6655 36.3593 20.6422 36.3593 20.6189 36.371C20.5956 36.3826 20.5723 36.3884 20.5431 36.4059C20.5024 36.435 20.4558 36.4583 20.4092 36.47C20.3626 36.4816 20.3102 36.4874 20.2519 36.4874C20.182 36.4874 20.1238 36.4758 20.0655 36.4525C20.0131 36.4292 19.9665 36.3943 19.9316 36.3418C19.8966 36.2894 19.8675 36.2253 19.85 36.138C19.8326 36.0564 19.8209 35.9516 19.8209 35.8293V35.474C19.8209 35.2352 19.8559 35.0663 19.9316 34.9614C20.0073 34.8566 20.118 34.8042 20.2636 34.8042C20.3684 34.8042 20.4558 34.8275 20.5199 34.8741C20.549 34.8916 20.5781 34.9032 20.5956 34.9149C20.6131 34.9265 20.6364 34.9265 20.6655 34.9265C20.7354 34.9265 20.7878 34.9032 20.8227 34.8624C20.8577 34.8158 20.8751 34.7751 20.8751 34.7285C20.8751 34.6993 20.8693 34.6644 20.8519 34.6353C20.8344 34.6062 20.8111 34.577 20.7761 34.5479C20.747 34.5246 20.7121 34.5013 20.6713 34.4838C20.6305 34.4664 20.5897 34.4489 20.5431 34.4373C20.4966 34.4256 20.45 34.414 20.4034 34.4081C20.3568 34.4023 20.3102 34.3965 20.2636 34.3965C20.0947 34.3965 19.9549 34.4256 19.8384 34.478C19.7219 34.5304 19.6287 34.6062 19.5588 34.6993C19.4889 34.7925 19.4365 34.909 19.4016 35.0372C19.3666 35.1653 19.355 35.3109 19.355 35.4623V35.8351C19.355 35.9924 19.3725 36.138 19.4016 36.2719C19.4365 36.4059 19.4831 36.5166 19.5588 36.6098C19.6287 36.7029 19.7219 36.7787 19.8326 36.8311C19.9433 36.8835 20.083 36.9068 20.2403 36.9068C20.2811 36.9068 20.3277 36.9068 20.3743 36.8952C20.4208 36.8893 20.4733 36.8777 20.5199 36.866C20.5665 36.8544 20.6189 36.8369 20.6596 36.8136C20.7062 36.7903 20.7412 36.767 20.7761 36.7321C20.8344 36.6797 20.8693 36.6214 20.8693 36.5515H20.881Z" fill="white"/>
<path d="M18.819 35.5962C18.7142 35.27 18.5977 34.9439 18.4695 34.6235C18.4288 34.5245 18.3822 34.4546 18.3239 34.4255C18.2657 34.3964 18.2133 34.3789 18.1609 34.3789C18.1084 34.3789 18.056 34.3964 18.0036 34.4255C17.9512 34.4546 17.9046 34.5187 17.8638 34.6235C17.7357 34.9439 17.6192 35.27 17.5143 35.5962C17.4095 35.9224 17.3163 36.266 17.2348 36.6213C17.2231 36.6679 17.2289 36.7087 17.2348 36.7436C17.2464 36.7786 17.2581 36.8077 17.2814 36.831C17.3047 36.8543 17.328 36.8718 17.3629 36.8892C17.392 36.9009 17.427 36.9067 17.4561 36.9067C17.5027 36.9067 17.5493 36.8892 17.59 36.8601C17.6308 36.831 17.6599 36.7844 17.6774 36.7203C17.6891 36.6621 17.7065 36.598 17.7182 36.5398C17.7298 36.4815 17.7473 36.4233 17.7648 36.365H18.5511C18.5686 36.4233 18.586 36.4815 18.5977 36.5398C18.6152 36.598 18.6268 36.6621 18.6385 36.7203C18.6501 36.7844 18.6792 36.831 18.72 36.8601C18.7607 36.8892 18.8074 36.9009 18.8598 36.9009C18.8947 36.9009 18.9238 36.8951 18.9588 36.8834C18.9879 36.8718 19.017 36.8485 19.0403 36.8252C19.0636 36.8019 19.0811 36.7727 19.0869 36.7378C19.0986 36.7029 19.0986 36.6621 19.0869 36.6155C19.0112 36.2602 18.918 35.9224 18.8132 35.5904L18.819 35.5962ZM17.8755 35.9457C17.9221 35.8001 17.9686 35.6603 18.0094 35.5205C18.056 35.3807 18.1026 35.2467 18.155 35.107C18.2074 35.2467 18.254 35.3807 18.3006 35.5205C18.3472 35.6603 18.3938 35.8001 18.4346 35.9457H17.8696H17.8755Z" fill="white"/>
<path d="M26.4487 38.276C26.3905 38.2119 26.3089 38.1595 26.2157 38.1129C26.1167 38.0721 25.9944 38.0488 25.8488 38.0488H25.2139C25.1499 38.0488 25.0916 38.0721 25.0508 38.1187C25.0043 38.1653 24.981 38.2177 24.981 38.2818V40.3029C24.981 40.367 25.0043 40.4252 25.0508 40.466C25.0974 40.5126 25.1499 40.5359 25.2139 40.5359C25.278 40.5359 25.3363 40.5126 25.377 40.466C25.4236 40.4194 25.4469 40.367 25.4469 40.3029V39.5981H25.8721C25.9886 39.5981 26.0993 39.5807 26.1924 39.5515C26.2856 39.5166 26.3614 39.47 26.4254 39.4117C26.4895 39.3535 26.5361 39.2778 26.571 39.1962C26.606 39.1147 26.6176 39.0215 26.6176 38.9167V38.7419C26.6176 38.6604 26.606 38.573 26.5769 38.4915C26.5536 38.4099 26.507 38.3342 26.4487 38.2702V38.276ZM26.1517 38.9167C26.1517 38.9866 26.1284 39.0448 26.0876 39.0972C26.041 39.1496 25.9653 39.1788 25.8488 39.1788H25.4411V38.4973H25.8022C25.8721 38.4973 25.9303 38.5031 25.9711 38.5206C26.0177 38.5381 26.0527 38.5556 26.076 38.5789C26.0992 38.6022 26.1226 38.6313 26.1284 38.6604C26.1342 38.6895 26.1458 38.7245 26.1458 38.7594V38.9167H26.1517Z" fill="white"/>
<path d="M24.3522 39.2368C24.2474 38.9107 24.1309 38.5845 24.0027 38.2642C23.962 38.1651 23.9154 38.0952 23.8571 38.0661C23.7989 38.037 23.7465 38.0195 23.6941 38.0195C23.6416 38.0195 23.5892 38.037 23.5368 38.0661C23.4844 38.0952 23.4378 38.1593 23.397 38.2642C23.2689 38.5845 23.1524 38.9107 23.0476 39.2368C22.9427 39.563 22.8495 39.9066 22.768 40.2619C22.7563 40.3085 22.7621 40.3493 22.768 40.3843C22.7796 40.4192 22.7913 40.4483 22.8146 40.4716C22.8379 40.4949 22.8612 40.5124 22.8961 40.5299C22.9252 40.5415 22.9602 40.5473 22.9893 40.5473C23.0359 40.5473 23.0825 40.5299 23.1232 40.5066C23.164 40.4774 23.1931 40.4308 23.2106 40.3668C23.2223 40.3085 23.2397 40.2445 23.2514 40.1862C23.263 40.128 23.2805 40.0697 23.298 40.0115H24.0843C24.1018 40.0697 24.1192 40.128 24.1309 40.1862C24.1484 40.2445 24.16 40.3085 24.1717 40.3668C24.1833 40.4308 24.2124 40.4774 24.2532 40.5066C24.2939 40.5357 24.3406 40.5473 24.393 40.5473C24.4279 40.5473 24.4571 40.5415 24.492 40.5299C24.5211 40.5182 24.5502 40.5007 24.5735 40.4716C24.5968 40.4483 24.6143 40.4192 24.6201 40.3843C24.6318 40.3493 24.6318 40.3085 24.6201 40.2619C24.5444 39.9066 24.4512 39.5688 24.3464 39.2368H24.3522ZM23.4087 39.5863C23.4553 39.4407 23.5018 39.3009 23.5426 39.1611C23.5892 39.0213 23.6358 38.8874 23.6882 38.7476C23.7406 38.8874 23.7872 39.0213 23.8338 39.1611C23.8804 39.3009 23.927 39.4407 23.9678 39.5863H23.4028H23.4087Z" fill="white"/>
<path d="M41.4702 38.0254C41.4061 38.0254 41.3537 38.0487 41.3071 38.0953C41.2606 38.1419 41.2373 38.1943 41.2373 38.2584V38.4506L40.3053 39.4931V38.2584C40.3053 38.1943 40.282 38.1361 40.2354 38.0953C40.1888 38.0487 40.1364 38.0254 40.0724 38.0254C40.0083 38.0254 39.95 38.0487 39.9093 38.0953C39.8627 38.1419 39.8452 38.1943 39.8452 38.2584V40.3086C39.8452 40.3726 39.8685 40.425 39.9093 40.4716C39.9559 40.5182 40.0083 40.5415 40.0724 40.5415C40.1364 40.5415 40.1947 40.5182 40.2354 40.4716C40.282 40.425 40.3053 40.3726 40.3053 40.3086V40.1164L41.2373 39.0738V40.3086C41.2373 40.3726 41.2606 40.425 41.3071 40.4716C41.3537 40.5182 41.4061 40.5415 41.4702 40.5415C41.5343 40.5415 41.5925 40.5182 41.6333 40.4716C41.6799 40.425 41.7032 40.3726 41.7032 40.3086V38.2584C41.7032 38.1943 41.6799 38.1361 41.6333 38.0953C41.5867 38.0487 41.5343 38.0254 41.4702 38.0254Z" fill="white"/>
<path d="M44.6269 36.0913C44.5337 35.9457 44.4347 35.7943 44.3298 35.6487L44.9006 34.7401C44.9006 34.7401 44.9181 34.6993 44.9239 34.676C44.9298 34.6527 44.9356 34.6352 44.9356 34.6177C44.9356 34.5478 44.9123 34.4954 44.8657 34.4488C44.8191 34.4022 44.7667 34.3848 44.6968 34.3848C44.6094 34.3848 44.5453 34.4255 44.4987 34.5071L43.9396 35.4273H43.6076V34.6177C43.6076 34.5537 43.5843 34.4954 43.5377 34.4547C43.4911 34.4081 43.4387 34.3848 43.3746 34.3848C43.3106 34.3848 43.2523 34.4081 43.2116 34.4547C43.165 34.5013 43.1475 34.5537 43.1475 34.6177V36.6679C43.1475 36.732 43.1708 36.7844 43.2116 36.831C43.2582 36.8776 43.3106 36.9009 43.3746 36.9009C43.4387 36.9009 43.4911 36.8776 43.5377 36.831C43.5843 36.7844 43.6076 36.732 43.6076 36.6679V35.8583H43.9454C44.0502 36.0156 44.1493 36.1729 44.2425 36.3243C44.3356 36.4816 44.423 36.633 44.5046 36.7786C44.5512 36.8601 44.6152 36.9009 44.7084 36.9009C44.7783 36.9009 44.8307 36.8776 44.8773 36.831C44.9239 36.7844 44.9472 36.732 44.9472 36.6679C44.9472 36.6272 44.9356 36.5864 44.9123 36.5456C44.8249 36.3884 44.7317 36.2369 44.6327 36.0855L44.6269 36.0913Z" fill="white"/>
<path d="M22.2031 39.7319C22.1099 39.5863 22.0108 39.4349 21.906 39.2893L22.4768 38.3807C22.4768 38.3807 22.4943 38.3399 22.5001 38.3166C22.5059 38.2933 22.5117 38.2758 22.5117 38.2584C22.5117 38.1885 22.4884 38.1361 22.4418 38.0895C22.3952 38.0429 22.3428 38.0254 22.2729 38.0254C22.1856 38.0254 22.1215 38.0662 22.0749 38.1477L21.5158 39.068H21.1838V38.2584C21.1838 38.1943 21.1605 38.1361 21.1139 38.0953C21.0673 38.0487 21.0149 38.0254 20.9508 38.0254C20.8867 38.0254 20.8285 38.0487 20.7877 38.0953C20.7411 38.1419 20.7236 38.1943 20.7236 38.2584V40.3086C20.7236 40.3726 20.747 40.425 20.7877 40.4716C20.8343 40.5182 20.8867 40.5415 20.9508 40.5415C21.0149 40.5415 21.0673 40.5182 21.1139 40.4716C21.1605 40.425 21.1838 40.3726 21.1838 40.3086V39.499H21.5216C21.6264 39.6562 21.7254 39.8135 21.8186 39.9649C21.9118 40.1222 21.9992 40.2736 22.0807 40.4192C22.1273 40.5008 22.1914 40.5415 22.2846 40.5415C22.3545 40.5415 22.4069 40.5182 22.4535 40.4716C22.5001 40.425 22.5234 40.3726 22.5234 40.3086C22.5234 40.2678 22.5117 40.227 22.4884 40.1862C22.4011 40.029 22.3079 39.8776 22.2089 39.7261L22.2031 39.7319Z" fill="white"/>
<path d="M43.8408 38.0254C43.7768 38.0254 43.7244 38.0487 43.6778 38.0953C43.6312 38.1419 43.6079 38.1943 43.6079 38.2584V38.4506L42.6759 39.4931V38.2584C42.6759 38.1943 42.6526 38.1361 42.606 38.0953C42.5595 38.0487 42.507 38.0254 42.443 38.0254C42.3789 38.0254 42.3207 38.0487 42.2799 38.0953C42.2333 38.1419 42.2158 38.1943 42.2158 38.2584V40.3086C42.2158 40.3726 42.2391 40.425 42.2799 40.4716C42.3265 40.5182 42.3789 40.5415 42.443 40.5415C42.507 40.5415 42.5653 40.5182 42.606 40.4716C42.6526 40.425 42.6759 40.3726 42.6759 40.3086V40.1164L43.6079 39.0738V40.3086C43.6079 40.3726 43.6312 40.425 43.6778 40.4716C43.7244 40.5182 43.7768 40.5415 43.8408 40.5415C43.9049 40.5415 43.9632 40.5182 44.0039 40.4716C44.0505 40.425 44.0738 40.3726 44.0738 40.3086V38.2584C44.0738 38.1943 44.0505 38.1361 44.0039 38.0953C43.9573 38.0487 43.9049 38.0254 43.8408 38.0254Z" fill="white"/>
<path d="M35.0807 36.9009C35.1447 36.9009 35.203 36.8776 35.2437 36.831C35.2903 36.7844 35.3137 36.732 35.3137 36.6679V36.4757L36.2456 35.4332V36.6679C36.2456 36.732 36.2689 36.7844 36.3155 36.831C36.362 36.8776 36.4145 36.9009 36.4786 36.9009C36.5426 36.9009 36.6008 36.8776 36.6416 36.831C36.6882 36.7844 36.7115 36.732 36.7115 36.6679V34.6177C36.7115 34.5537 36.6882 34.4954 36.6416 34.4547C36.595 34.4081 36.5426 34.3848 36.4786 34.3848C36.4145 34.3848 36.362 34.4081 36.3155 34.4547C36.2689 34.5013 36.2456 34.5537 36.2456 34.6177V34.8099L35.3137 35.8525V34.6177C35.3137 34.5537 35.2903 34.4954 35.2437 34.4547C35.1971 34.4081 35.1447 34.3848 35.0807 34.3848C35.0166 34.3848 34.9583 34.4081 34.9176 34.4547C34.871 34.5013 34.8535 34.5537 34.8535 34.6177V36.6679C34.8535 36.732 34.8768 36.7844 34.9176 36.831C34.9642 36.8776 35.0166 36.9009 35.0807 36.9009Z" fill="white"/>
<path d="M27.9049 36.9009C27.969 36.9009 28.0272 36.8776 28.068 36.831C28.1146 36.7844 28.1379 36.732 28.1379 36.6679V35.87H29.0115V36.6679C29.0115 36.732 29.0348 36.7844 29.0814 36.831C29.128 36.8776 29.1804 36.9009 29.2445 36.9009C29.3086 36.9009 29.3668 36.8776 29.4076 36.831C29.4542 36.7844 29.4775 36.732 29.4775 36.6679V34.6177C29.4775 34.5537 29.4542 34.4954 29.4076 34.4547C29.361 34.4081 29.3086 34.3848 29.2445 34.3848C29.1804 34.3848 29.128 34.4081 29.0814 34.4547C29.0348 34.5013 29.0115 34.5537 29.0115 34.6177V35.4565H28.1379V34.6177C28.1379 34.5537 28.1146 34.4954 28.068 34.4547C28.0214 34.4081 27.969 34.3848 27.9049 34.3848C27.8408 34.3848 27.7826 34.4081 27.7418 34.4547C27.6952 34.5013 27.6777 34.5537 27.6777 34.6177V36.6679C27.6777 36.732 27.7011 36.7844 27.7418 36.831C27.7884 36.8776 27.8408 36.9009 27.9049 36.9009Z" fill="white"/>
<path d="M46.776 35.5962C46.6712 35.27 46.5547 34.9439 46.4266 34.6235C46.3858 34.5245 46.3392 34.4546 46.2809 34.4255C46.2227 34.3964 46.1703 34.3789 46.1179 34.3789C46.0655 34.3789 46.013 34.3964 45.9606 34.4255C45.9082 34.4546 45.8616 34.5187 45.8208 34.6235C45.6927 34.9439 45.5762 35.27 45.4714 35.5962C45.3665 35.9224 45.2733 36.266 45.1918 36.6213C45.1801 36.6679 45.186 36.7087 45.1918 36.7436C45.2034 36.7786 45.2151 36.8077 45.2384 36.831C45.2617 36.8543 45.285 36.8718 45.3199 36.8892C45.3491 36.9009 45.384 36.9067 45.4131 36.9067C45.4597 36.9067 45.5063 36.8892 45.5471 36.8601C45.5878 36.831 45.617 36.7844 45.6344 36.7203C45.6461 36.6621 45.6636 36.598 45.6752 36.5398C45.6927 36.4815 45.7044 36.4233 45.7218 36.365H46.5081C46.5256 36.4233 46.5431 36.4815 46.5547 36.5398C46.5664 36.598 46.5838 36.6621 46.5955 36.7203C46.6071 36.7844 46.6362 36.831 46.677 36.8601C46.7178 36.8892 46.7644 36.9009 46.8168 36.9009C46.8518 36.9009 46.8809 36.8951 46.9158 36.8834C46.9449 36.8718 46.9741 36.8485 46.9974 36.8252C47.0207 36.8019 47.0381 36.7727 47.0439 36.7378C47.0556 36.7029 47.0556 36.6621 47.0439 36.6155C46.9624 36.2602 46.8751 35.9224 46.7702 35.5904L46.776 35.5962ZM45.8325 35.9457C45.8791 35.8001 45.9257 35.6603 45.9664 35.5205C46.013 35.3807 46.0596 35.2467 46.1121 35.107C46.1645 35.2467 46.2111 35.3807 46.2577 35.5205C46.3043 35.6603 46.3508 35.8001 46.3916 35.9457H45.8267H45.8325Z" fill="white"/>
<path d="M42.4138 36.8602C42.4604 36.8485 42.5129 36.8311 42.5536 36.8078C42.6002 36.7845 42.6351 36.7612 42.6701 36.7262C42.7283 36.6738 42.7633 36.6156 42.7633 36.5457C42.7633 36.4874 42.7458 36.4408 42.7051 36.4059C42.6643 36.3709 42.6235 36.3535 42.5711 36.3535C42.5478 36.3535 42.5245 36.3535 42.5012 36.3651C42.4779 36.3768 42.4546 36.3826 42.4255 36.4C42.3847 36.4292 42.3381 36.4525 42.2915 36.4641C42.2449 36.4758 42.1925 36.4816 42.1343 36.4816C42.0644 36.4816 42.0061 36.4699 41.9479 36.4466C41.8954 36.4233 41.8489 36.3884 41.8139 36.336C41.779 36.2836 41.7498 36.2195 41.7324 36.1321C41.7149 36.0506 41.7033 35.9457 41.7033 35.8234V35.4681C41.7033 35.2293 41.7382 35.0604 41.8139 34.9556C41.8896 34.8508 42.0003 34.7983 42.1459 34.7983C42.2508 34.7983 42.3381 34.8216 42.4022 34.8682C42.4313 34.8857 42.4604 34.8973 42.4779 34.909C42.4954 34.9206 42.5187 34.9206 42.5478 34.9206C42.6177 34.9206 42.6701 34.8974 42.7051 34.8566C42.74 34.81 42.7575 34.7692 42.7575 34.7226C42.7575 34.6935 42.7517 34.6586 42.7342 34.6294C42.7167 34.6003 42.6934 34.5712 42.6585 34.5421C42.6293 34.5188 42.5944 34.4955 42.5536 34.478C42.5129 34.4605 42.4721 34.443 42.4255 34.4314C42.3789 34.4198 42.3323 34.4081 42.2857 34.4023C42.2391 34.3965 42.1925 34.3906 42.1459 34.3906C41.977 34.3906 41.8372 34.4197 41.7207 34.4722C41.6043 34.5246 41.511 34.6003 41.4411 34.6935C41.3713 34.7867 41.3189 34.9032 41.2839 35.0313C41.249 35.1595 41.2373 35.3051 41.2373 35.4565V35.8293C41.2373 35.9865 41.2548 36.1321 41.2839 36.2661C41.3189 36.4001 41.3654 36.5107 41.4411 36.6039C41.511 36.6971 41.6042 36.7728 41.7149 36.8252C41.8256 36.8777 41.9654 36.9009 42.1226 36.9009C42.1634 36.9009 42.21 36.901 42.2566 36.8893C42.3032 36.8835 42.3556 36.8718 42.4022 36.8602H42.4138Z" fill="white"/>
<path d="M40.8818 36.8079C40.9226 36.7671 40.9459 36.7147 40.9459 36.6506C40.9459 36.5924 40.9226 36.54 40.8818 36.4934C40.841 36.4526 40.7886 36.4293 40.7245 36.4293H39.8741V35.8585H40.6022C40.6604 35.8585 40.7129 35.8352 40.7536 35.7944C40.7944 35.7537 40.8177 35.7013 40.8177 35.643C40.8177 35.5848 40.7944 35.5323 40.7536 35.4916C40.7129 35.4508 40.6604 35.4275 40.6022 35.4275H39.8741V34.8567H40.6779C40.742 34.8567 40.7944 34.8334 40.8352 34.7926C40.876 34.7519 40.8993 34.6995 40.8993 34.6354C40.8993 34.5713 40.876 34.5247 40.8352 34.4781C40.7944 34.4315 40.742 34.4141 40.6779 34.4141H39.6295C39.5713 34.4141 39.5189 34.4374 39.4723 34.4781C39.4315 34.5189 39.4082 34.5713 39.4082 34.6354V36.6448C39.4082 36.7089 39.4315 36.7613 39.4723 36.8021C39.513 36.8428 39.5655 36.8661 39.6295 36.8661H40.7245C40.7828 36.8661 40.8352 36.8428 40.8818 36.8021V36.8079Z" fill="white"/>
<path d="M36.6884 38.5962C36.7641 38.4914 36.8748 38.439 37.0204 38.439C37.1253 38.439 37.2126 38.4623 37.2767 38.5089C37.3058 38.5263 37.3349 38.538 37.3524 38.5496C37.3699 38.5613 37.3932 38.5613 37.4223 38.5613C37.4922 38.5613 37.5446 38.538 37.5795 38.4972C37.6145 38.4564 37.632 38.4098 37.632 38.3632C37.632 38.3341 37.6262 38.2992 37.6087 38.2701C37.5912 38.2409 37.5679 38.2118 37.533 38.1827C37.5039 38.1594 37.4689 38.1361 37.4281 38.1186C37.3873 38.1011 37.3466 38.0837 37.3 38.072C37.2534 38.0604 37.2068 38.0487 37.1602 38.0429C37.1136 38.0371 37.067 38.0312 37.0204 38.0312C36.8515 38.0312 36.7117 38.0604 36.5952 38.1128C36.4787 38.1652 36.3855 38.2409 36.3157 38.3341C36.2458 38.4273 36.1933 38.5438 36.1584 38.6719C36.1234 38.8001 36.1118 38.9457 36.1118 39.0971V39.4699C36.1118 39.6271 36.1293 39.7728 36.1584 39.9067C36.1933 40.0407 36.2399 40.1513 36.3157 40.2445C36.3855 40.3377 36.4788 40.4134 36.5894 40.4659C36.7001 40.5183 36.8398 40.5416 36.9971 40.5416C37.0379 40.5416 37.0845 40.5416 37.1311 40.5299C37.1777 40.5241 37.2301 40.5125 37.2767 40.5008C37.3233 40.4892 37.3757 40.4717 37.4165 40.4484C37.4631 40.4251 37.498 40.4018 37.533 40.3668C37.5912 40.3144 37.6262 40.2562 37.6262 40.1863C37.6262 40.128 37.6087 40.0814 37.5679 40.0465C37.5272 40.0116 37.4864 39.9941 37.4339 39.9941C37.4106 39.9941 37.3873 39.9941 37.364 40.0057C37.3407 40.0174 37.3174 40.0232 37.2883 40.0407C37.2476 40.0698 37.201 40.0931 37.1544 40.1047C37.1078 40.1164 37.0553 40.1222 36.9971 40.1222C36.9272 40.1222 36.869 40.1106 36.8107 40.0873C36.7583 40.064 36.7117 40.029 36.6768 39.9766C36.6418 39.9242 36.6127 39.8601 36.5952 39.7728C36.5777 39.6912 36.5661 39.5864 36.5661 39.4641V39.1088C36.5661 38.87 36.6011 38.7011 36.6768 38.5962H36.6884Z" fill="white"/>
<path d="M35.5062 38.305C35.4363 38.2176 35.349 38.1535 35.2325 38.1011C35.1218 38.0487 34.982 38.0254 34.8189 38.0254C34.6559 38.0254 34.5161 38.0487 34.4054 38.1011C34.2948 38.1535 34.2016 38.2234 34.1317 38.305C34.0618 38.3923 34.0152 38.4855 33.9861 38.5962C33.9569 38.7068 33.9395 38.8175 33.9395 38.934V39.6329C33.9395 39.7494 33.9569 39.8601 33.9861 39.9707C34.0152 40.0814 34.0618 40.1804 34.1317 40.262C34.2016 40.3493 34.2889 40.4134 34.4054 40.4658C34.5161 40.5182 34.6559 40.5415 34.8189 40.5415C34.982 40.5415 35.1218 40.5182 35.2325 40.4658C35.3432 40.4134 35.4363 40.3435 35.5062 40.262C35.5761 40.1746 35.6227 40.0814 35.6518 39.9707C35.681 39.8601 35.6984 39.7494 35.6984 39.6329V38.934C35.6984 38.8175 35.681 38.7068 35.6518 38.5962C35.6227 38.4855 35.5703 38.3923 35.5062 38.305ZM35.2325 39.6329C35.2325 39.7028 35.2267 39.7727 35.215 39.831C35.2034 39.8892 35.1801 39.9416 35.1451 39.9824C35.116 40.029 35.0694 40.0639 35.017 40.0814C34.9646 40.1047 34.8947 40.1164 34.8189 40.1164C34.6617 40.1164 34.5568 40.0698 34.4928 39.9824C34.4637 39.9416 34.4404 39.8892 34.4287 39.831C34.4171 39.7727 34.4112 39.7028 34.4112 39.6329V38.9282C34.4112 38.8583 34.4171 38.7884 34.4287 38.7301C34.4404 38.6719 34.4637 38.6195 34.4928 38.5787C34.5568 38.4913 34.6675 38.4447 34.8189 38.4447C34.9005 38.4447 34.9646 38.4564 35.017 38.4797C35.0694 38.503 35.1102 38.5379 35.1451 38.5787C35.1742 38.6195 35.1975 38.6719 35.215 38.7301C35.2267 38.7884 35.2325 38.8583 35.2325 38.9282V39.6329Z" fill="white"/>
<path d="M38.5171 38.5962C38.5928 38.4914 38.7034 38.439 38.849 38.439C38.9539 38.439 39.0412 38.4623 39.1053 38.5089C39.1344 38.5263 39.1636 38.538 39.181 38.5496C39.1985 38.5613 39.2218 38.5613 39.2509 38.5613C39.3208 38.5613 39.3732 38.538 39.4082 38.4972C39.4431 38.4564 39.4606 38.4098 39.4606 38.3632C39.4606 38.3341 39.4548 38.2992 39.4373 38.2701C39.4198 38.2409 39.3965 38.2118 39.3616 38.1827C39.3325 38.1594 39.2975 38.1361 39.2568 38.1186C39.216 38.1011 39.1752 38.0837 39.1286 38.072C39.082 38.0604 39.0354 38.0487 38.9889 38.0429C38.9423 38.0371 38.8956 38.0312 38.849 38.0312C38.6801 38.0312 38.5404 38.0604 38.4239 38.1128C38.3074 38.1652 38.2142 38.2409 38.1443 38.3341C38.0744 38.4273 38.022 38.5438 37.987 38.6719C37.9521 38.8001 37.9404 38.9457 37.9404 39.0971V39.4699C37.9404 39.6271 37.9579 39.7728 37.987 39.9067C38.022 40.0407 38.0686 40.1513 38.1443 40.2445C38.2142 40.3377 38.3074 40.4134 38.418 40.4659C38.5287 40.5183 38.6685 40.5416 38.8258 40.5416C38.8665 40.5416 38.9131 40.5416 38.9597 40.5299C39.0063 40.5241 39.0587 40.5125 39.1053 40.5008C39.1519 40.4892 39.2044 40.4717 39.2451 40.4484C39.2917 40.4251 39.3266 40.4018 39.3616 40.3668C39.4198 40.3144 39.4548 40.2562 39.4548 40.1863C39.4548 40.128 39.4373 40.0814 39.3965 40.0465C39.3558 40.0116 39.315 39.9941 39.2626 39.9941C39.2393 39.9941 39.216 39.9941 39.1927 40.0057C39.1694 40.0174 39.1461 40.0232 39.117 40.0407C39.0762 40.0698 39.0296 40.0931 38.983 40.1047C38.9364 40.1164 38.884 40.1222 38.8258 40.1222C38.7559 40.1222 38.6976 40.1106 38.6394 40.0873C38.5869 40.064 38.5404 40.029 38.5054 39.9766C38.4705 39.9242 38.4413 39.8601 38.4239 39.7728C38.4064 39.6912 38.3948 39.5864 38.3948 39.4641V39.1088C38.3948 38.87 38.4297 38.7011 38.5054 38.5962H38.5171Z" fill="white"/>
<path d="M38.4414 35.9166V36.6738C38.4414 36.7379 38.4646 36.7961 38.5112 36.8369C38.5578 36.8835 38.6102 36.9068 38.6743 36.9068C38.7384 36.9068 38.7966 36.8835 38.8432 36.8369C38.8898 36.7903 38.9131 36.7379 38.9131 36.6738V34.6236C38.9131 34.5595 38.8898 34.5071 38.8432 34.4605C38.7966 34.4139 38.7442 34.3906 38.6743 34.3906C38.6044 34.3906 38.552 34.4139 38.5112 34.4605C38.4646 34.5071 38.4414 34.5595 38.4414 34.6236V35.5089C38.3773 35.5322 38.3016 35.5555 38.2084 35.573C38.121 35.5905 38.0278 35.6021 37.9288 35.6021C37.8647 35.6021 37.8123 35.5963 37.7715 35.5788C37.7308 35.5613 37.6958 35.5439 37.6725 35.5147C37.6492 35.4856 37.6317 35.4507 37.6201 35.4099C37.6084 35.3691 37.6026 35.3225 37.6026 35.2701V34.6294C37.6026 34.5654 37.5793 34.5129 37.5327 34.4663C37.4862 34.4197 37.4337 34.3965 37.3638 34.3965C37.2939 34.3965 37.2473 34.4197 37.2007 34.4663C37.1542 34.5129 37.1309 34.5654 37.1309 34.6294V35.2876C37.1309 35.5322 37.1949 35.7186 37.323 35.8409C37.4512 35.9632 37.6259 36.0215 37.8531 36.0215C37.9463 36.0215 38.0395 36.0156 38.1385 35.9982C38.2375 35.9807 38.3365 35.9574 38.4355 35.9283L38.4414 35.9166Z" fill="white"/>
<path d="M52.4376 28.998C52.8802 28.998 53.2355 29.3533 53.2355 29.796C53.2355 30.2386 52.8802 30.5939 52.4376 30.5939C51.9949 30.5939 51.6396 30.2386 51.6396 29.796C51.6396 29.3533 51.9949 28.998 52.4376 28.998ZM52.4376 29.1728C52.094 29.1728 51.826 29.4407 51.826 29.796C51.826 30.1513 52.094 30.4192 52.4376 30.4192C52.7812 30.4192 53.0491 30.1513 53.0491 29.796C53.0491 29.4407 52.7812 29.1728 52.4376 29.1728ZM52.3444 29.8892V30.0872C52.3444 30.1338 52.3444 30.1513 52.3328 30.1688C52.3211 30.1979 52.292 30.2095 52.2512 30.2095C52.2163 30.2095 52.1871 30.192 52.1755 30.1688C52.1638 30.1455 52.1639 30.1338 52.1639 30.0872V29.5048C52.1639 29.5048 52.1639 29.4465 52.193 29.4174C52.2221 29.3883 52.2512 29.3883 52.2803 29.3883H52.4959C52.6648 29.3883 52.7638 29.5048 52.7638 29.6446C52.7638 29.761 52.6939 29.8309 52.6181 29.8601L52.7288 30.0464C52.7521 30.0814 52.7579 30.0989 52.7579 30.1222C52.7579 30.1455 52.7463 30.1746 52.7114 30.1979C52.6939 30.2095 52.6822 30.2095 52.6648 30.2095C52.624 30.2095 52.6007 30.1804 52.5774 30.1338L52.4318 29.8892H52.3444ZM52.3444 29.5455V29.7494H52.4667C52.5308 29.7494 52.5774 29.7145 52.5774 29.6446C52.5774 29.5805 52.5308 29.5455 52.4667 29.5455H52.3444Z" fill="white"/>
<path d="M51.8491 42.1953C49.7407 48.5439 43.8872 52.7841 37.16 52.7841C30.4328 52.7841 24.5734 48.5439 22.4708 42.1953H22.2437C23.2396 45.224 25.1792 47.9382 27.7361 49.8602C30.4736 51.9163 33.7294 53.0054 37.16 53.0054C40.5906 53.0054 43.8522 51.9163 46.5839 49.8602C49.1466 47.9324 51.0862 45.2182 52.0763 42.1953H51.8491Z" fill="white"/>
<path d="M58.8152 32.5449H15.4699C14.7244 32.5449 14.1187 33.1565 14.1187 33.902V41.0311C14.1187 41.7766 14.7244 42.3824 15.4699 42.3824H58.8152C59.5608 42.3824 60.1665 41.7708 60.1665 41.0253V33.8962C60.1665 33.1507 59.5608 32.5449 58.8152 32.5449ZM49.8048 40.7923C49.8048 41.2466 49.4379 41.6135 48.9836 41.6135H15.732C15.2777 41.6135 14.9108 41.2466 14.9108 40.7923V34.1292C14.9108 33.6749 15.2777 33.3079 15.732 33.3079H48.9836C49.4379 33.3079 49.8048 33.6749 49.8048 34.1292V40.7923ZM59.3802 40.7923C59.3802 41.2466 59.0133 41.6135 58.559 41.6135H51.4473C50.993 41.6135 50.6261 41.2466 50.6261 40.7923V34.1233C50.6261 33.669 50.993 33.3021 51.4473 33.3021H58.559C59.0133 33.3021 59.3802 33.669 59.3802 34.1233V40.7923Z" fill="white"/>
<path fill-rule="evenodd" clip-rule="evenodd" d="M58.6112 33.3086H51.3889C50.9638 33.3086 50.6201 33.6522 50.6201 34.0774V36.0752V38.8476V40.8454C50.6201 41.2706 50.9638 41.6142 51.3889 41.6142H58.6112C59.0364 41.6142 59.38 41.2706 59.38 40.8454V38.8476V36.0752V34.0774C59.38 33.6522 59.0364 33.3086 58.6112 33.3086Z" stroke="#706F6F" stroke-width="0.75" stroke-miterlimit="10"/>
</svg>
