<svg width="75" height="75" viewBox="0 0 75 75" fill="none" xmlns="http://www.w3.org/2000/svg"><path d="M37.43.533L.358 37.603l37.07 37.071 37.07-37.07L37.43.532z" fill="#575756"/><path d="M50.516 38.887h9.033v.122a2.738 2.738 0 01-2.737 2.737h-3.559a2.738 2.738 0 01-2.737-2.737v-.122z" fill="#E42313"/><path d="M53.247 33.174h3.559a2.738 2.738 0 012.737 2.737v.123H50.51v-.123a2.738 2.738 0 012.737-2.737z" fill="#fff"/><path d="M59.55 36.033h-9.034v2.854h9.033v-2.854z" fill="#005CA9"/><path d="M30.282 31.379a9.162 9.162 0 0114.631 1.223 1.68 1.68 0 01.244-.024 9.382 9.382 0 00-15.044-1.345.111.111 0 00.011.157.112.112 0 00.158-.011zM44.9 42.348a9.16 9.16 0 01-7.752 4.286c-3.256 0-6.115-1.706-7.746-4.269-.082.018-.163.023-.245.03a9.393 9.393 0 007.985 4.46 9.39 9.39 0 008.015-4.502c-.087.006-.175 0-.262 0l.006-.005z" fill="#fff"/><path d="M51.11 30.367a15.597 15.597 0 00-13.961-8.562c-6.908 0-12.785 4.496-14.858 10.717.075 0 .151 0 .227.017 2.061-6.104 7.84-10.513 14.63-10.513a15.375 15.375 0 0113.77 8.445c.029.053.093.076.145.047.053-.03.076-.093.047-.146v-.005zm-17.136 6.47c.04.04.093.064.151.064a.215.215 0 00.158-.064.211.211 0 00.064-.152V34.6a.212.212 0 00-.064-.151.215.215 0 00-.158-.064.27.27 0 00-.122.023.194.194 0 00-.093.1l-.658 1.339-.653-1.322a.247.247 0 00-.087-.111.311.311 0 00-.14-.03.23.23 0 00-.157.059.215.215 0 00-.064.157v2.085a.21.21 0 00.064.152.211.211 0 00.303 0 .211.211 0 00.064-.152V35.41l.454.95a.235.235 0 00.093.104.225.225 0 00.24 0 .333.333 0 00.092-.105l.455-.955v1.281a.21.21 0 00.064.152h-.006zm-5.347 1.286a.194.194 0 00-.157-.064h-1.49a.215.215 0 00-.158.064.202.202 0 00-.064.157c0 .058.023.116.064.157a.24.24 0 00.157.064h.513v1.812a.22.22 0 00.07.163.22.22 0 00.163.07.22.22 0 00.163-.07.22.22 0 00.07-.163V38.5h.512a.215.215 0 00.157-.064.215.215 0 00.065-.157.215.215 0 00-.065-.157zm1.596 1.114a14.908 14.908 0 00-.35-.973c-.04-.099-.087-.169-.145-.198a.367.367 0 00-.163-.047.326.326 0 00-.157.047c-.053.03-.1.093-.14.198a13.043 13.043 0 00-.629 1.998.289.289 0 000 .122.21.21 0 00.047.088.3.3 0 00.081.058c.03.011.064.017.093.017a.276.276 0 00.134-.04.248.248 0 00.088-.14c.011-.058.029-.122.04-.18.012-.059.03-.117.047-.175h.786c.018.058.035.116.047.174.017.059.03.123.04.18a.21.21 0 00.082.14c.041.03.088.041.14.041a.297.297 0 00.1-.017.194.194 0 00.08-.058.16.16 0 00.047-.088.217.217 0 000-.122 11.001 11.001 0 00-.273-1.025h.005zm-.943.35c.046-.146.093-.286.134-.426.046-.14.093-.274.145-.413.053.14.1.273.146.413.047.14.093.28.134.425h-.565.006zm2.219-4.923a.705.705 0 00-.274-.203.973.973 0 00-.413-.076.972.972 0 00-.414.076.822.822 0 00-.274.203.765.765 0 00-.145.292c-.03.11-.047.22-.047.337v.7c0 .116.018.226.047.337a.725.725 0 00.42.495c.11.053.25.076.413.076a.973.973 0 00.413-.076.822.822 0 00.274-.204.761.761 0 00.146-.29c.029-.112.046-.222.046-.339v-.699a1.31 1.31 0 00-.046-.337.855.855 0 00-.146-.292zm-.274 1.328c0 .07-.006.14-.017.198a.332.332 0 01-.07.152.241.241 0 01-.128.099.503.503 0 01-.198.035c-.158 0-.263-.047-.327-.134a.395.395 0 01-.064-.152.997.997 0 01-.017-.198v-.704c0-.07.006-.14.017-.198a.396.396 0 01.064-.152c.064-.087.175-.134.327-.134.081 0 .145.012.198.035a.361.361 0 01.128.1c.029.04.052.092.07.15.011.059.017.123.017.199v.704zm2.185 2.284a.79.79 0 00-.234-.163.963.963 0 00-.367-.064h-.635a.212.212 0 00-.163.07.22.22 0 00-.07.163v2.02c0 .065.024.123.07.164a.22.22 0 00.163.07.212.212 0 00.163-.07.22.22 0 00.07-.163v-.705h.426c.116 0 .227-.017.32-.047a.611.611 0 00.379-.355.705.705 0 00.046-.28v-.174a.752.752 0 00-.04-.25.566.566 0 00-.129-.222v.006zm-.298.64c0 .07-.023.129-.064.181-.047.053-.122.082-.239.082h-.407v-.682h.36c.07 0 .129.006.17.024a.292.292 0 01.104.058.178.178 0 01.053.081c.011.03.017.065.017.1v.157h.006zm-6.092-2.295a.761.761 0 00.146-.29c.029-.112.046-.222.046-.339v-.699a1.31 1.31 0 00-.046-.337.855.855 0 00-.146-.292.705.705 0 00-.274-.203.973.973 0 00-.413-.076.972.972 0 00-.414.076.822.822 0 00-.274.203.764.764 0 00-.145.292c-.03.11-.047.22-.047.337v.7c0 .116.018.226.047.337a.723.723 0 00.42.495c.11.053.25.076.413.076a.973.973 0 00.413-.076.822.822 0 00.274-.204zm-.274-.623c0 .07-.006.14-.017.198a.332.332 0 01-.07.152.241.241 0 01-.128.099.503.503 0 01-.198.035c-.158 0-.262-.047-.326-.134a.396.396 0 01-.065-.152.999.999 0 01-.017-.198v-.705c0-.07.006-.14.017-.198a.396.396 0 01.064-.151c.064-.088.17-.134.327-.134.081 0 .145.012.198.035a.361.361 0 01.128.099c.029.04.052.093.07.151.011.059.017.123.017.198v.705zm-5.358-1.13h.512v1.812a.22.22 0 00.07.163.22.22 0 00.163.07.22.22 0 00.163-.07.22.22 0 00.07-.163v-1.812h.513a.215.215 0 00.157-.064.215.215 0 00.064-.157.215.215 0 00-.064-.157.195.195 0 00-.157-.064h-1.491a.215.215 0 00-.157.064.202.202 0 00-.065.157c0 .064.024.117.065.157a.233.233 0 00.157.064zm-4.165-.384a.195.195 0 00-.157-.064h-1.083a.236.236 0 00-.158.064.225.225 0 00-.064.157v2.033c0 .064.024.122.064.163a.215.215 0 00.163.064.23.23 0 00.233-.227v-1.811h.84c.057 0 .11-.024.156-.065a.215.215 0 00.064-.157.236.236 0 00-.064-.157h.006zm31.732 0a.224.224 0 00-.17-.07h-.628c-.262 0-.46.058-.588.175-.129.116-.193.285-.193.507v.134a.647.647 0 00.151.425.603.603 0 00.239.163 4.728 4.728 0 00-.21.373c-.063.128-.127.25-.185.378a.191.191 0 00-.024.1.19.19 0 00.076.162.24.24 0 00.28.035c.034-.017.064-.058.093-.11.064-.14.134-.28.21-.426.075-.14.157-.28.238-.42h.315v.758a.22.22 0 00.07.163.233.233 0 00.332 0 .22.22 0 00.07-.163v-2.021a.233.233 0 00-.07-.169l-.006.006zm-.396 1.008h-.379c-.047 0-.087 0-.128-.012a.287.287 0 01-.105-.047.225.225 0 01-.105-.203v-.134c0-.076.03-.14.082-.187.052-.047.134-.064.244-.064h.397v.64l-.006.007zm-23.467-.21v-.175a.752.752 0 00-.041-.25.565.565 0 00-.128-.222.789.789 0 00-.233-.163.963.963 0 00-.367-.064h-.635a.211.211 0 00-.163.07.22.22 0 00-.07.163v2.021c0 .064.023.123.07.163a.22.22 0 00.163.07.211.211 0 00.163-.07.245.245 0 00.07-.163v-.704h.425c.117 0 .227-.018.32-.047a.614.614 0 00.379-.355.706.706 0 00.047-.28v.006zm-.46 0c0 .07-.024.128-.064.18-.047.053-.123.082-.24.082h-.407v-.681h.361c.07 0 .128.005.17.023a.294.294 0 01.104.058.179.179 0 01.052.082.264.264 0 01.018.099v.157h.006zm-3.751 1.269a.173.173 0 00-.058-.14.194.194 0 00-.134-.052c-.023 0-.047 0-.07.012-.023.012-.047.017-.076.035a.406.406 0 01-.134.064.652.652 0 01-.157.017.483.483 0 01-.186-.035.305.305 0 01-.134-.11.551.551 0 01-.082-.204 1.506 1.506 0 01-.03-.309v-.355c0-.239.036-.408.112-.513a.384.384 0 01.332-.157.43.43 0 01.256.07c.029.018.058.03.076.04.017.012.04.012.07.012.07 0 .122-.023.157-.064a.217.217 0 00.052-.134.185.185 0 00-.023-.093.338.338 0 00-.076-.087.456.456 0 00-.105-.064.771.771 0 00-.128-.047 1.193 1.193 0 00-.28-.04c-.168 0-.308.029-.425.081a.708.708 0 00-.28.221.983.983 0 00-.156.338 1.638 1.638 0 00-.047.425v.373c0 .157.017.303.047.437a.863.863 0 00.157.338c.07.093.163.169.274.221.11.052.25.076.407.076.041 0 .088 0 .134-.012.047-.006.1-.017.146-.029a.572.572 0 00.256-.134c.058-.052.093-.11.093-.18h.012zm-2.062-.955a14.853 14.853 0 00-.35-.972c-.04-.1-.087-.17-.145-.199a.367.367 0 00-.163-.046.326.326 0 00-.157.047c-.053.029-.1.093-.14.197a13.04 13.04 0 00-.63 1.998.285.285 0 000 .123.21.21 0 00.047.087c.024.023.047.04.082.058a.256.256 0 00.093.018.233.233 0 00.134-.047.244.244 0 00.087-.14c.012-.058.03-.122.041-.18.012-.059.03-.117.047-.175h.786c.018.058.035.116.047.175.017.058.029.122.04.18a.21.21 0 00.082.14c.04.03.087.04.14.04a.295.295 0 00.099-.017.262.262 0 00.081-.058.16.16 0 00.047-.087.216.216 0 000-.123 11.001 11.001 0 00-.274-1.025l.006.006zm-.944.35c.047-.146.094-.286.134-.425.047-.14.094-.274.146-.414a11.64 11.64 0 01.28.839h-.565.005zm8.574 2.33a.788.788 0 00-.233-.163.962.962 0 00-.367-.064h-.635a.212.212 0 00-.163.07.22.22 0 00-.07.163v2.02c0 .065.023.123.07.164.046.047.099.07.163.07a.211.211 0 00.163-.07.22.22 0 00.07-.163v-.705h.425c.117 0 .227-.017.32-.047a.611.611 0 00.379-.355.704.704 0 00.047-.28v-.174a.752.752 0 00-.041-.25.565.565 0 00-.128-.222v.006zm-.297.64a.29.29 0 01-.064.181c-.047.053-.123.082-.24.082h-.407v-.682h.361a.45.45 0 01.17.024.293.293 0 01.104.058.18.18 0 01.052.081c.006.03.018.065.018.1v.157h.006zm-1.8.321a14.85 14.85 0 00-.35-.973c-.04-.099-.087-.169-.145-.198a.367.367 0 00-.163-.047.326.326 0 00-.157.047c-.053.03-.1.093-.14.198-.128.32-.245.647-.35.973-.104.326-.198.67-.279 1.025a.286.286 0 000 .122.21.21 0 00.047.088.3.3 0 00.081.058c.03.011.064.017.093.017a.276.276 0 00.134-.04.248.248 0 00.088-.14c.011-.058.029-.122.04-.18.012-.059.03-.117.047-.175h.786c.018.058.035.116.047.174.017.059.029.123.04.18a.21.21 0 00.082.14c.04.03.088.041.14.041a.297.297 0 00.099-.017.194.194 0 00.081-.058.16.16 0 00.047-.088.217.217 0 000-.122 11.001 11.001 0 00-.274-1.025h.006zm-.943.35c.046-.146.093-.286.134-.426.046-.14.093-.274.145-.413a11.71 11.71 0 01.28.838h-.565.006zm18.061-1.562a.22.22 0 00-.163.07.22.22 0 00-.07.163v.193l-.932 1.042v-1.235a.212.212 0 00-.07-.163.22.22 0 00-.163-.07.211.211 0 00-.163.07.215.215 0 00-.064.163v2.05a.24.24 0 00.064.164.22.22 0 00.163.07.211.211 0 00.163-.07.22.22 0 00.07-.163v-.193l.932-1.042v1.235a.22.22 0 00.07.163.22.22 0 00.163.07.212.212 0 00.163-.07.22.22 0 00.07-.163v-2.05a.212.212 0 00-.07-.164.22.22 0 00-.163-.07zm3.157-1.934a9.752 9.752 0 00-.297-.442l.57-.909s.018-.04.024-.064c.006-.023.012-.04.012-.058a.224.224 0 00-.07-.17.22.22 0 00-.17-.063c-.087 0-.15.04-.197.122l-.56.92h-.331v-.81a.211.211 0 00-.07-.162.22.22 0 00-.163-.07.211.211 0 00-.163.07.215.215 0 00-.065.163v2.05a.24.24 0 00.065.163.22.22 0 00.163.07.22.22 0 00.163-.07.22.22 0 00.07-.163v-.81h.337c.105.158.204.315.297.466.094.158.181.309.263.455.046.081.11.122.203.122.07 0 .123-.023.17-.07a.22.22 0 00.07-.163.245.245 0 00-.036-.122 7.478 7.478 0 00-.28-.46l-.005.005zm-22.424 3.641a9.836 9.836 0 00-.297-.443l.57-.908s.018-.041.024-.064c.006-.024.012-.041.012-.059a.224.224 0 00-.07-.169.22.22 0 00-.17-.064c-.086 0-.15.041-.197.123l-.56.92h-.331v-.81a.212.212 0 00-.07-.163.22.22 0 00-.163-.07.212.212 0 00-.163.07.215.215 0 00-.064.163v2.05a.24.24 0 00.064.164.22.22 0 00.163.07.22.22 0 00.163-.07.22.22 0 00.07-.163v-.81h.338c.104.157.203.314.297.466.093.157.18.309.262.454.046.082.11.123.204.123.07 0 .122-.024.168-.07a.22.22 0 00.07-.163.245.245 0 00-.035-.123 7.457 7.457 0 00-.28-.46l-.005.006zm21.637-1.707a.22.22 0 00-.162.07.22.22 0 00-.07.163v.193l-.932 1.042v-1.235a.212.212 0 00-.07-.163.22.22 0 00-.163-.07.212.212 0 00-.163.07.215.215 0 00-.064.163v2.05a.24.24 0 00.064.164.22.22 0 00.163.07.211.211 0 00.163-.07.22.22 0 00.07-.163v-.193l.932-1.042v1.235a.22.22 0 00.07.163.22.22 0 00.163.07.211.211 0 00.163-.07.22.22 0 00.07-.163v-2.05a.212.212 0 00-.07-.164.22.22 0 00-.163-.07zM35.08 36.9a.211.211 0 00.164-.069.22.22 0 00.07-.163v-.192l.932-1.043v1.235a.22.22 0 00.07.163.22.22 0 00.163.07.211.211 0 00.163-.07.22.22 0 00.07-.163v-2.05a.211.211 0 00-.07-.163.22.22 0 00-.163-.07.22.22 0 00-.163.07.22.22 0 00-.07.163v.192l-.932 1.042v-1.234a.211.211 0 00-.07-.163.22.22 0 00-.163-.07.211.211 0 00-.163.07.215.215 0 00-.065.163v2.05a.24.24 0 00.065.163.22.22 0 00.163.07zm-7.175 0a.212.212 0 00.163-.069.22.22 0 00.07-.163v-.798h.873v.798a.22.22 0 00.07.163.22.22 0 00.163.07.212.212 0 00.164-.07.22.22 0 00.07-.163v-2.05a.211.211 0 00-.07-.163.22.22 0 00-.164-.07.22.22 0 00-.163.07.22.22 0 00-.07.163v.838h-.873v-.838a.211.211 0 00-.07-.163.22.22 0 00-.163-.07.212.212 0 00-.163.07.215.215 0 00-.064.163v2.05a.24.24 0 00.064.163.22.22 0 00.163.07zm18.871-1.304a14.91 14.91 0 00-.35-.972c-.04-.1-.087-.17-.145-.199a.367.367 0 00-.163-.046.326.326 0 00-.157.047c-.053.029-.1.093-.14.197a13.04 13.04 0 00-.63 1.998.287.287 0 000 .123.21.21 0 00.047.087c.024.023.047.04.082.058a.26.26 0 00.093.018.234.234 0 00.134-.047.244.244 0 00.087-.14c.012-.058.03-.122.041-.18.018-.059.03-.117.047-.175h.786c.018.058.035.116.047.175.011.058.029.122.04.18a.21.21 0 00.082.14c.04.03.087.04.14.04a.294.294 0 00.099-.017.262.262 0 00.081-.058.16.16 0 00.047-.087.216.216 0 000-.123 13.116 13.116 0 00-.274-1.025l.006.006zm-.944.35c.047-.146.094-.286.134-.425.047-.14.094-.274.146-.414a11.64 11.64 0 01.28.839h-.565.006zm-3.418.914a.577.577 0 00.256-.134c.058-.052.093-.11.093-.18a.173.173 0 00-.058-.14.194.194 0 00-.134-.053c-.023 0-.046 0-.07.012-.023.012-.046.018-.075.035a.404.404 0 01-.135.064.647.647 0 01-.157.018.483.483 0 01-.186-.035.306.306 0 01-.134-.111.55.55 0 01-.082-.204 1.499 1.499 0 01-.029-.309v-.355c0-.239.035-.408.11-.512a.384.384 0 01.333-.158.43.43 0 01.256.07c.03.018.058.03.076.041.017.012.04.012.07.012a.2.2 0 00.157-.064.218.218 0 00.053-.134.184.184 0 00-.024-.094.34.34 0 00-.076-.087.46.46 0 00-.104-.064.82.82 0 00-.129-.047c-.046-.011-.093-.023-.14-.029-.046-.005-.092-.011-.14-.011-.168 0-.308.029-.424.081a.708.708 0 00-.28.221c-.07.094-.122.21-.157.338a1.644 1.644 0 00-.047.425v.373c0 .157.018.303.047.437a.864.864 0 00.157.338.73.73 0 00.274.221.96.96 0 00.408.076c.04 0 .087 0 .134-.012a1.24 1.24 0 00.145-.029h.012zm-1.532-.052a.215.215 0 00.064-.157.236.236 0 00-.064-.158.215.215 0 00-.157-.064h-.85v-.57h.727c.058 0 .11-.024.152-.065a.211.211 0 000-.302.211.211 0 00-.152-.064h-.728v-.571h.804a.215.215 0 00.157-.064.225.225 0 000-.315c-.04-.047-.093-.064-.157-.064H39.63a.236.236 0 00-.158.064.215.215 0 00-.064.157v2.01a.218.218 0 00.221.221h1.096c.058 0 .11-.023.157-.064v.006zm-4.194 1.788a.384.384 0 01.332-.157.43.43 0 01.257.07c.029.017.058.029.075.04.018.012.041.012.07.012.07 0 .123-.023.158-.064a.205.205 0 00.052-.134.184.184 0 00-.023-.093.338.338 0 00-.076-.087.457.457 0 00-.105-.064.834.834 0 00-.128-.047 1.399 1.399 0 00-.14-.03 1.3 1.3 0 00-.14-.01c-.169 0-.308.028-.425.08a.706.706 0 00-.28.222c-.07.093-.122.21-.157.338a1.64 1.64 0 00-.046.425v.373c0 .157.017.303.046.437a.861.861 0 00.158.338.73.73 0 00.273.22c.111.053.25.077.408.077.04 0 .087 0 .134-.012.047-.006.1-.017.146-.03a.574.574 0 00.256-.133c.058-.053.093-.11.093-.18a.173.173 0 00-.058-.14.194.194 0 00-.134-.053c-.023 0-.047 0-.07.012-.023.011-.047.017-.076.035a.404.404 0 01-.134.064.648.648 0 01-.157.017.483.483 0 01-.186-.035.306.306 0 01-.134-.11.551.551 0 01-.082-.204 1.5 1.5 0 01-.029-.309v-.355c0-.239.035-.408.11-.513h.012zm-1.182-.291a.704.704 0 00-.273-.204.973.973 0 00-.414-.076.972.972 0 00-.414.076.822.822 0 00-.273.204.761.761 0 00-.146.291 1.31 1.31 0 00-.046.338v.699c0 .116.017.227.046.338a.723.723 0 00.42.495c.11.052.25.075.413.075a.973.973 0 00.413-.075.822.822 0 00.274-.204.762.762 0 00.146-.291c.029-.11.046-.222.046-.338v-.699a1.31 1.31 0 00-.046-.338.854.854 0 00-.146-.291zm-.273 1.328c0 .07-.006.14-.018.198a.33.33 0 01-.07.151.241.241 0 01-.128.1.502.502 0 01-.198.034c-.157 0-.262-.046-.326-.134a.399.399 0 01-.064-.151 1.049 1.049 0 01-.018-.198v-.705c0-.07.006-.14.018-.198a.399.399 0 01.064-.151c.064-.088.174-.134.326-.134.081 0 .146.011.198.035a.36.36 0 01.128.099c.03.04.052.093.07.151.012.058.017.128.017.198v.705zm3.284-1.037a.384.384 0 01.332-.157.43.43 0 01.256.07c.03.017.059.029.076.04.018.012.04.012.07.012a.197.197 0 00.21-.198.184.184 0 00-.024-.093.338.338 0 00-.075-.087.459.459 0 00-.105-.064.836.836 0 00-.128-.047 1.461 1.461 0 00-.14-.03c-.047-.005-.093-.01-.14-.01a1.03 1.03 0 00-.425.08.707.707 0 00-.28.222c-.07.093-.122.21-.157.338a1.644 1.644 0 00-.047.425v.373c0 .157.018.303.047.437a.864.864 0 00.157.338c.07.093.163.168.274.22a.95.95 0 00.408.077c.04 0 .087 0 .134-.012.046-.006.099-.017.145-.03a.573.573 0 00.257-.133c.058-.053.093-.11.093-.18a.173.173 0 00-.058-.14.194.194 0 00-.134-.053c-.024 0-.047 0-.07.012-.024.011-.047.017-.076.035a.405.405 0 01-.134.064.647.647 0 01-.157.017.483.483 0 01-.187-.035.306.306 0 01-.134-.11.551.551 0 01-.081-.204 1.5 1.5 0 01-.03-.309v-.355c0-.239.036-.408.111-.513h.012zm-.076-2.679v.757c0 .064.024.122.07.163a.233.233 0 00.332 0 .22.22 0 00.07-.163v-2.05a.22.22 0 00-.07-.163.224.224 0 00-.169-.07.203.203 0 00-.163.07.22.22 0 00-.07.163v.885c-.064.023-.14.047-.233.064-.087.017-.18.03-.28.03a.407.407 0 01-.156-.024.243.243 0 01-.1-.064.294.294 0 01-.052-.105.508.508 0 01-.017-.14v-.64a.22.22 0 00-.07-.164.224.224 0 00-.17-.07.211.211 0 00-.162.07.22.22 0 00-.07.163v.659c0 .244.064.43.192.553.128.122.303.18.53.18.093 0 .186-.005.285-.023a2.75 2.75 0 00.297-.07l.006-.011zm13.997-6.919c.442 0 .797.355.797.798a.795.795 0 01-.797.798.795.795 0 01-.798-.798c0-.443.355-.798.798-.798zm0 .175a.607.607 0 00-.612.623c0 .355.268.623.612.623a.607.607 0 00.611-.623.607.607 0 00-.611-.623zm-.094.716v.198c0 .047 0 .064-.011.082-.012.029-.041.04-.082.04-.035 0-.064-.017-.075-.04-.012-.024-.012-.035-.012-.082v-.582s0-.058.029-.088c.03-.029.058-.029.087-.029h.216c.169 0 .268.117.268.257 0 .116-.07.186-.146.215l.11.186c.024.035.03.053.03.076s-.012.053-.047.076c-.017.011-.029.011-.046.011-.041 0-.064-.029-.088-.075l-.145-.245h-.088zm0-.343v.203h.123c.064 0 .11-.034.11-.104 0-.064-.046-.1-.11-.1h-.123zm-.494 12.649c-2.11 6.349-7.963 10.59-14.69 10.59-6.727 0-12.587-4.241-14.69-10.59h-.226a15.848 15.848 0 005.492 7.665 15.57 15.57 0 009.424 3.145 15.56 15.56 0 009.424-3.145 15.827 15.827 0 005.492-7.665h-.227z" fill="#fff"/><path d="M58.815 32.545H15.47c-.746 0-1.351.611-1.351 1.357v7.13c0 .745.605 1.35 1.35 1.35h43.346c.746 0 1.352-.611 1.352-1.357v-7.129c0-.745-.606-1.351-1.352-1.351zm-9.01 8.247a.82.82 0 01-.821.822H15.732a.82.82 0 01-.821-.822V34.13a.82.82 0 01.821-.821h33.252a.82.82 0 01.82.821v6.663zm9.575 0a.82.82 0 01-.821.822h-7.112a.82.82 0 01-.82-.822v-6.669a.82.82 0 01.82-.82h7.112a.82.82 0 01.821.82v6.67z" fill="#fff"/><path fill-rule="evenodd" clip-rule="evenodd" d="M58.611 33.309H51.39a.768.768 0 00-.769.768v6.768c0 .426.344.77.769.77h7.222a.768.768 0 00.769-.77v-6.768a.768.768 0 00-.769-.768z" stroke="#706F6F" stroke-width=".75" stroke-miterlimit="10"/></svg>