<svg width="75" height="75" viewBox="0 0 75 75" fill="none" xmlns="http://www.w3.org/2000/svg"><path d="M37.07 0L0 37.07l37.07 37.07 37.071-37.07L37.071 0z" fill="#fff"/><path d="M50.156 38.353h9.034v.123a2.738 2.738 0 01-2.738 2.737h-3.558a2.738 2.738 0 01-2.738-2.737v-.123z" fill="#E42313"/><path d="M52.888 32.64h3.559a2.738 2.738 0 012.737 2.738v.122H50.15v-.122a2.738 2.738 0 012.738-2.737z" fill="#fff"/><path d="M59.19 35.5h-9.034v2.854h9.034V35.5z" fill="#005CA9"/><path d="M29.923 30.845a9.162 9.162 0 0114.63 1.223c.082-.011.164-.023.245-.023A9.382 9.382 0 0029.754 30.7a.111.111 0 00.011.157c.047.04.117.035.158-.012zm14.619 10.97A9.16 9.16 0 0136.79 46.1c-3.256 0-6.116-1.706-7.747-4.27a1.741 1.741 0 01-.244.03 9.393 9.393 0 007.985 4.462 9.39 9.39 0 008.014-4.503c-.087.006-.174 0-.262 0l.006-.005z" fill="#0F0F0F"/><path d="M50.75 29.833a15.597 15.597 0 00-13.96-8.561c-6.908 0-12.785 4.496-14.858 10.716a.97.97 0 01.227.018c2.062-6.104 7.84-10.513 14.63-10.513a15.375 15.375 0 0113.77 8.445c.029.053.093.076.145.047.053-.03.076-.093.047-.146v-.006zm-17.135 6.471c.04.04.093.064.151.064a.215.215 0 00.158-.064.211.211 0 00.064-.152v-2.085a.212.212 0 00-.064-.151.215.215 0 00-.157-.064.27.27 0 00-.123.023.194.194 0 00-.093.099l-.658 1.34-.653-1.323a.247.247 0 00-.087-.11.311.311 0 00-.14-.03.23.23 0 00-.157.059.215.215 0 00-.064.157v2.085c0 .059.023.11.064.152a.211.211 0 00.303 0 .211.211 0 00.064-.152v-1.275l.454.949a.236.236 0 00.093.105.225.225 0 00.24 0 .332.332 0 00.093-.105l.454-.955v1.281c0 .059.023.11.064.152h-.006zm-5.347 1.286a.195.195 0 00-.157-.065H26.62a.215.215 0 00-.158.065.202.202 0 00-.064.157c0 .058.024.116.064.157.047.04.1.064.158.064h.512v1.811a.22.22 0 00.07.163.22.22 0 00.163.07.22.22 0 00.163-.07.22.22 0 00.07-.163v-1.811h.513a.215.215 0 00.157-.064.215.215 0 00.064-.157.215.215 0 00-.064-.157zm1.596 1.114a14.908 14.908 0 00-.35-.973c-.04-.1-.086-.169-.145-.198a.367.367 0 00-.163-.047.326.326 0 00-.157.047c-.052.029-.099.093-.14.198a13.043 13.043 0 00-.629 1.998.286.286 0 000 .122.21.21 0 00.047.087.283.283 0 00.081.059c.03.011.064.017.093.017a.276.276 0 00.134-.04.248.248 0 00.088-.14c.012-.059.029-.123.04-.181.012-.058.03-.117.047-.175h.787c.017.058.034.117.046.175.017.058.03.122.04.18a.214.214 0 00.082.14c.041.03.088.041.14.041a.297.297 0 00.1-.017.194.194 0 00.08-.059.16.16 0 00.047-.087.217.217 0 000-.122 11.001 11.001 0 00-.273-1.025h.005zm-.943.35c.046-.147.093-.286.134-.426.046-.14.093-.274.145-.414a11.512 11.512 0 01.28.84h-.565.006zm2.219-4.923a.705.705 0 00-.274-.204.973.973 0 00-.413-.075.972.972 0 00-.414.075.823.823 0 00-.274.204.764.764 0 00-.145.291c-.03.111-.047.222-.047.338v.7c0 .116.018.226.047.337a.724.724 0 00.42.495c.11.052.25.076.413.076a.973.973 0 00.413-.076.822.822 0 00.274-.204.761.761 0 00.146-.291c.029-.11.046-.221.046-.338v-.699c0-.116-.017-.227-.046-.338a.855.855 0 00-.146-.29zm-.274 1.328c0 .07-.006.14-.017.198a.332.332 0 01-.07.152.241.241 0 01-.128.099.502.502 0 01-.198.035c-.157 0-.262-.047-.326-.134a.397.397 0 01-.064-.152 1.004 1.004 0 01-.018-.198v-.705c0-.07.006-.14.017-.198a.397.397 0 01.065-.151c.064-.087.174-.134.326-.134.081 0 .145.012.198.035a.36.36 0 01.128.099c.029.04.052.093.07.151.011.059.017.123.017.198v.705zm2.184 2.284a.788.788 0 00-.233-.163.962.962 0 00-.367-.064h-.635a.212.212 0 00-.163.07.22.22 0 00-.07.163v2.02c0 .065.023.123.07.164.046.046.099.07.163.07a.212.212 0 00.163-.07.22.22 0 00.07-.163v-.705h.425c.117 0 .227-.018.32-.047a.611.611 0 00.379-.355.704.704 0 00.047-.28v-.174a.752.752 0 00-.041-.25.566.566 0 00-.128-.222v.006zm-.297.64c0 .07-.023.129-.064.181-.047.052-.123.082-.24.082h-.407v-.682h.361c.07 0 .128.006.17.023a.294.294 0 01.104.059.18.18 0 01.053.081c.011.03.017.064.017.1v.157h.006zm-6.093-2.295a.761.761 0 00.146-.291c.03-.11.047-.221.047-.338v-.699a1.31 1.31 0 00-.047-.338.855.855 0 00-.146-.29.705.705 0 00-.273-.205.973.973 0 00-.414-.075.972.972 0 00-.413.075.823.823 0 00-.274.204.762.762 0 00-.146.291 1.31 1.31 0 00-.046.338v.7c0 .116.017.226.046.337a.722.722 0 00.42.495c.11.052.25.076.413.076a.973.973 0 00.414-.076.82.82 0 00.273-.204zm-.273-.623c0 .07-.006.14-.018.198a.33.33 0 01-.07.151.241.241 0 01-.128.1.502.502 0 01-.198.034c-.157 0-.262-.046-.326-.134a.399.399 0 01-.064-.151 1.006 1.006 0 01-.017-.198v-.705c0-.07.005-.14.017-.198a.399.399 0 01.064-.151c.064-.088.169-.134.326-.134.082 0 .146.011.198.035a.36.36 0 01.128.099.48.48 0 01.07.151.976.976 0 01.018.198v.705zm-5.358-1.13h.512v1.812a.22.22 0 00.07.163.22.22 0 00.163.07.22.22 0 00.164-.07.22.22 0 00.07-.163v-1.812h.512a.215.215 0 00.157-.064.215.215 0 00.064-.157.215.215 0 00-.064-.157.195.195 0 00-.157-.064h-1.491a.215.215 0 00-.157.064.203.203 0 00-.064.157c0 .064.023.116.064.157.046.04.099.064.157.064zm-4.165-.385a.195.195 0 00-.157-.063h-1.083a.236.236 0 00-.158.064.225.225 0 00-.064.157v2.033c0 .064.024.122.064.163a.215.215 0 00.164.064.229.229 0 00.232-.227v-1.812h.84c.057 0 .11-.023.156-.064a.215.215 0 00.064-.157.236.236 0 00-.064-.157h.006zm31.732 0a.224.224 0 00-.17-.07h-.628c-.262 0-.46.06-.588.176-.129.116-.193.285-.193.506v.134c0 .088.012.163.041.233.023.07.064.134.11.192a.579.579 0 00.239.163 4.695 4.695 0 00-.209.373c-.064.128-.128.25-.186.379a.191.191 0 00-.024.099c0 .07.024.122.076.163a.27.27 0 00.169.064.24.24 0 00.11-.03c.035-.017.065-.057.094-.11.064-.14.134-.28.21-.425.075-.14.157-.28.238-.42h.315v.758a.22.22 0 00.07.163.233.233 0 00.332 0 .22.22 0 00.07-.163v-2.021a.233.233 0 00-.07-.17l-.006.007zm-.396 1.008h-.379c-.046 0-.087 0-.128-.011a.287.287 0 01-.105-.047.225.225 0 01-.105-.204v-.134c0-.075.03-.14.082-.186.052-.047.134-.064.245-.064h.396v.64l-.006.006zm-23.467-.209v-.175a.752.752 0 00-.04-.25.565.565 0 00-.129-.222.789.789 0 00-.233-.163.963.963 0 00-.366-.064h-.635a.211.211 0 00-.163.07.22.22 0 00-.07.163v2.021a.21.21 0 00.07.163.22.22 0 00.163.07.211.211 0 00.163-.07.245.245 0 00.07-.163v-.705h.425c.116 0 .227-.017.32-.046a.614.614 0 00.379-.355.706.706 0 00.046-.28v.006zm-.46 0a.28.28 0 01-.064.18c-.046.053-.122.082-.239.082h-.407v-.682h.36c.07 0 .129.006.17.024a.292.292 0 01.105.058.179.179 0 01.052.081c.012.03.017.065.017.1v.157h.006zm-3.751 1.269a.173.173 0 00-.058-.14.195.195 0 00-.134-.052c-.023 0-.047 0-.07.012-.023.011-.047.017-.076.035a.407.407 0 01-.134.064.652.652 0 01-.157.017.482.482 0 01-.186-.035.305.305 0 01-.134-.11.551.551 0 01-.082-.204 1.499 1.499 0 01-.029-.309v-.355c0-.239.035-.408.11-.513a.384.384 0 01.333-.157.43.43 0 01.256.07c.03.017.058.029.076.04.017.012.04.012.07.012.07 0 .122-.023.157-.064a.217.217 0 00.052-.134.185.185 0 00-.023-.093.34.34 0 00-.076-.087.46.46 0 00-.105-.064.771.771 0 00-.128-.047 1.341 1.341 0 00-.14-.03 1.3 1.3 0 00-.14-.01c-.168 0-.308.028-.424.08a.708.708 0 00-.28.222c-.07.093-.122.21-.157.338a1.642 1.642 0 00-.047.425v.373c0 .157.018.303.047.437a.863.863 0 00.157.338c.07.093.163.169.274.22.11.053.25.077.407.077.041 0 .088 0 .134-.012.047-.006.1-.018.146-.03a.574.574 0 00.256-.133c.058-.052.093-.11.093-.18h.012zm-2.062-.955a14.853 14.853 0 00-.35-.973c-.04-.099-.087-.169-.145-.198a.367.367 0 00-.163-.046.326.326 0 00-.157.046c-.053.03-.1.093-.14.198a13.04 13.04 0 00-.63 1.998.285.285 0 000 .122.21.21 0 00.047.088c.024.023.047.04.082.058a.233.233 0 00.227-.03.238.238 0 00.087-.139c.012-.058.03-.122.041-.18.012-.059.03-.117.047-.175h.786c.018.058.035.116.047.175.017.058.029.122.04.18a.21.21 0 00.082.14.23.23 0 00.14.04.295.295 0 00.099-.017.262.262 0 00.081-.058.16.16 0 00.047-.087.216.216 0 000-.123 11.001 11.001 0 00-.274-1.025l.006.006zm-.943.35c.046-.146.093-.286.134-.426.046-.14.093-.273.145-.413.053.14.1.273.146.413.046.14.093.28.134.425h-.565.006zm8.573 2.33a.788.788 0 00-.233-.163.962.962 0 00-.367-.064h-.635a.211.211 0 00-.163.07.22.22 0 00-.07.163v2.02c0 .065.023.123.07.164a.22.22 0 00.163.07.212.212 0 00.163-.07.22.22 0 00.07-.163v-.705h.425c.117 0 .227-.018.32-.047a.614.614 0 00.379-.355.705.705 0 00.047-.28v-.174a.752.752 0 00-.041-.25.565.565 0 00-.128-.222v.006zm-.297.64c0 .07-.023.129-.064.181-.047.052-.123.082-.24.082h-.407v-.682h.361c.07 0 .128.006.17.023a.294.294 0 01.104.059.179.179 0 01.053.081c.005.03.017.064.017.1v.157h.006zm-1.8.321a14.85 14.85 0 00-.35-.973c-.04-.1-.087-.169-.145-.198a.367.367 0 00-.163-.047.326.326 0 00-.157.047c-.053.029-.1.093-.14.198a13.043 13.043 0 00-.629 1.998.286.286 0 000 .122.21.21 0 00.047.087.283.283 0 00.081.059c.03.011.064.017.093.017a.277.277 0 00.134-.04.248.248 0 00.088-.14c.011-.059.029-.123.04-.181.012-.058.03-.117.047-.175h.786c.018.058.035.117.047.175.018.058.03.122.04.18a.21.21 0 00.082.14c.041.03.088.041.14.041a.296.296 0 00.1-.017.194.194 0 00.08-.059.16.16 0 00.047-.087.217.217 0 000-.122 11.001 11.001 0 00-.273-1.025h.005zm-.943.35c.046-.147.093-.286.134-.426.046-.14.093-.274.145-.414.053.14.1.274.146.414.046.14.093.28.134.425h-.565.006zm18.061-1.562a.22.22 0 00-.163.07.22.22 0 00-.07.163v.192l-.932 1.043v-1.235a.212.212 0 00-.07-.163.22.22 0 00-.162-.07.212.212 0 00-.164.07.215.215 0 00-.064.163v2.05c0 .064.024.117.064.163a.22.22 0 00.164.07.212.212 0 00.163-.07.22.22 0 00.07-.163v-.192l.931-1.042v1.234a.22.22 0 00.07.163.22.22 0 00.163.07.211.211 0 00.163-.07.22.22 0 00.07-.163v-2.05a.211.211 0 00-.07-.163.22.22 0 00-.163-.07zm3.158-1.934a9.752 9.752 0 00-.298-.443l.571-.908s.018-.04.023-.064c.006-.023.012-.041.012-.059a.224.224 0 00-.07-.168.22.22 0 00-.169-.064c-.087 0-.151.04-.198.122l-.559.92h-.332v-.81a.211.211 0 00-.07-.163.22.22 0 00-.163-.07.211.211 0 00-.163.07.215.215 0 00-.064.163v2.05a.24.24 0 00.064.164.22.22 0 00.163.07.22.22 0 00.163-.07.22.22 0 00.07-.163v-.81h.338c.105.157.204.315.297.466.093.157.18.309.262.454.047.082.11.123.204.123.07 0 .122-.024.169-.07a.22.22 0 00.07-.163.245.245 0 00-.035-.123 7.478 7.478 0 00-.28-.46l-.005.006zm-22.425 3.641a9.752 9.752 0 00-.297-.443l.57-.909s.018-.04.024-.064c.006-.023.011-.04.011-.058a.224.224 0 00-.07-.169.22.22 0 00-.168-.064c-.088 0-.152.041-.199.123l-.559.92h-.332v-.81a.211.211 0 00-.07-.163.22.22 0 00-.163-.07.211.211 0 00-.163.07.215.215 0 00-.064.163v2.05c0 .064.024.117.064.163a.22.22 0 00.163.07.22.22 0 00.163-.07.22.22 0 00.07-.163v-.81h.338c.105.158.204.315.297.467.093.157.18.308.262.454a.218.218 0 00.204.122c.07 0 .122-.023.17-.07a.22.22 0 00.069-.163.245.245 0 00-.035-.122 7.508 7.508 0 00-.28-.46l-.005.006zm21.637-1.707a.22.22 0 00-.163.07.22.22 0 00-.07.163v.192l-.931 1.043v-1.235a.211.211 0 00-.07-.163.22.22 0 00-.163-.07.212.212 0 00-.164.07.215.215 0 00-.064.163v2.05c0 .064.024.117.064.163a.22.22 0 00.164.07.212.212 0 00.163-.07.22.22 0 00.07-.163v-.192l.931-1.042v1.234a.22.22 0 00.07.163.22.22 0 00.163.07.211.211 0 00.163-.07.22.22 0 00.07-.163v-2.05a.211.211 0 00-.07-.163.22.22 0 00-.163-.07zm-8.759-1.124a.211.211 0 00.163-.07.22.22 0 00.07-.163v-.192l.932-1.043v1.235a.22.22 0 00.07.163.22.22 0 00.163.07.211.211 0 00.163-.07.22.22 0 00.07-.163v-2.05a.211.211 0 00-.07-.163.22.22 0 00-.163-.07.22.22 0 00-.163.07.22.22 0 00-.07.163v.192l-.932 1.042v-1.235a.211.211 0 00-.07-.163.22.22 0 00-.163-.07.211.211 0 00-.163.07.215.215 0 00-.064.163v2.05a.24.24 0 00.064.164.22.22 0 00.163.07zm-7.175 0a.212.212 0 00.163-.07.22.22 0 00.07-.163v-.798h.873v.798a.22.22 0 00.07.163.22.22 0 00.163.07.212.212 0 00.163-.07.22.22 0 00.07-.163v-2.05a.211.211 0 00-.07-.163.22.22 0 00-.163-.07.22.22 0 00-.163.07.22.22 0 00-.07.163v.838h-.873v-.839a.211.211 0 00-.07-.163.22.22 0 00-.163-.07.212.212 0 00-.164.07.215.215 0 00-.064.163v2.05a.24.24 0 00.064.164.22.22 0 00.164.07zm18.87-1.305a14.97 14.97 0 00-.35-.973c-.04-.099-.087-.169-.145-.198a.368.368 0 00-.163-.046.326.326 0 00-.157.046c-.053.03-.1.093-.14.198a13.04 13.04 0 00-.63 1.998.287.287 0 000 .122.21.21 0 00.047.088.29.29 0 00.082.058.234.234 0 00.227-.03.244.244 0 00.088-.139c.011-.058.029-.122.04-.18.018-.059.03-.117.047-.175h.786c.018.058.035.116.047.175.012.058.029.122.04.18.012.064.041.11.082.14.04.029.088.04.14.04a.294.294 0 00.099-.017.26.26 0 00.081-.058.161.161 0 00.047-.087.218.218 0 000-.123 13.16 13.16 0 00-.274-1.025l.006.006zm-.943.35c.046-.146.093-.286.134-.426.046-.14.093-.273.145-.413a11.64 11.64 0 01.28.839h-.565.006zm-3.42.914a.578.578 0 00.257-.134c.058-.052.093-.11.093-.18a.172.172 0 00-.058-.14.194.194 0 00-.134-.053c-.024 0-.047 0-.07.012-.024.011-.047.017-.076.035a.404.404 0 01-.134.064.646.646 0 01-.157.017.483.483 0 01-.186-.035.306.306 0 01-.134-.11.553.553 0 01-.082-.204 1.499 1.499 0 01-.03-.309v-.355c0-.239.036-.408.111-.513a.384.384 0 01.332-.157.43.43 0 01.257.07c.029.017.058.03.075.04.018.012.041.012.07.012.07 0 .123-.023.158-.064a.218.218 0 00.052-.134.184.184 0 00-.023-.093.34.34 0 00-.076-.087.459.459 0 00-.105-.064.771.771 0 00-.128-.047 1.178 1.178 0 00-.28-.04c-.168 0-.308.029-.425.081a.707.707 0 00-.28.221c-.07.094-.122.21-.157.338a1.643 1.643 0 00-.046.425v.373c0 .157.017.303.047.437a.865.865 0 00.157.338c.07.093.163.169.273.221a.971.971 0 00.408.076c.041 0 .088 0 .134-.012.047-.006.1-.017.146-.029h.011zm-1.531-.052a.215.215 0 00.064-.158.236.236 0 00-.064-.157.215.215 0 00-.157-.064h-.85v-.57h.728c.058 0 .11-.024.151-.065a.211.211 0 000-.303.211.211 0 00-.151-.064h-.728v-.57h.803a.215.215 0 00.158-.065.225.225 0 000-.315c-.041-.046-.093-.063-.157-.063h-1.05a.236.236 0 00-.157.064.215.215 0 00-.064.157v2.01c0 .064.023.116.064.157.04.04.093.064.157.064h1.095c.058 0 .11-.023.157-.064v.006zm-4.193 1.788a.384.384 0 01.331-.157.43.43 0 01.257.07c.029.017.058.029.075.04.018.012.041.012.07.012a.197.197 0 00.21-.198.184.184 0 00-.023-.093.338.338 0 00-.076-.087.457.457 0 00-.105-.065.834.834 0 00-.128-.046 1.399 1.399 0 00-.14-.03c-.046-.005-.093-.011-.14-.011-.168 0-.308.03-.425.082a.707.707 0 00-.28.22c-.07.094-.122.21-.157.339a1.644 1.644 0 00-.046.425v.373c0 .157.017.303.047.437a.863.863 0 00.157.337c.07.093.163.17.273.222a.972.972 0 00.408.075c.041 0 .088 0 .134-.011.047-.006.1-.018.146-.03a.574.574 0 00.256-.133c.058-.053.093-.111.093-.18a.173.173 0 00-.058-.14.194.194 0 00-.134-.053c-.023 0-.047 0-.07.011-.023.012-.046.018-.076.035a.404.404 0 01-.134.065.647.647 0 01-.157.017.483.483 0 01-.186-.035.306.306 0 01-.134-.11.551.551 0 01-.082-.204 1.506 1.506 0 01-.029-.31v-.354c0-.24.035-.408.11-.513h.013zm-1.183-.291a.703.703 0 00-.274-.204.972.972 0 00-.413-.076.972.972 0 00-.414.076.821.821 0 00-.274.204.761.761 0 00-.145.291c-.03.11-.047.221-.047.338v.699c0 .116.018.227.047.337a.723.723 0 00.42.496c.11.052.25.075.413.075a.972.972 0 00.413-.075.82.82 0 00.274-.204.764.764 0 00.145-.291c.03-.111.047-.222.047-.338v-.7c0-.116-.017-.226-.047-.337a.856.856 0 00-.145-.291zm-.274 1.328c0 .07-.006.14-.017.198a.33.33 0 01-.07.151.241.241 0 01-.128.1.502.502 0 01-.198.034c-.158 0-.263-.046-.327-.134a.399.399 0 01-.064-.151 1.05 1.05 0 01-.017-.198v-.705c0-.07.006-.14.017-.198a.399.399 0 01.064-.152c.064-.087.175-.134.327-.134.081 0 .145.012.198.035a.36.36 0 01.128.1c.029.04.052.093.07.15.011.06.017.13.017.199v.705zm3.286-1.037a.384.384 0 01.332-.157.43.43 0 01.256.07c.029.017.058.029.076.04.017.012.04.012.07.012a.197.197 0 00.21-.198.184.184 0 00-.024-.093.338.338 0 00-.076-.087.459.459 0 00-.105-.065.836.836 0 00-.128-.046 1.341 1.341 0 00-.14-.03c-.046-.005-.093-.011-.14-.011-.168 0-.308.03-.425.082a.707.707 0 00-.28.22c-.069.094-.121.21-.156.339a1.644 1.644 0 00-.047.425v.373c0 .157.017.303.047.437a.864.864 0 00.157.337.73.73 0 00.274.222c.11.052.25.075.407.075.041 0 .088 0 .134-.011.047-.006.1-.018.146-.03a.573.573 0 00.256-.133c.058-.053.093-.111.093-.18a.173.173 0 00-.058-.14.194.194 0 00-.134-.053c-.023 0-.046 0-.07.011-.023.012-.046.018-.075.035a.405.405 0 01-.134.065.647.647 0 01-.158.017.483.483 0 01-.186-.035.306.306 0 01-.134-.11.551.551 0 01-.081-.204 1.5 1.5 0 01-.03-.31v-.354c0-.24.035-.408.111-.513h.012zm-.076-2.68v.758a.21.21 0 00.07.163.233.233 0 00.332 0 .22.22 0 00.07-.163v-2.05a.22.22 0 00-.07-.164.224.224 0 00-.17-.07.203.203 0 00-.162.07.22.22 0 00-.07.163v.886a1.548 1.548 0 01-.513.093.407.407 0 01-.157-.023.243.243 0 01-.099-.065.294.294 0 01-.052-.104.508.508 0 01-.018-.14v-.64a.22.22 0 00-.07-.164.224.224 0 00-.169-.07.211.211 0 00-.163.07.22.22 0 00-.07.163v.658c0 .245.065.431.193.554.128.122.302.18.53.18.093 0 .186-.006.285-.023a2.75 2.75 0 00.297-.07l.006-.012zm13.995-6.918c.443 0 .798.355.798.798a.795.795 0 01-.798.798.795.795 0 01-.798-.798c0-.443.356-.798.798-.798zm0 .175a.607.607 0 00-.611.623c0 .355.268.623.611.623a.607.607 0 00.612-.623.607.607 0 00-.612-.623zm-.093.716v.198c0 .047 0 .064-.012.082-.011.029-.04.04-.081.04-.035 0-.064-.017-.076-.04-.012-.024-.012-.035-.012-.082v-.582s0-.059.03-.088c.029-.029.058-.029.087-.029h.215c.17 0 .268.117.268.256 0 .117-.07.187-.145.216l.11.186c.024.035.03.053.03.076s-.012.052-.047.076c-.017.011-.03.011-.047.011-.04 0-.064-.029-.087-.075l-.146-.245h-.087zm0-.344v.204h.122c.064 0 .111-.035.111-.105 0-.064-.047-.099-.11-.099h-.123zm-.495 12.65c-2.108 6.349-7.962 10.589-14.689 10.589s-12.587-4.24-14.69-10.589h-.226a15.848 15.848 0 005.492 7.665 15.57 15.57 0 009.424 3.145 15.56 15.56 0 009.424-3.145 15.827 15.827 0 005.492-7.665h-.227z" fill="#0F0F0F"/><path d="M58.456 32.012H15.111c-.745 0-1.351.611-1.351 1.357v7.129c0 .745.606 1.351 1.351 1.351h43.345c.746 0 1.352-.611 1.352-1.357v-7.129c0-.745-.606-1.351-1.352-1.351zm-9.01 8.247a.82.82 0 01-.821.821H15.373a.82.82 0 01-.821-.82v-6.664a.82.82 0 01.821-.821h33.252a.82.82 0 01.821.821v6.663zm9.575 0a.82.82 0 01-.82.821h-7.113a.82.82 0 01-.82-.82v-6.67a.82.82 0 01.82-.821H58.2a.82.82 0 01.821.821v6.67z" fill="#0F0F0F"/><path fill-rule="evenodd" clip-rule="evenodd" d="M58.253 32.775H51.03a.768.768 0 00-.77.77v6.767c0 .425.344.769.77.769h7.222a.768.768 0 00.769-.769v-6.768a.768.768 0 00-.77-.769z" stroke="#706F6F" stroke-width=".75" stroke-miterlimit="10"/></svg>