<svg width="354" height="391" viewBox="0 0 354 391" fill="none" xmlns="http://www.w3.org/2000/svg"><path d="M16.686 146.237h6.582c5.91 0 10.863-2.976 14.838-8.907 3.976-5.931 5.975-14.078 5.975-24.462v-4.802c0-11.883-1.912-20.421-5.757-25.657-3.846-5.236-8.864-7.843-15.077-7.843H.457v113.079h16.229v-41.408zm0-53.443h3.954c5.257 0 7.886 5.083 7.886 15.272v4.519c0 10.276-2.629 15.403-7.886 15.403h-3.954V92.794z" fill="#E42313"/><path d="M66.132 162.618c0 2.911-.52 5.149-1.542 6.713-1.021 1.564-2.194 2.324-3.498 2.324-1.455 0-2.759-.803-3.889-2.411s-1.694-4.15-1.694-7.626v-9.32H43.234v9.32c0 8.299 1.543 14.969 4.65 20.009 3.106 5.04 8.125 7.56 15.077 7.56 11.101 0 18.01-9.428 20.704-28.264l10.471-73.648c2.281-13.295 6.235-31.197 12.405-44.362 11.058-23.615 25.744-27.873 36.824-23.42 13.752 5.54 8.929 28.308-7.235 21.487 0 0 1.652 10.688 13.839 12.991 12.753 2.39 26.722-9.711 21.704-29.35 3.367.434 7.234.478 11.275-.457 0 0-5.106-24.267-41.495-24.05-7.343.044-13.665 1.565-19.074 3.976-7.843 3.237-15.121 9.016-20.509 17.728-.13.217-.261.456-.413.673-5.062 7.626-7.582 14.99-8.516 18.14-4.28 11.559-6.952 23.355-8.516 31.915h-.065l-.391 2.672a207.473 207.473 0 00-1.304 8.755L74.02 141.85 61.353 74.545H44.038L65.85 157.23c.217.847.326 2.629.326 5.366l-.044.022z" fill="#E42313"/><path d="M140.756 121.342V103.81c0-10.167-1.717-17.858-5.149-23.05-3.433-5.192-8.951-7.778-16.555-7.778-7.517 0-13.122 2.738-16.815 8.19-3.693 5.475-5.54 13.014-5.54 22.616v54.574c0 9.602 1.847 17.162 5.54 22.615 3.693 5.475 9.298 8.191 16.815 8.191 14.904 0 22.355-10.276 22.355-30.828v-17.532h-14.251v17.532c0 5.366-.522 9.211-1.586 11.514-1.065 2.303-2.911 3.454-5.54 3.454-4.758 0-7.126-4.996-7.126-14.99v-54.573c0-9.994 2.368-14.99 7.126-14.99 2.629 0 4.475 1.151 5.54 3.454 1.064 2.303 1.586 6.148 1.586 11.514v17.532h13.578l.022.087zm26.223-48.339c-7.517 0-13.122 2.737-16.816 8.19-3.693 5.475-5.539 13.014-5.539 22.616v54.573c0 9.603 1.846 17.163 5.539 22.616 3.694 5.475 9.299 8.19 16.816 8.19 14.903 0 22.355-10.276 22.355-30.828v-17.532h-14.252v17.532c0 5.367-.521 9.212-1.586 11.515-1.064 2.303-2.911 3.454-5.54 3.454-4.758 0-7.126-4.997-7.126-14.99v-54.573c0-9.994 2.368-14.99 7.126-14.99 2.629 0 4.476 1.15 5.54 3.454 1.065 2.302 1.586 6.148 1.586 11.514v17.532h13.578v-17.532c0-10.168-1.716-17.858-5.149-23.05-3.432-5.193-8.95-7.778-16.554-7.778l.022.087zm42.127 66.001h4.171c2.476 0 4.519 1.108 6.126 3.324 1.608 2.216 2.412 5.735 2.412 10.536v14.991c0 14.23 5.192 21.334 15.555 21.334 3.063 0 6.17-.652 9.32-1.977v-18.228c-1.391.761-2.738 1.13-4.063 1.13-3.063 0-4.606-3.476-4.606-10.45v-9.32c0-6.408-1.325-11.383-3.953-14.903-2.629-3.541-5.888-5.496-9.755-5.866 7.821-1.694 11.732-7.864 11.732-18.509 0-1.043-.066-2.716-.218-5.019s-.217-3.737-.217-4.301c0-6.322 1.89-9.472 5.692-9.472.804 0 1.934.195 3.389.564V74.611c-4.301-1.043-7.625-1.564-9.972-1.564-4.453 0-7.908 1.716-10.363 5.17-2.454 3.433-3.671 8.517-3.671 15.186 0 1.5.152 3.91.434 7.213.283 3.302.435 5.605.435 6.93 0 8.864-2.781 13.296-8.321 13.296h-4.171v-46.23h-16.229V187.69h16.229v-48.621l.044-.065zm55.179 2.693V74.545h-14.903v113.1h16.663l15.772-68.281v68.281h14.904v-113.1h-16.663l-15.773 67.152zm60.503-72.105c13.361 0 20.053-4.063 20.053-12.166 0-2.738-.065-4.671-.218-5.801h-14.468c.217.934.325 2.737.325 5.366 0 3.02-1.89 4.519-5.692 4.519-3.801 0-5.691-1.5-5.691-4.519 0-2.629.108-4.432.325-5.366h-14.468c-.153 1.13-.218 3.063-.218 5.8 0 8.104 6.692 12.167 20.052 12.167zm11.297 49.772v68.26h14.903V74.544h-16.663l-18.292 67.153V74.545h-14.904v113.079h16.663l18.293-68.26zM32.5 248.194c3.281-1.13 6.105-3.911 8.452-8.342 2.346-4.432 3.52-10.559 3.52-18.38v-1.694c0-17.989-7.214-27.005-21.617-27.005-14.47 0-21.725 10.515-21.725 31.523v7.061h13.99v-7.213c0-4.236.457-7.625 1.348-10.167.89-2.542 2.715-3.824 5.496-3.824 4.323 0 6.496 4.345 6.496 13.014v1.129c0 11.406-2.542 17.098-7.604 17.098h-7.843v15.403h8.951c4.78 0 7.17 4.432 7.17 13.296v7.495c0 4.062-.587 7.343-1.739 9.885-1.151 2.542-2.976 3.823-5.431 3.823-4.627 0-6.93-4.671-6.952-13.991v-8.472H0v8.342c0 21.008 7.321 31.523 21.942 31.523 15.903 0 23.854-10.928 23.833-32.805v-1.564c0-7.908-1.304-14.078-3.91-18.51-2.608-4.432-5.758-6.973-9.408-7.625h.044zm28.7-54.139L46.644 307.133h13.883l3.128-27.004H79.21l3.368 27.004h16.576L84.707 194.055H61.2zm4.584 67.847l5.822-54.008 5.606 54.008H65.784zm76.536 36.541c3.172-5.235 4.758-11.557 4.758-19.009v-3.954c0-7.908-1.564-14.23-4.693-18.944-3.128-4.715-6.604-7.343-10.406-7.908 3.498-1.13 6.626-3.824 9.342-8.06 2.715-4.236 4.084-10.037 4.084-17.38v-2.129c0-7.734-1.521-14.013-4.584-18.879-3.063-4.845-7.213-7.474-12.427-7.843-2.693-.195-4.736-.282-6.148-.282h-20.378v113.078h17.358c4.78 0 8.365-.087 10.754-.282 5.084-.369 9.19-3.172 12.362-8.408h-.022zm-23.897-86.161h2.802c2.976 0 5.214 1.021 6.713 3.041 1.499 2.021 2.238 5.345 2.238 9.972v2.542c0 3.78-.739 6.778-2.173 9.038-1.455 2.259-3.085 3.389-4.866 3.389h-4.693v-27.982h-.021zm4.475 76.624h-4.475v-30.393h4.692c2.455 0 4.541 1.043 6.214 3.106 1.672 2.064 2.52 5.041 2.52 8.908v5.366c0 4.627-.717 7.929-2.173 9.972-1.455 2.02-3.715 3.041-6.778 3.041zm58.747 18.228l-.021-94.852h16.467v-18.249h-49.489v18.249h16.467v94.852h16.576zm75.839-113.101l-14.555 113.079h13.882l3.128-27.004h15.555l3.368 27.004h16.576l-14.447-113.079h-23.507zm4.584 67.847l5.823-54.008 5.605 54.008h-11.428zm86.903 27.699c-3.128 0-4.692-3.476-4.692-10.45v-9.32c0-6.409-1.347-11.384-4.041-14.903-2.694-3.541-6.018-5.496-9.972-5.866 7.995-1.694 11.971-7.864 11.971-18.51 0-1.042-.087-2.715-.218-5.018-.152-2.303-.217-3.737-.217-4.302 0-6.322 1.934-9.472 5.822-9.472.826 0 1.977.196 3.476.565v-18.227c-4.41-1.043-7.799-1.564-10.189-1.564-4.562 0-8.081 1.716-10.58 5.17-2.498 3.433-3.758 8.516-3.758 15.186 0 1.499.152 3.911.456 7.213.304 3.302.456 5.605.456 6.93 0 8.864-2.846 13.296-8.516 13.296h-4.258v-46.231h-16.576v113.079h16.576v-48.621h4.258c2.542 0 4.627 1.108 6.279 3.324 1.651 2.216 2.454 5.714 2.454 10.537v14.99c0 14.23 5.301 21.334 15.903 21.334 3.129 0 6.3-.652 9.516-1.977v-18.227c-1.412.76-2.803 1.129-4.15 1.129v-.065z" fill="#E42313"/><path d="M245.601 227.531c0-11.883-1.955-20.421-5.887-25.657-3.911-5.236-9.06-7.843-15.403-7.843h-23.29v85.466c-.087 11.515-.869 35.803-5.344 55.421-6.105 26.678-23.789 37.063-37.671 34.76-13.882-2.281-14.643-19.813-4.584-22.724 8.798-2.542 11.731 5.648 11.731 5.648s9.016-13.904-1.368-23.181c-9.168-8.168-23.181-5.496-30.198 5.497-7.017 10.971-.304 22.116-.304 22.116-6.974-4.28-13.274-2.433-13.274-2.433.608 20.595 15.403 36.889 41.929 35.368 26.526-1.521 43.732-28.199 49.902-51.901 5.497-21.073 5.714-72.366 5.714-72.366h6.713c6.04 0 11.102-2.976 15.164-8.907 4.063-5.931 6.105-14.078 6.105-24.463v-4.801h.065zm-15.903 4.519c0 10.276-2.694 15.403-8.06 15.403h-4.04v-35.194h4.04c5.366 0 8.06 5.083 8.06 15.272v4.519z" fill="#E42313"/></svg>