<svg width="144" height="38" viewBox="0 0 144 38" fill="none" xmlns="http://www.w3.org/2000/svg"><g clip-path="url(#clip0_1101_894)"><path d="M0 .002h144l-.01 38H0v-38z" fill="#004282"/><path d="M24.719 30.693l4.971-14.687v14.687h7.42V7.307H27.094l-4.826 11.696-4.823-11.696H7.424v23.386h7.42V16.006l5.015 14.687h4.86zm77.713-15.156c0 .507-.125.95-1.05.95h-8.595v-4.588h8.609c1.046 0 1.036.677 1.036 1.097v2.54zm2.056 6.068c2.313-.183 4.626-1.734 4.626-4.281v-5.772c-.271-2.64-2.279-4.06-4.66-4.25H85.36v23.392h7.423v-9.089h2.95l4.826 9.09h8.534l-5.743-9.09h1.138zm-45.103-9.69V7.307H40.08v23.386l19.558-.006.007-4.595H47.518l.004-5.008h11.863V16.49H47.522v-4.574h11.863zm9.275 0h-7.054V7.307h21.53v4.608H76.08v18.778h-7.42V11.915zm61.018 13.1c-.034.263-.136.96-1.053 1.05h-8.057c-.915-.09-1.087-.787-1.118-1.05V12.772c.034-.267.163-.827 1.081-.917h8.104c.918.09 1.016.65 1.05.917v12.243h-.007zm2.79-17.771H116.66c-2.374.19-4.379 1.373-4.654 4.027v15.161c.275 2.654 2.276 4.058 4.654 4.248h15.808c2.374-.187 4.379-1.594 4.647-4.248V11.268c-.268-2.65-2.269-3.838-4.647-4.024z" fill="#FFE600"/></g><defs><clipPath id="clip0_1101_894"><path fill="#fff" d="M0 0h144v38H0z"/></clipPath></defs></svg>