<svg width="75" height="75" viewBox="0 0 75 75" fill="none" xmlns="http://www.w3.org/2000/svg"><path d="M37.446 0L.376 37.07l37.07 37.07 37.07-37.07L37.446 0z" fill="#004282"/><path d="M18.785 42.149l1.968-5.814v5.814h2.937v-9.257h-3.966l-1.91 4.63-1.909-4.63H11.94v9.257h2.937v-5.814l1.985 5.814h1.924zm30.761-5.999c0 .2-.05.376-.415.376h-3.403V34.71h3.408c.414 0 .41.268.41.434v1.006zm.814 2.402c.916-.073 1.831-.687 1.831-1.695v-2.285c-.107-1.045-.902-1.607-1.844-1.682h-7.558v9.26h2.938v-3.598h1.168l1.91 3.597h3.378l-2.273-3.597h.45zm-17.853-3.836v-1.824h-7.641v9.257l7.741-.003.003-1.819h-4.8v-1.982h4.697v-1.819H27.81v-1.81h4.696zm3.671 0h-2.792v-1.824h8.522v1.824h-2.793v7.433h-2.937v-7.433zm24.152 5.186c-.012.104-.053.38-.416.415h-3.19a.457.457 0 01-.441-.415v-4.847c.013-.105.064-.327.427-.362h3.208c.363.035.402.257.416.362v4.847h-.003zm1.105-7.035h-6.257c-.94.075-1.733.544-1.842 1.595v6c.108 1.051.9 1.607 1.842 1.682h6.258c.94-.074 1.733-.63 1.839-1.681V34.46c-.106-1.05-.898-1.519-1.84-1.593z" fill="#FFE600"/></svg>