<svg width="154" height="153" viewBox="0 0 154 153" fill="none" xmlns="http://www.w3.org/2000/svg"><path d="M77.21 0L.71 76.5l76.5 76.5 76.5-76.5L77.21 0z" fill="#E42313"/><path d="M40.578 65.072h1.516c1.36 0 2.5-.686 3.416-2.051.916-1.366 1.376-3.241 1.376-5.632v-1.106c0-2.736-.44-4.702-1.326-5.907-.885-1.206-2.04-1.806-3.471-1.806h-5.247v26.036h3.736v-9.534zm0-12.305h.91c1.211 0 1.816 1.17 1.816 3.516v1.04c0 2.367-.605 3.547-1.815 3.547h-.91v-8.103z" fill="#fff"/><path d="M51.963 68.843c0 .67-.12 1.185-.355 1.545-.235.36-.505.535-.805.535-.336 0-.636-.185-.896-.555-.26-.37-.39-.955-.39-1.755v-2.146h-2.826v2.146c0 1.91.355 3.446 1.07 4.606.716 1.16 1.871 1.741 3.472 1.741 2.556 0 4.146-2.17 4.767-6.507l2.41-16.957c.526-3.061 1.436-7.183 2.857-10.214 2.546-5.437 5.927-6.418 8.478-5.392 3.166 1.275 2.056 6.517-1.666 4.947 0 0 .38 2.46 3.187 2.99 2.936.551 6.152-2.235 4.996-6.757.776.1 1.666.11 2.597-.105 0 0-1.176-5.587-9.554-5.537-1.69.01-3.147.36-4.392.915-1.806.746-3.481 2.076-4.722 4.082-.03.05-.06.105-.095.155a16.093 16.093 0 00-1.96 4.177c-.986 2.66-1.601 5.377-1.961 7.348h-.015l-.09.615c-.16.945-.255 1.656-.3 2.016L53.779 64.06l-2.917-15.496h-3.986l5.022 19.037c.05.195.075.605.075 1.236l-.01.005z" fill="#fff"/><path d="M69.144 59.337v-4.036c0-2.341-.395-4.112-1.186-5.307-.79-1.196-2.06-1.79-3.811-1.79-1.73 0-3.021.63-3.872 1.885-.85 1.26-1.275 2.996-1.275 5.207V67.86c0 2.21.425 3.951 1.276 5.207.85 1.26 2.14 1.886 3.871 1.886 3.431 0 5.147-2.366 5.147-7.098v-4.037h-3.281v4.037c0 1.235-.12 2.12-.365 2.65-.245.531-.67.796-1.276.796-1.095 0-1.64-1.15-1.64-3.451V55.286c0-2.301.545-3.452 1.64-3.452.605 0 1.03.266 1.276.796.245.53.365 1.415.365 2.65v4.038h3.126l.005.02zm6.037-11.129c-1.73 0-3.021.63-3.871 1.885-.85 1.26-1.276 2.996-1.276 5.207v12.565c0 2.211.425 3.952 1.276 5.207.85 1.26 2.14 1.886 3.871 1.886 3.431 0 5.147-2.366 5.147-7.098v-4.036h-3.281v4.036c0 1.236-.12 2.121-.365 2.651-.245.53-.67.796-1.276.796-1.095 0-1.64-1.15-1.64-3.452V55.29c0-2.3.545-3.451 1.64-3.451.605 0 1.03.265 1.276.795.245.53.365 1.416.365 2.651v4.037h3.126v-4.037c0-2.34-.395-4.111-1.185-5.307-.79-1.195-2.061-1.79-3.812-1.79l.005.02zm9.7 15.197h.96c.57 0 1.041.255 1.411.765.37.51.555 1.32.555 2.426v3.451c0 3.277 1.196 4.912 3.582 4.912.705 0 1.42-.15 2.146-.455v-4.197c-.32.175-.63.26-.936.26-.705 0-1.06-.8-1.06-2.405v-2.146c0-1.476-.305-2.621-.91-3.432-.606-.815-1.356-1.265-2.246-1.35 1.8-.39 2.7-1.81 2.7-4.262 0-.24-.014-.625-.05-1.155-.034-.53-.05-.86-.05-.99 0-1.456.436-2.181 1.311-2.181.185 0 .445.044.78.13v-4.197c-.99-.24-1.755-.36-2.296-.36-1.025 0-1.82.395-2.385 1.19-.566.79-.846 1.961-.846 3.497 0 .345.035.9.1 1.66.065.76.1 1.29.1 1.596 0 2.04-.64 3.061-1.915 3.061h-.96V48.58h-3.737v26.035h3.736V63.42l.01-.015zm12.705.62v-15.46h-3.431v26.04h3.836l3.632-15.722v15.722h3.431v-26.04h-3.836l-3.632 15.46zm13.929-16.599c3.076 0 4.617-.936 4.617-2.801 0-.63-.015-1.076-.05-1.336h-3.331c.05.215.075.63.075 1.236 0 .695-.435 1.04-1.311 1.04-.875 0-1.31-.345-1.31-1.04 0-.606.025-1.02.075-1.236h-3.332c-.035.26-.05.705-.05 1.336 0 1.865 1.541 2.8 4.617 2.8zm2.602 11.459v15.717h3.431V48.566h-3.837L109.5 64.028V48.566h-3.432v26.036h3.837l4.212-15.717zM44.22 88.545c.755-.26 1.405-.9 1.946-1.92.54-1.021.81-2.432.81-4.232v-.39c0-4.142-1.66-6.218-4.977-6.218-3.331 0-5.002 2.421-5.002 7.258v1.626h3.221v-1.661c0-.975.105-1.756.31-2.34.205-.586.626-.881 1.266-.881.995 0 1.495 1 1.495 2.996v.26c0 2.626-.585 3.936-1.75 3.936h-1.806v3.547h2.06c1.101 0 1.651 1.02 1.651 3.061v1.726c0 .935-.135 1.69-.4 2.276-.265.585-.685.88-1.25.88-1.066 0-1.596-1.075-1.6-3.221v-1.951h-3.457v1.92c0 4.838 1.685 7.259 5.052 7.259 3.661 0 5.492-2.516 5.487-7.553v-.36c0-1.821-.3-3.242-.9-4.262-.6-1.02-1.326-1.606-2.166-1.756h.01zm6.607-12.465l-3.35 26.035h3.195l.72-6.217h3.582l.775 6.217h3.817L56.239 76.08h-5.412zm1.056 15.621l1.34-12.435 1.29 12.435h-2.63zm17.622 8.413c.73-1.205 1.095-2.66 1.095-4.376v-.91c0-1.821-.36-3.277-1.08-4.362-.72-1.086-1.521-1.691-2.396-1.821.805-.26 1.525-.88 2.15-1.856.626-.975.94-2.31.94-4.001v-.49c0-1.781-.35-3.227-1.055-4.347-.705-1.116-1.66-1.72-2.86-1.806a20.794 20.794 0 00-1.416-.065H60.19v26.035h3.996c1.1 0 1.926-.02 2.477-.065 1.17-.085 2.115-.73 2.846-1.936h-.005zm-5.503-19.837h.646c.685 0 1.2.235 1.545.7.345.465.516 1.23.516 2.296v.585c0 .87-.17 1.56-.5 2.08-.336.521-.711.781-1.121.781h-1.08v-6.442h-.006zm1.03 17.642h-1.03V90.92h1.08c.566 0 1.046.24 1.431.715s.58 1.16.58 2.051v1.236c0 1.065-.164 1.825-.5 2.295-.335.465-.855.7-1.56.7zm13.526 4.197l-.005-21.838h3.792v-4.202H70.95v4.202h3.792v21.838h3.816zm17.462-26.04l-3.352 26.035h3.197l.72-6.217h3.581l.776 6.217h3.816l-3.326-26.035H96.02zm1.055 15.621l1.34-12.435 1.291 12.435h-2.63zm20.008 6.376c-.72 0-1.08-.8-1.08-2.406v-2.145c0-1.476-.31-2.622-.93-3.432-.621-.815-1.386-1.265-2.296-1.35 1.841-.39 2.756-1.811 2.756-4.262 0-.24-.02-.625-.05-1.155-.035-.53-.05-.86-.05-.99 0-1.456.445-2.182 1.34-2.182.19 0 .456.045.801.13v-4.196c-1.016-.24-1.796-.36-2.346-.36-1.051 0-1.861.395-2.436 1.19-.575.79-.866 1.96-.866 3.496 0 .346.035.9.106 1.661.07.76.105 1.29.105 1.596 0 2.04-.656 3.06-1.961 3.06h-.981V76.086h-3.816v26.035h3.816V90.926h.981c.585 0 1.065.255 1.445.765.381.51.566 1.315.566 2.426v3.451c0 3.276 1.22 4.912 3.661 4.912.72 0 1.451-.15 2.191-.455v-4.197c-.325.175-.645.26-.956.26v-.015z" fill="#fff"/><path d="M93.284 83.79c0-2.737-.45-4.703-1.356-5.908-.9-1.206-2.085-1.806-3.546-1.806H83.02v19.678c-.02 2.65-.2 8.243-1.23 12.76-1.406 6.142-5.478 8.533-8.674 8.003-3.196-.525-3.371-4.562-1.055-5.232 2.025-.585 2.7 1.3 2.7 1.3s2.077-3.201-.314-5.337c-2.111-1.88-5.338-1.265-6.953 1.266-1.616 2.526-.07 5.092-.07 5.092-1.606-.986-3.056-.56-3.056-.56.14 4.741 3.546 8.493 9.654 8.143 6.107-.35 10.068-6.493 11.489-11.95 1.265-4.852 1.316-16.661 1.316-16.661h1.545c1.39 0 2.556-.686 3.491-2.051.936-1.366 1.406-3.241 1.406-5.632v-1.106h.015zm-3.661 1.04c0 2.365-.62 3.546-1.856 3.546h-.93v-8.103h.93c1.235 0 1.856 1.17 1.856 3.516v1.04z" fill="#fff"/></svg>