<svg width="15" height="13" viewBox="0 0 15 13" fill="none" xmlns="http://www.w3.org/2000/svg"><path fill-rule="evenodd" clip-rule="evenodd" d="M11.49 12.857a.72.72 0 00.692.094.746.746 0 00.452-.546C13.177 9.75 14.494 3.03 14.99.616a.52.52 0 00-.162-.492.485.485 0 00-.498-.091C11.709 1.04 3.638 4.19.339 5.46A.538.538 0 000 5.98c.008.23.156.43.37.496 1.48.46 3.422 1.1 3.422 1.1s.908 2.85 1.38 4.3c.06.182.197.325.378.375a.527.527 0 00.506-.135l1.935-1.9s2.233 1.703 3.499 2.64zm-6.881-5.64l1.05 3.6.232-2.28 6.366-5.971a.186.186 0 00.02-.245.173.173 0 00-.234-.042L4.609 7.216z" fill="#fff"/></svg>