<svg width="273" height="322" viewBox="0 0 273 322" fill="none" xmlns="http://www.w3.org/2000/svg">
<path d="M4.84465 187.411L4.35356 185.12C-4.31989 144.748 3.26472 105.221 22.4751 73.0609C41.9769 40.4612 73.4365 15.4496 112.118 4.88634C138.638 -2.36079 162.95 0.0371925 183.286 8.66352C197.855 14.8542 210.363 24.2633 220.193 35.6335C230.023 47.0037 237.157 60.3611 240.974 74.4261C245.91 92.6596 245.316 112.103 237.901 130.16C235.253 136.584 232.004 142.532 228.283 147.958C220.099 162.181 202.284 176.999 180.154 182.464C155.597 188.512 149.231 177.193 131.969 175.638C125.461 175.052 119.094 177.666 118.45 185.35C117.898 192.073 123.544 199.158 132.962 196.709C126.615 206.207 109.845 209.43 97.5546 201.067C81.7262 190.27 71.3205 158.014 106.777 141.257C86.281 145.186 65.1275 124.833 66.2959 100.32C87.326 111.78 108.192 75.1784 127.171 103.996C118.395 71.2868 147.628 55.2555 164.5 60.5143C187.311 67.6044 195.961 99.9659 170.244 118.85C174.313 102.426 159.452 91.0096 147.044 103.601C137.734 113.058 137.948 132.023 155.728 143.627C170.807 153.464 189.821 152.405 202.565 142.959C208.264 136.977 213.102 129.639 216.594 121.164C221.981 108.047 222.392 93.8388 218.759 80.4804C215.858 69.7654 210.403 59.563 202.879 50.876C195.356 42.189 185.729 34.9538 174.488 30.1956C158.575 23.4432 139.358 21.6108 118.214 27.3969C85.408 36.3704 58.7287 57.5544 42.2068 85.1953C25.9172 112.452 19.5083 146.005 26.8378 180.288L27.2698 182.22L27.2771 182.265C36.4818 222.688 60.8288 255.113 92.7287 275.284C121.256 293.34 155.858 301.62 191.129 297.123C165.776 290.06 143.382 268.115 145.225 240.106C146.167 225.809 151.757 212.682 162.823 203.536C171.97 195.995 183.948 192.11 195.753 192.976C214.623 194.358 229.556 208.136 231.921 227.322C233.646 241.248 228.429 255.534 216.396 263.09C204.095 270.805 188.689 268.644 180.821 255.661C175.193 246.339 180.234 237.333 185.79 235.451C185.248 237.82 185.448 240.689 186.699 242.625C188.71 245.725 192.053 246.833 195.587 246.481C205.543 245.509 207.758 232.592 202.99 225.178C200.33 221.033 195.707 218.64 190.892 218.396C184.219 218.045 178.217 221.636 173.74 226.335C151.646 249.412 177.602 282.769 203.581 284.524C213.376 285.19 228.243 285.321 237.561 282.404C241.43 281.191 245.057 279.88 248.472 278.396C259.243 272.568 269.258 265.599 278.483 257.7L278.738 257.45C279.058 257.19 279.354 256.911 279.671 256.629L284.022 283.042C262.82 299.11 238.245 310.988 211.017 317.246L210.973 317.254L208.844 317.719L208.756 317.734C163.156 327.571 117.513 318.369 80.6359 295.033C43.6887 271.685 15.5004 234.159 4.84465 187.411Z" fill="#E9F1FB"/>
</svg>
