<svg width="75" height="75" viewBox="0 0 75 75" fill="none" xmlns="http://www.w3.org/2000/svg">
<path d="M37.0705 -0.000190914L0 37.0703L37.0705 74.1408L74.141 37.0703L37.0705 -0.000190914Z" fill="white"/>
<path d="M50.1562 38.3535H59.1899V38.4758C59.1899 39.9844 57.9668 41.2133 56.4524 41.2133H52.8937C51.3852 41.2133 50.1562 39.9902 50.1562 38.4758V38.3535Z" fill="#E42313"/>
<path d="M52.8879 32.6406H56.4466C57.9551 32.6406 59.1841 33.8638 59.1841 35.3781V35.5004H50.1504V35.3781C50.1504 33.8696 51.3735 32.6406 52.8879 32.6406Z" fill="white"/>
<path d="M59.1899 35.5H50.1562V38.354H59.1899V35.5Z" fill="#005CA9"/>
<path d="M29.9228 30.8454C31.6643 28.8825 34.1629 27.7584 36.7839 27.7584C40.0572 27.7584 42.9345 29.4825 44.5537 32.0685C44.6352 32.0569 44.7168 32.0452 44.7983 32.0452C43.15 29.3427 40.1737 27.5371 36.7839 27.5371C34.0988 27.5371 31.5361 28.6903 29.7538 30.6998C29.7131 30.7464 29.7189 30.8163 29.7655 30.857C29.8121 30.8978 29.882 30.892 29.9228 30.8454Z" fill="#0F0F0F"/>
<path d="M44.5422 41.8145C42.9172 44.3888 40.0516 46.1012 36.7899 46.1012C33.5341 46.1012 30.6743 44.3947 29.0434 41.8319C28.9619 41.8494 28.8804 41.8552 28.7988 41.861C30.453 44.5345 33.4176 46.3226 36.7841 46.3226C40.1739 46.3226 43.1502 44.517 44.7985 41.8203C44.7111 41.8261 44.6237 41.8203 44.5364 41.8203L44.5422 41.8145Z" fill="#0F0F0F"/>
<path d="M50.7509 29.8334C48.06 24.5506 42.7132 21.2715 36.7897 21.2715C29.882 21.2715 24.0051 25.7679 21.9316 31.9884C22.0074 31.9884 22.0831 31.9884 22.1588 32.0059C24.2206 25.9019 29.9985 21.4928 36.7897 21.4928C42.6316 21.4928 47.9086 24.7254 50.5587 29.9382C50.5878 29.9906 50.6519 30.0139 50.7043 29.9848C50.7567 29.9557 50.78 29.8916 50.7509 29.8392V29.8334Z" fill="#0F0F0F"/>
<path d="M33.615 36.3036C33.6558 36.3444 33.7082 36.3677 33.7665 36.3677C33.8305 36.3677 33.883 36.3444 33.9237 36.3036C33.9645 36.2629 33.9878 36.2105 33.9878 36.1522V34.0671C33.9878 34.0088 33.9645 33.9564 33.9237 33.9156C33.883 33.8749 33.8305 33.8516 33.7665 33.8516C33.7199 33.8516 33.6791 33.8574 33.6442 33.8749C33.6092 33.8923 33.5743 33.9215 33.551 33.9739L32.8928 35.3135L32.2405 33.9913C32.2172 33.9389 32.1881 33.904 32.1531 33.8807C32.1182 33.8632 32.0716 33.8516 32.0133 33.8516C31.9551 33.8516 31.9027 33.869 31.8561 33.9098C31.8153 33.9506 31.792 34.003 31.792 34.0671V36.1522C31.792 36.2105 31.8153 36.2629 31.8561 36.3036C31.8969 36.3444 31.9493 36.3677 32.0075 36.3677C32.0658 36.3677 32.1182 36.3444 32.1589 36.3036C32.1997 36.2629 32.223 36.2105 32.223 36.1522V34.8767L32.6773 35.826C32.7006 35.8726 32.7298 35.9076 32.7705 35.9309C32.8113 35.9542 32.8462 35.9658 32.887 35.9658C32.9336 35.9658 32.9744 35.9542 33.0093 35.9309C33.0443 35.9076 33.0734 35.8726 33.1025 35.826L33.5568 34.8708V36.1522C33.5568 36.2105 33.5801 36.2629 33.6209 36.3036H33.615Z" fill="#0F0F0F"/>
<path d="M28.2681 37.5895C28.2273 37.5429 28.1749 37.5254 28.1108 37.5254H26.6198C26.5557 37.5254 26.5033 37.5487 26.4625 37.5895C26.4159 37.6302 26.3984 37.6885 26.3984 37.7467C26.3984 37.805 26.4217 37.8632 26.4625 37.904C26.5091 37.9447 26.5615 37.968 26.6198 37.968H27.1323V39.7794C27.1323 39.8435 27.1556 39.8959 27.2022 39.9425C27.2488 39.9891 27.3012 40.0124 27.3653 40.0124C27.4293 40.0124 27.4818 39.9891 27.5284 39.9425C27.575 39.8959 27.5983 39.8435 27.5983 39.7794V37.968H28.1108C28.1749 37.968 28.2273 37.9447 28.2681 37.904C28.3088 37.8632 28.3321 37.8108 28.3321 37.7467C28.3321 37.6827 28.3088 37.6302 28.2681 37.5895Z" fill="#0F0F0F"/>
<path d="M29.8644 38.7036C29.7595 38.3775 29.6431 38.0513 29.5149 37.731C29.4742 37.6319 29.4276 37.562 29.3693 37.5329C29.3111 37.5038 29.2586 37.4863 29.2062 37.4863C29.1538 37.4863 29.1014 37.5038 29.049 37.5329C28.9966 37.562 28.95 37.6261 28.9092 37.731C28.7811 38.0513 28.6646 38.3775 28.5597 38.7036C28.4549 39.0298 28.3617 39.3734 28.2802 39.7287C28.2685 39.7753 28.2743 39.8161 28.2802 39.8511C28.2918 39.886 28.3035 39.9151 28.3268 39.9384C28.3501 39.9617 28.3733 39.9792 28.4083 39.9967C28.4374 40.0083 28.4724 40.0141 28.5015 40.0141C28.5481 40.0141 28.5947 39.9967 28.6354 39.9734C28.6762 39.9442 28.7054 39.8976 28.7228 39.8336C28.7345 39.7753 28.752 39.7113 28.7636 39.653C28.7752 39.5948 28.7927 39.5365 28.8102 39.4783H29.5965C29.614 39.5365 29.6314 39.5948 29.6431 39.653C29.6605 39.7113 29.6722 39.7753 29.6838 39.8336C29.6955 39.8976 29.7246 39.9442 29.7654 39.9734C29.8062 40.0025 29.8527 40.0141 29.9052 40.0141C29.9401 40.0141 29.9693 40.0083 30.0042 39.9967C30.0333 39.985 30.0624 39.9675 30.0857 39.9384C30.109 39.9151 30.1265 39.886 30.1323 39.8511C30.144 39.8161 30.144 39.7753 30.1323 39.7287C30.0566 39.3734 29.9634 39.0356 29.8586 38.7036H29.8644ZM28.9208 39.0531C28.9674 38.9075 29.014 38.7677 29.0548 38.6279C29.1014 38.4881 29.148 38.3542 29.2004 38.2144C29.2529 38.3542 29.2994 38.4881 29.346 38.6279C29.3926 38.7677 29.4392 38.9075 29.48 39.0531H28.915H28.9208Z" fill="#0F0F0F"/>
<path d="M31.14 34.1311C31.0701 34.0438 30.9828 33.9797 30.8663 33.9273C30.7556 33.8749 30.6158 33.8516 30.4527 33.8516C30.2897 33.8516 30.1499 33.8749 30.0392 33.9273C29.9286 33.9797 29.8354 34.0496 29.7655 34.1311C29.6956 34.2185 29.649 34.3117 29.6198 34.4224C29.5907 34.533 29.5732 34.6437 29.5732 34.7602V35.4591C29.5732 35.5756 29.5907 35.6863 29.6198 35.7969C29.649 35.9076 29.6956 36.0066 29.7655 36.0881C29.8354 36.1755 29.9227 36.2396 30.0392 36.292C30.1499 36.3444 30.2897 36.3677 30.4527 36.3677C30.6158 36.3677 30.7556 36.3444 30.8663 36.292C30.9769 36.2396 31.0701 36.1697 31.14 36.0881C31.2099 36.0008 31.2565 35.9076 31.2856 35.7969C31.3147 35.6863 31.3322 35.5756 31.3322 35.4591V34.7602C31.3322 34.6437 31.3147 34.533 31.2856 34.4224C31.2565 34.3117 31.2041 34.2185 31.14 34.1311ZM30.8663 35.4591C30.8663 35.529 30.8604 35.5989 30.8488 35.6571C30.8371 35.7154 30.8138 35.7678 30.7789 35.8086C30.7498 35.8552 30.7032 35.8901 30.6508 35.9076C30.5984 35.9309 30.5285 35.9425 30.4527 35.9425C30.2955 35.9425 30.1906 35.8959 30.1266 35.8086C30.0974 35.7678 30.0742 35.7154 30.0625 35.6571C30.0509 35.5989 30.045 35.5348 30.045 35.4591V34.7543C30.045 34.6845 30.0509 34.6146 30.0625 34.5563C30.0742 34.4981 30.0974 34.4457 30.1266 34.4049C30.1906 34.3175 30.3013 34.2709 30.4527 34.2709C30.5343 34.2709 30.5984 34.2826 30.6508 34.3059C30.7032 34.3292 30.744 34.3641 30.7789 34.4049C30.808 34.4457 30.8313 34.4981 30.8488 34.5563C30.8604 34.6146 30.8663 34.6786 30.8663 34.7543V35.4591Z" fill="#0F0F0F"/>
<path d="M33.0498 37.7428C32.9916 37.6787 32.91 37.6263 32.8168 37.5797C32.7178 37.5389 32.5955 37.5156 32.4499 37.5156H31.815C31.751 37.5156 31.6927 37.5389 31.6519 37.5855C31.6053 37.6321 31.582 37.6845 31.582 37.7486V39.7697C31.582 39.8338 31.6053 39.892 31.6519 39.9328C31.6985 39.9794 31.751 40.0027 31.815 40.0027C31.8791 40.0027 31.9373 39.9794 31.9781 39.9328C32.0247 39.8862 32.048 39.8338 32.048 39.7697V39.0649H32.4732C32.5897 39.0649 32.7003 39.0474 32.7935 39.0183C32.8867 38.9834 32.9624 38.9368 33.0265 38.8785C33.0906 38.8203 33.1372 38.7446 33.1721 38.663C33.2071 38.5815 33.2187 38.4883 33.2187 38.3835V38.2087C33.2187 38.1272 33.207 38.0398 33.1779 37.9583C33.1546 37.8767 33.108 37.801 33.0498 37.737V37.7428ZM32.7527 38.3835C32.7527 38.4534 32.7295 38.5116 32.6887 38.564C32.6421 38.6164 32.5664 38.6456 32.4499 38.6456H32.0422V37.9641H32.4033C32.4732 37.9641 32.5314 37.9699 32.5722 37.9874C32.6188 38.0049 32.6537 38.0224 32.677 38.0456C32.7003 38.0689 32.7236 38.0981 32.7295 38.1272C32.7411 38.1563 32.7469 38.1913 32.7469 38.2262V38.3835H32.7527Z" fill="#0F0F0F"/>
<path d="M26.6605 36.0881C26.7304 36.0008 26.777 35.9076 26.8061 35.7969C26.8353 35.6863 26.8527 35.5756 26.8527 35.4591V34.7602C26.8527 34.6437 26.8353 34.533 26.8061 34.4224C26.777 34.3117 26.7246 34.2185 26.6605 34.1311C26.5906 34.0438 26.5033 33.9797 26.3868 33.9273C26.2761 33.8749 26.1363 33.8516 25.9732 33.8516C25.8102 33.8516 25.6704 33.8749 25.5597 33.9273C25.4491 33.9797 25.3559 34.0496 25.286 34.1311C25.2161 34.2185 25.1695 34.3117 25.1404 34.4224C25.1112 34.533 25.0938 34.6437 25.0938 34.7602V35.4591C25.0938 35.5756 25.1112 35.6863 25.1404 35.7969C25.1695 35.9076 25.2161 36.0066 25.286 36.0881C25.3559 36.1755 25.4432 36.2396 25.5597 36.292C25.6704 36.3444 25.8102 36.3677 25.9732 36.3677C26.1363 36.3677 26.2761 36.3444 26.3868 36.292C26.4975 36.2396 26.5906 36.1697 26.6605 36.0881ZM26.3868 35.4649C26.3868 35.5348 26.3809 35.6047 26.3693 35.663C26.3577 35.7212 26.3344 35.7736 26.2994 35.8144C26.2703 35.861 26.2237 35.8959 26.1713 35.9134C26.1189 35.9367 26.049 35.9483 25.9732 35.9483C25.816 35.9483 25.7111 35.9018 25.6471 35.8144C25.618 35.7736 25.5947 35.7212 25.583 35.663C25.5714 35.6047 25.5655 35.5406 25.5655 35.4649V34.7602C25.5655 34.6903 25.5714 34.6204 25.583 34.5621C25.5947 34.5039 25.618 34.4515 25.6471 34.4107C25.7111 34.3233 25.816 34.2767 25.9732 34.2767C26.0548 34.2767 26.1189 34.2884 26.1713 34.3117C26.2237 34.335 26.2645 34.3699 26.2994 34.4107C26.3285 34.4515 26.3518 34.5039 26.3693 34.5621C26.3809 34.6204 26.3868 34.6845 26.3868 34.7602V35.4649Z" fill="#0F0F0F"/>
<path d="M21.0289 34.3352H21.5415V36.1466C21.5415 36.2107 21.5648 36.2631 21.6114 36.3097C21.658 36.3563 21.7104 36.3796 21.7745 36.3796C21.8386 36.3796 21.891 36.3563 21.9376 36.3097C21.9842 36.2631 22.0074 36.2107 22.0074 36.1466V34.3352H22.52C22.5841 34.3352 22.6365 34.3119 22.6773 34.2712C22.718 34.2304 22.7413 34.178 22.7413 34.1139C22.7413 34.0498 22.718 33.9974 22.6773 33.9566C22.6365 33.9101 22.5841 33.8926 22.52 33.8926H21.0289C20.9649 33.8926 20.9124 33.9159 20.8717 33.9566C20.8251 33.9974 20.8076 34.0557 20.8076 34.1139C20.8076 34.178 20.8309 34.2304 20.8717 34.2712C20.9183 34.3119 20.9707 34.3352 21.0289 34.3352Z" fill="#0F0F0F"/>
<path d="M16.8643 33.9508C16.8235 33.9042 16.7711 33.8867 16.707 33.8867H15.6237C15.5654 33.8867 15.513 33.91 15.4664 33.9508C15.4256 33.9974 15.4023 34.044 15.4023 34.108V36.1408C15.4023 36.2048 15.4256 36.2631 15.4664 36.3038C15.513 36.3504 15.5654 36.3679 15.6295 36.3679C15.6935 36.3679 15.7518 36.3446 15.7926 36.3038C15.8392 36.2573 15.8625 36.2048 15.8625 36.1408V34.3294H16.7012C16.7594 34.3294 16.8119 34.3061 16.8584 34.2653C16.8992 34.2245 16.9225 34.1721 16.9225 34.108C16.9225 34.0498 16.8992 33.9974 16.8584 33.9508H16.8643Z" fill="#0F0F0F"/>
<path d="M48.5958 33.9507C48.5492 33.9042 48.4968 33.8809 48.4269 33.8809H47.7979C47.5358 33.8809 47.3377 33.9391 47.2096 34.0556C47.0815 34.1721 47.0174 34.341 47.0174 34.5623V34.6963C47.0174 34.7836 47.029 34.8594 47.0582 34.9292C47.0815 34.9991 47.1222 35.0632 47.1688 35.1215C47.198 35.1564 47.2329 35.1913 47.2737 35.2146C47.3144 35.2438 47.361 35.2671 47.4076 35.2845C47.3319 35.4069 47.262 35.5292 47.198 35.6573C47.1339 35.7854 47.0698 35.9078 47.0116 36.0359C46.9941 36.065 46.9883 36.1 46.9883 36.1349C46.9883 36.2048 47.0116 36.2572 47.064 36.298C47.1164 36.3388 47.1688 36.3621 47.2329 36.3621C47.2737 36.3621 47.3086 36.3504 47.3436 36.3329C47.3785 36.3155 47.4077 36.2747 47.4368 36.2223C47.5008 36.0825 47.5707 35.9427 47.6464 35.7971C47.7222 35.6573 47.8037 35.5175 47.8852 35.3777H48.1998V36.1349C48.1998 36.199 48.2231 36.2514 48.2697 36.298C48.3163 36.3446 48.3687 36.3679 48.4327 36.3679C48.4968 36.3679 48.5551 36.3446 48.6017 36.298C48.6483 36.2514 48.6715 36.199 48.6715 36.1349V34.1138C48.6715 34.0498 48.6483 33.9915 48.6017 33.9449L48.5958 33.9507ZM48.1998 34.9584H47.8212C47.7746 34.9584 47.7338 34.9584 47.693 34.9467C47.6523 34.9351 47.6173 34.9234 47.5882 34.9001C47.5183 34.8535 47.4833 34.7895 47.4833 34.6963V34.5623C47.4833 34.4866 47.5125 34.4225 47.5649 34.3759C47.6173 34.3293 47.6988 34.3119 47.8095 34.3119H48.2056V34.9526L48.1998 34.9584Z" fill="#0F0F0F"/>
<path d="M24.7333 34.7487V34.5739C24.7333 34.4924 24.7217 34.405 24.6926 34.3235C24.6693 34.2419 24.6227 34.1662 24.5644 34.1022C24.5062 34.0381 24.4246 33.9857 24.3315 33.9391C24.2324 33.8983 24.1101 33.875 23.9645 33.875H23.3297C23.2656 33.875 23.2073 33.8983 23.1666 33.9449C23.12 33.9915 23.0967 34.0439 23.0967 34.108V36.1291C23.0967 36.1931 23.12 36.2514 23.1666 36.2921C23.2132 36.3387 23.2656 36.362 23.3297 36.362C23.3937 36.362 23.452 36.3387 23.4927 36.2921C23.5335 36.2455 23.5627 36.1931 23.5627 36.1291V35.4243H23.9878C24.1043 35.4243 24.215 35.4068 24.3082 35.3777C24.4014 35.3428 24.4771 35.2962 24.5412 35.2379C24.6052 35.1797 24.6518 35.104 24.6868 35.0224C24.7217 34.9409 24.7333 34.8477 24.7333 34.7428V34.7487ZM24.2732 34.7487C24.2732 34.8186 24.2499 34.8768 24.2092 34.9292C24.1626 34.9816 24.0868 35.0108 23.9703 35.0108H23.5627V34.3293H23.9238C23.9937 34.3293 24.0519 34.3351 24.0927 34.3526C24.1393 34.3701 24.1742 34.3875 24.1975 34.4108C24.2208 34.4341 24.2441 34.4633 24.2499 34.4924C24.2616 34.5215 24.2674 34.5565 24.2674 34.5914V34.7487H24.2732Z" fill="#0F0F0F"/>
<path d="M20.5221 36.0183C20.5221 35.9601 20.5046 35.9135 20.4639 35.8785C20.4231 35.8436 20.3823 35.8261 20.3299 35.8261C20.3066 35.8261 20.2833 35.8261 20.26 35.8378C20.2367 35.8494 20.2134 35.8552 20.1843 35.8727C20.1435 35.9018 20.0969 35.9251 20.0503 35.9368C20.0037 35.9484 19.9513 35.9542 19.893 35.9542C19.8231 35.9542 19.7649 35.9426 19.7067 35.9193C19.6542 35.896 19.6077 35.8611 19.5727 35.8086C19.5378 35.7562 19.5086 35.6921 19.4912 35.6048C19.4737 35.5232 19.462 35.4184 19.462 35.2961V34.9408C19.462 34.702 19.497 34.5331 19.5727 34.4282C19.6484 34.3234 19.7591 34.271 19.9047 34.271C20.0095 34.271 20.0969 34.2943 20.161 34.3409C20.1901 34.3584 20.2192 34.37 20.2367 34.3817C20.2542 34.3933 20.2775 34.3933 20.3066 34.3933C20.3765 34.3933 20.4289 34.37 20.4639 34.3292C20.4988 34.2826 20.5163 34.2419 20.5163 34.1953C20.5163 34.1661 20.5104 34.1312 20.493 34.1021C20.4755 34.073 20.4522 34.0438 20.4173 34.0147C20.3881 33.9914 20.3532 33.9681 20.3124 33.9506C20.2716 33.9332 20.2309 33.9157 20.1843 33.904C20.1377 33.8924 20.0911 33.8807 20.0445 33.8749C19.9979 33.8691 19.9513 33.8633 19.9047 33.8633C19.7358 33.8633 19.596 33.8924 19.4795 33.9448C19.363 33.9972 19.2698 34.073 19.1999 34.1661C19.13 34.2593 19.0776 34.3758 19.0427 34.504C19.0078 34.6321 18.9961 34.7777 18.9961 34.9291V35.3019C18.9961 35.4592 19.0136 35.6048 19.0427 35.7387C19.0776 35.8727 19.1242 35.9834 19.1999 36.0766C19.2698 36.1697 19.363 36.2455 19.4737 36.2979C19.5844 36.3503 19.7242 36.3736 19.8814 36.3736C19.9222 36.3736 19.9688 36.3736 20.0154 36.362C20.062 36.3561 20.1144 36.3445 20.161 36.3328C20.2076 36.3212 20.26 36.3037 20.3008 36.2804C20.3474 36.2571 20.3823 36.2338 20.4173 36.1989C20.4755 36.1465 20.5104 36.0882 20.5104 36.0183H20.5221Z" fill="#0F0F0F"/>
<path d="M18.4601 35.063C18.3553 34.7368 18.2388 34.4107 18.1106 34.0903C18.0699 33.9913 18.0233 33.9214 17.965 33.8923C17.9068 33.8632 17.8544 33.8457 17.802 33.8457C17.7495 33.8457 17.6971 33.8632 17.6447 33.8923C17.5923 33.9214 17.5457 33.9855 17.5049 34.0903C17.3768 34.4107 17.2603 34.7368 17.1555 35.063C17.0506 35.3892 16.9574 35.7328 16.8759 36.0881C16.8642 36.1347 16.87 36.1755 16.8759 36.2104C16.8875 36.2454 16.8992 36.2745 16.9225 36.2978C16.9458 36.3211 16.9691 36.3386 17.004 36.356C17.0331 36.3677 17.0681 36.3735 17.0972 36.3735C17.1438 36.3735 17.1904 36.356 17.2311 36.3269C17.2719 36.2978 17.3011 36.2512 17.3185 36.1871C17.3302 36.1289 17.3477 36.0648 17.3593 36.0066C17.371 35.9483 17.3884 35.8901 17.4059 35.8318H18.1922C18.2097 35.8901 18.2271 35.9483 18.2388 36.0066C18.2563 36.0648 18.2679 36.1289 18.2796 36.1871C18.2912 36.2512 18.3203 36.2978 18.3611 36.3269C18.4019 36.356 18.4485 36.3677 18.5009 36.3677C18.5358 36.3677 18.565 36.3619 18.5999 36.3502C18.629 36.3386 18.6582 36.3153 18.6815 36.292C18.7048 36.2687 18.7222 36.2395 18.728 36.2046C18.7397 36.1696 18.7397 36.1289 18.728 36.0823C18.6523 35.727 18.5591 35.3892 18.4543 35.0572L18.4601 35.063ZM17.5166 35.4125C17.5632 35.2669 17.6098 35.1271 17.6505 34.9873C17.6971 34.8475 17.7437 34.7135 17.7961 34.5738C17.8486 34.7135 17.8951 34.8475 17.9417 34.9873C17.9883 35.1271 18.0349 35.2669 18.0757 35.4125H17.5107H17.5166Z" fill="#0F0F0F"/>
<path d="M26.0898 37.7428C26.0316 37.6787 25.95 37.6263 25.8568 37.5797C25.7578 37.5389 25.6355 37.5156 25.4899 37.5156H24.8551C24.791 37.5156 24.7327 37.5389 24.692 37.5855C24.6454 37.6321 24.6221 37.6845 24.6221 37.7486V39.7697C24.6221 39.8338 24.6454 39.892 24.692 39.9328C24.7386 39.9794 24.791 40.0027 24.8551 40.0027C24.9191 40.0027 24.9774 39.9794 25.0182 39.9328C25.0648 39.8862 25.0881 39.8338 25.0881 39.7697V39.0649H25.5132C25.6297 39.0649 25.7404 39.0474 25.8336 39.0183C25.9268 38.9834 26.0025 38.9368 26.0666 38.8785C26.1306 38.8203 26.1772 38.7446 26.2122 38.663C26.2471 38.5815 26.2587 38.4883 26.2587 38.3835V38.2087C26.2587 38.1272 26.2471 38.0398 26.218 37.9583C26.1947 37.8767 26.1481 37.801 26.0898 37.737V37.7428ZM25.7928 38.3835C25.7928 38.4534 25.7695 38.5116 25.7287 38.564C25.6821 38.6164 25.6064 38.6456 25.4899 38.6456H25.0822V37.9641H25.4433C25.5132 37.9641 25.5715 37.9699 25.6122 37.9874C25.6588 38.0049 25.6938 38.0224 25.7171 38.0456C25.7404 38.0689 25.7637 38.0981 25.7695 38.1272C25.7753 38.1563 25.787 38.1913 25.787 38.2262V38.3835H25.7928Z" fill="#0F0F0F"/>
<path d="M23.9933 38.7036C23.8885 38.3775 23.772 38.0513 23.6438 37.731C23.6031 37.6319 23.5565 37.562 23.4982 37.5329C23.44 37.5038 23.3876 37.4863 23.3352 37.4863C23.2827 37.4863 23.2303 37.5038 23.1779 37.5329C23.1255 37.562 23.0789 37.6261 23.0381 37.731C22.91 38.0513 22.7935 38.3775 22.6887 38.7036C22.5838 39.0298 22.4906 39.3734 22.4091 39.7287C22.3974 39.7753 22.4032 39.8161 22.4091 39.8511C22.4207 39.886 22.4324 39.9151 22.4557 39.9384C22.479 39.9617 22.5023 39.9792 22.5372 39.9967C22.5663 40.0083 22.6013 40.0141 22.6304 40.0141C22.677 40.0141 22.7236 39.9967 22.7644 39.9734C22.8051 39.9442 22.8343 39.8976 22.8517 39.8336C22.8634 39.7753 22.8809 39.7113 22.8925 39.653C22.9042 39.5948 22.9216 39.5365 22.9391 39.4783H23.7254C23.7429 39.5365 23.7604 39.5948 23.772 39.653C23.7895 39.7113 23.8011 39.7753 23.8128 39.8336C23.8244 39.8976 23.8535 39.9442 23.8943 39.9734C23.9351 40.0025 23.9817 40.0141 24.0341 40.0141C24.0691 40.0141 24.0982 40.0083 24.1331 39.9967C24.1622 39.985 24.1914 39.9675 24.2147 39.9384C24.238 39.9151 24.2554 39.886 24.2612 39.8511C24.2729 39.8161 24.2729 39.7753 24.2612 39.7287C24.1855 39.3734 24.0923 39.0356 23.9875 38.7036H23.9933ZM23.0498 39.0531C23.0964 38.9075 23.143 38.7677 23.1837 38.6279C23.2303 38.4881 23.2769 38.3542 23.3293 38.2144C23.3818 38.3542 23.4284 38.4881 23.4749 38.6279C23.5215 38.7677 23.5681 38.9075 23.6089 39.0531H23.0439H23.0498Z" fill="#0F0F0F"/>
<path d="M41.1113 37.4922C41.0473 37.4922 40.9949 37.5155 40.9483 37.5621C40.9017 37.6087 40.8784 37.6611 40.8784 37.7252V37.9174L39.9464 38.9599V37.7252C39.9464 37.6611 39.9231 37.6028 39.8766 37.5621C39.83 37.5155 39.7776 37.4922 39.7135 37.4922C39.6494 37.4922 39.5912 37.5155 39.5504 37.5621C39.5038 37.6087 39.4863 37.6611 39.4863 37.7252V39.7754C39.4863 39.8394 39.5096 39.8918 39.5504 39.9384C39.597 39.985 39.6494 40.0083 39.7135 40.0083C39.7776 40.0083 39.8358 39.985 39.8766 39.9384C39.9231 39.8918 39.9464 39.8394 39.9464 39.7754V39.5832L40.8784 38.5406V39.7754C40.8784 39.8394 40.9017 39.8918 40.9483 39.9384C40.9949 39.985 41.0473 40.0083 41.1113 40.0083C41.1754 40.0083 41.2337 39.985 41.2744 39.9384C41.321 39.8918 41.3443 39.8394 41.3443 39.7754V37.7252C41.3443 37.6611 41.321 37.6028 41.2744 37.5621C41.2278 37.5155 41.1754 37.4922 41.1113 37.4922Z" fill="#0F0F0F"/>
<path d="M44.2685 35.5581C44.1753 35.4125 44.0763 35.2611 43.9714 35.1155L44.5422 34.2069C44.5422 34.2069 44.5597 34.1661 44.5655 34.1428C44.5714 34.1195 44.5772 34.102 44.5772 34.0845C44.5772 34.0146 44.5539 33.9622 44.5073 33.9156C44.4607 33.869 44.4083 33.8516 44.3384 33.8516C44.251 33.8516 44.1869 33.8923 44.1403 33.9739L43.5812 34.8941H43.2492V34.0845C43.2492 34.0205 43.2259 33.9622 43.1793 33.9215C43.1327 33.8749 43.0803 33.8516 43.0162 33.8516C42.9522 33.8516 42.8939 33.8749 42.8532 33.9215C42.8066 33.968 42.7891 34.0205 42.7891 34.0845V36.1347C42.7891 36.1988 42.8124 36.2512 42.8532 36.2978C42.8998 36.3444 42.9522 36.3677 43.0162 36.3677C43.0803 36.3677 43.1327 36.3444 43.1793 36.2978C43.2259 36.2512 43.2492 36.1988 43.2492 36.1347V35.3251H43.587C43.6918 35.4824 43.7909 35.6397 43.8841 35.7911C43.9772 35.9484 44.0646 36.0998 44.1462 36.2454C44.1928 36.3269 44.2568 36.3677 44.35 36.3677C44.4199 36.3677 44.4723 36.3444 44.5189 36.2978C44.5655 36.2512 44.5888 36.1988 44.5888 36.1347C44.5888 36.094 44.5772 36.0532 44.5539 36.0124C44.4665 35.8552 44.3733 35.7037 44.2743 35.5523L44.2685 35.5581Z" fill="#0F0F0F"/>
<path d="M21.8437 39.1987C21.7505 39.0531 21.6515 38.9017 21.5466 38.7561L22.1174 37.8475C22.1174 37.8475 22.1349 37.8067 22.1407 37.7834C22.1466 37.7601 22.1524 37.7426 22.1524 37.7252C22.1524 37.6553 22.1291 37.6029 22.0825 37.5563C22.0359 37.5097 21.9835 37.4922 21.9136 37.4922C21.8262 37.4922 21.7621 37.533 21.7155 37.6145L21.1564 38.5348H20.8244V37.7252C20.8244 37.6611 20.8011 37.6028 20.7545 37.5621C20.7079 37.5155 20.6555 37.4922 20.5914 37.4922C20.5274 37.4922 20.4691 37.5155 20.4284 37.5621C20.3818 37.6087 20.3643 37.6611 20.3643 37.7252V39.7754C20.3643 39.8394 20.3876 39.8918 20.4284 39.9384C20.4749 39.985 20.5274 40.0083 20.5914 40.0083C20.6555 40.0083 20.7079 39.985 20.7545 39.9384C20.8011 39.8918 20.8244 39.8394 20.8244 39.7754V38.9658H21.1622C21.267 39.123 21.3661 39.2803 21.4593 39.4317C21.5524 39.589 21.6398 39.7404 21.7214 39.886C21.768 39.9676 21.832 40.0083 21.9252 40.0083C21.9951 40.0083 22.0475 39.985 22.0941 39.9384C22.1407 39.8918 22.164 39.8394 22.164 39.7754C22.164 39.7346 22.1524 39.6938 22.1291 39.653C22.0417 39.4958 21.9485 39.3444 21.8495 39.1929L21.8437 39.1987Z" fill="#0F0F0F"/>
<path d="M43.4814 37.4922C43.4174 37.4922 43.365 37.5155 43.3184 37.5621C43.2718 37.6087 43.2485 37.6611 43.2485 37.7252V37.9174L42.3166 38.9599V37.7252C42.3166 37.6611 42.2933 37.6028 42.2467 37.5621C42.2001 37.5155 42.1477 37.4922 42.0836 37.4922C42.0195 37.4922 41.9613 37.5155 41.9205 37.5621C41.8739 37.6087 41.8564 37.6611 41.8564 37.7252V39.7754C41.8564 39.8394 41.8797 39.8918 41.9205 39.9384C41.9671 39.985 42.0195 40.0083 42.0836 40.0083C42.1477 40.0083 42.2059 39.985 42.2467 39.9384C42.2933 39.8918 42.3166 39.8394 42.3166 39.7754V39.5832L43.2485 38.5406V39.7754C43.2485 39.8394 43.2718 39.8918 43.3184 39.9384C43.365 39.985 43.4174 40.0083 43.4814 40.0083C43.5455 40.0083 43.6038 39.985 43.6445 39.9384C43.6911 39.8918 43.7144 39.8394 43.7144 39.7754V37.7252C43.7144 37.6611 43.6911 37.6028 43.6445 37.5621C43.598 37.5155 43.5455 37.4922 43.4814 37.4922Z" fill="#0F0F0F"/>
<path d="M34.7223 36.3677C34.7863 36.3677 34.8446 36.3444 34.8853 36.2978C34.9319 36.2512 34.9553 36.1988 34.9553 36.1347V35.9425L35.8872 34.9V36.1347C35.8872 36.1988 35.9105 36.2512 35.9571 36.2978C36.0036 36.3444 36.0561 36.3677 36.1202 36.3677C36.1842 36.3677 36.2424 36.3444 36.2832 36.2978C36.3298 36.2512 36.3531 36.1988 36.3531 36.1347V34.0845C36.3531 34.0205 36.3298 33.9622 36.2832 33.9215C36.2366 33.8749 36.1842 33.8516 36.1202 33.8516C36.0561 33.8516 36.0036 33.8749 35.9571 33.9215C35.9105 33.968 35.8872 34.0205 35.8872 34.0845V34.2767L34.9553 35.3193V34.0845C34.9553 34.0205 34.9319 33.9622 34.8853 33.9215C34.8387 33.8749 34.7863 33.8516 34.7223 33.8516C34.6582 33.8516 34.5999 33.8749 34.5592 33.9215C34.5126 33.968 34.4951 34.0205 34.4951 34.0845V36.1347C34.4951 36.1988 34.5184 36.2512 34.5592 36.2978C34.6058 36.3444 34.6582 36.3677 34.7223 36.3677Z" fill="#0F0F0F"/>
<path d="M27.5465 36.3677C27.6106 36.3677 27.6688 36.3444 27.7096 36.2978C27.7562 36.2512 27.7795 36.1988 27.7795 36.1347V35.3368H28.6532V36.1347C28.6532 36.1988 28.6764 36.2512 28.723 36.2978C28.7696 36.3444 28.822 36.3677 28.8861 36.3677C28.9502 36.3677 29.0084 36.3444 29.0492 36.2978C29.0958 36.2512 29.1191 36.1988 29.1191 36.1347V34.0845C29.1191 34.0205 29.0958 33.9622 29.0492 33.9215C29.0026 33.8749 28.9502 33.8516 28.8861 33.8516C28.822 33.8516 28.7696 33.8749 28.723 33.9215C28.6764 33.968 28.6532 34.0205 28.6532 34.0845V34.9233H27.7795V34.0845C27.7795 34.0205 27.7562 33.9622 27.7096 33.9215C27.663 33.8749 27.6106 33.8516 27.5465 33.8516C27.4824 33.8516 27.4242 33.8749 27.3834 33.9215C27.3368 33.968 27.3193 34.0205 27.3193 34.0845V36.1347C27.3193 36.1988 27.3427 36.2512 27.3834 36.2978C27.43 36.3444 27.4824 36.3677 27.5465 36.3677Z" fill="#0F0F0F"/>
<path d="M46.4172 35.063C46.3123 34.7368 46.1958 34.4107 46.0677 34.0903C46.0269 33.9913 45.9803 33.9214 45.9221 33.8923C45.8638 33.8632 45.8114 33.8457 45.759 33.8457C45.7066 33.8457 45.6541 33.8632 45.6017 33.8923C45.5493 33.9214 45.5027 33.9855 45.4619 34.0903C45.3338 34.4107 45.2173 34.7368 45.1125 35.063C45.0077 35.3892 44.9144 35.7328 44.8329 36.0881C44.8212 36.1347 44.8271 36.1755 44.8329 36.2104C44.8445 36.2454 44.8562 36.2745 44.8795 36.2978C44.9028 36.3211 44.9261 36.3386 44.9611 36.356C44.9902 36.3677 45.0251 36.3735 45.0542 36.3735C45.1008 36.3735 45.1474 36.356 45.1882 36.3269C45.2289 36.2978 45.2581 36.2512 45.2756 36.1871C45.2872 36.1289 45.3047 36.0648 45.3163 36.0066C45.3338 35.9483 45.3455 35.8901 45.3629 35.8318H46.1492C46.1667 35.8901 46.1842 35.9483 46.1958 36.0066C46.2075 36.0648 46.225 36.1289 46.2366 36.1871C46.2483 36.2512 46.2773 36.2978 46.3181 36.3269C46.3589 36.356 46.4055 36.3677 46.4579 36.3677C46.4929 36.3677 46.522 36.3619 46.5569 36.3502C46.5861 36.3386 46.6152 36.3153 46.6385 36.292C46.6618 36.2687 46.6792 36.2395 46.6851 36.2046C46.6967 36.1696 46.6967 36.1289 46.6851 36.0823C46.6035 35.727 46.5162 35.3892 46.4113 35.0572L46.4172 35.063ZM45.4736 35.4125C45.5202 35.2669 45.5668 35.1271 45.6076 34.9873C45.6542 34.8475 45.7007 34.7135 45.7532 34.5738C45.8056 34.7135 45.8522 34.8475 45.8988 34.9873C45.9454 35.1271 45.992 35.2669 46.0327 35.4125H45.4678H45.4736Z" fill="#0F0F0F"/>
<path d="M42.0545 36.327C42.1011 36.3153 42.1535 36.2979 42.1943 36.2746C42.2408 36.2513 42.2758 36.228 42.3107 36.193C42.369 36.1406 42.4039 36.0823 42.4039 36.0125C42.4039 35.9542 42.3865 35.9076 42.3457 35.8727C42.3049 35.8377 42.2641 35.8202 42.2117 35.8202C42.1884 35.8202 42.1651 35.8203 42.1418 35.8319C42.1185 35.8435 42.0952 35.8494 42.0661 35.8668C42.0253 35.896 41.9787 35.9193 41.9321 35.9309C41.8856 35.9426 41.8331 35.9484 41.7749 35.9484C41.705 35.9484 41.6467 35.9367 41.5885 35.9134C41.5361 35.8901 41.4895 35.8552 41.4545 35.8028C41.4196 35.7504 41.3905 35.6863 41.373 35.5989C41.3555 35.5174 41.3439 35.4125 41.3439 35.2902V34.9349C41.3439 34.6961 41.3788 34.5272 41.4545 34.4224C41.5303 34.3176 41.6409 34.2651 41.7865 34.2651C41.8914 34.2651 41.9787 34.2884 42.0428 34.335C42.0719 34.3525 42.1011 34.3641 42.1185 34.3758C42.136 34.3874 42.1593 34.3874 42.1884 34.3874C42.2583 34.3874 42.3107 34.3641 42.3457 34.3234C42.3806 34.2768 42.3981 34.236 42.3981 34.1894C42.3981 34.1603 42.3923 34.1253 42.3748 34.0962C42.3573 34.0671 42.334 34.038 42.2991 34.0089C42.27 33.9856 42.235 33.9623 42.1943 33.9448C42.1535 33.9273 42.1127 33.9098 42.0661 33.8982C42.0195 33.8865 41.9729 33.8749 41.9263 33.8691C41.8797 33.8632 41.8331 33.8574 41.7865 33.8574C41.6176 33.8574 41.4779 33.8865 41.3614 33.939C41.2449 33.9914 41.1517 34.0671 41.0818 34.1603C41.0119 34.2535 40.9595 34.37 40.9245 34.4981C40.8896 34.6262 40.8779 34.7719 40.8779 34.9233V35.2961C40.8779 35.4533 40.8954 35.5989 40.9245 35.7329C40.9595 35.8668 41.0061 35.9775 41.0818 36.0707C41.1517 36.1639 41.2449 36.2396 41.3555 36.292C41.4662 36.3445 41.606 36.3677 41.7633 36.3677C41.804 36.3677 41.8506 36.3678 41.8972 36.3561C41.9438 36.3503 41.9962 36.3386 42.0428 36.327H42.0545Z" fill="#0F0F0F"/>
<path d="M40.5234 36.2747C40.5642 36.2339 40.5875 36.1815 40.5875 36.1174C40.5875 36.0592 40.5642 36.0068 40.5234 35.9602C40.4826 35.9194 40.4302 35.8961 40.3661 35.8961H39.5158V35.3253H40.2438C40.302 35.3253 40.3545 35.302 40.3952 35.2612C40.436 35.2205 40.4593 35.1681 40.4593 35.1098C40.4593 35.0516 40.436 34.9991 40.3952 34.9584C40.3545 34.9176 40.302 34.8943 40.2438 34.8943H39.5158V34.3235H40.3195C40.3836 34.3235 40.436 34.3002 40.4768 34.2594C40.5176 34.2187 40.5409 34.1662 40.5409 34.1022C40.5409 34.0381 40.5176 33.9915 40.4768 33.9449C40.436 33.8983 40.3836 33.8809 40.3195 33.8809H39.2711C39.2129 33.8809 39.1605 33.9042 39.1139 33.9449C39.0731 33.9857 39.0498 34.0381 39.0498 34.1022V36.1116C39.0498 36.1757 39.0731 36.2281 39.1139 36.2689C39.1546 36.3096 39.2071 36.3329 39.2711 36.3329H40.3661C40.4244 36.3329 40.4768 36.3096 40.5234 36.2689V36.2747Z" fill="#0F0F0F"/>
<path d="M36.3295 38.063C36.4053 37.9582 36.5159 37.9058 36.6615 37.9058C36.7664 37.9058 36.8537 37.9291 36.9178 37.9757C36.9469 37.9931 36.9761 38.0048 36.9935 38.0164C37.011 38.0281 37.0343 38.0281 37.0634 38.0281C37.1333 38.0281 37.1857 38.0048 37.2207 37.964C37.2556 37.9232 37.2731 37.8766 37.2731 37.83C37.2731 37.8009 37.2673 37.766 37.2498 37.7369C37.2323 37.7077 37.209 37.6786 37.1741 37.6495C37.145 37.6262 37.11 37.6029 37.0692 37.5854C37.0284 37.5679 36.9877 37.5505 36.9411 37.5388C36.8945 37.5272 36.8479 37.5155 36.8013 37.5097C36.7547 37.5039 36.7081 37.498 36.6615 37.498C36.4926 37.498 36.3528 37.5272 36.2363 37.5796C36.1198 37.632 36.0267 37.7077 35.9568 37.8009C35.8869 37.8941 35.8344 38.0106 35.7995 38.1387C35.7646 38.2669 35.7529 38.4125 35.7529 38.5639V38.9367C35.7529 39.0939 35.7704 39.2395 35.7995 39.3735C35.8344 39.5075 35.8811 39.6181 35.9568 39.7113C36.0267 39.8045 36.1199 39.8802 36.2305 39.9327C36.3412 39.9851 36.481 40.0084 36.6382 40.0084C36.679 40.0084 36.7256 40.0084 36.7722 39.9967C36.8188 39.9909 36.8712 39.9793 36.9178 39.9676C36.9644 39.956 37.0168 39.9385 37.0576 39.9152C37.1042 39.8919 37.1391 39.8686 37.1741 39.8336C37.2323 39.7812 37.2673 39.723 37.2673 39.6531C37.2673 39.5948 37.2498 39.5482 37.209 39.5133C37.1683 39.4784 37.1275 39.4609 37.075 39.4609C37.0518 39.4609 37.0285 39.4609 37.0052 39.4725C36.9819 39.4842 36.9586 39.49 36.9294 39.5075C36.8887 39.5366 36.8421 39.5599 36.7955 39.5715C36.7489 39.5832 36.6965 39.589 36.6382 39.589C36.5683 39.589 36.5101 39.5774 36.4518 39.5541C36.3994 39.5308 36.3528 39.4958 36.3179 39.4434C36.2829 39.391 36.2538 39.3269 36.2363 39.2396C36.2189 39.158 36.2072 39.0532 36.2072 38.9309V38.5756C36.2072 38.3368 36.2422 38.1679 36.3179 38.063H36.3295Z" fill="#0F0F0F"/>
<path d="M35.1468 37.7718C35.077 37.6844 34.9896 37.6203 34.8731 37.5679C34.7625 37.5155 34.6227 37.4922 34.4596 37.4922C34.2965 37.4922 34.1567 37.5155 34.0461 37.5679C33.9354 37.6203 33.8422 37.6902 33.7723 37.7718C33.7024 37.8591 33.6558 37.9523 33.6267 38.063C33.5976 38.1736 33.5801 38.2843 33.5801 38.4008V39.0997C33.5801 39.2162 33.5976 39.3269 33.6267 39.4375C33.6558 39.5482 33.7024 39.6472 33.7723 39.7288C33.8422 39.8161 33.9296 39.8802 34.0461 39.9326C34.1567 39.985 34.2965 40.0083 34.4596 40.0083C34.6227 40.0083 34.7625 39.985 34.8731 39.9326C34.9838 39.8802 35.077 39.8103 35.1468 39.7288C35.2167 39.6414 35.2633 39.5482 35.2925 39.4375C35.3216 39.3269 35.3391 39.2162 35.3391 39.0997V38.4008C35.3391 38.2843 35.3216 38.1736 35.2925 38.063C35.2633 37.9523 35.2109 37.8591 35.1468 37.7718ZM34.8731 39.0997C34.8731 39.1696 34.8673 39.2395 34.8556 39.2978C34.844 39.356 34.8207 39.4084 34.7857 39.4492C34.7566 39.4958 34.71 39.5307 34.6576 39.5482C34.6052 39.5715 34.5353 39.5832 34.4596 39.5832C34.3023 39.5832 34.1975 39.5366 34.1334 39.4492C34.1043 39.4084 34.081 39.356 34.0693 39.2978C34.0577 39.2395 34.0519 39.1696 34.0519 39.0997V38.395C34.0519 38.3251 34.0577 38.2552 34.0693 38.1969C34.081 38.1387 34.1043 38.0863 34.1334 38.0455C34.1975 37.9581 34.3081 37.9115 34.4596 37.9115C34.5411 37.9115 34.6052 37.9232 34.6576 37.9465C34.71 37.9698 34.7508 38.0047 34.7857 38.0455C34.8149 38.0863 34.8382 38.1387 34.8556 38.1969C34.8673 38.2552 34.8731 38.3251 34.8731 38.395V39.0997Z" fill="#0F0F0F"/>
<path d="M38.1587 38.063C38.2344 37.9582 38.345 37.9058 38.4906 37.9058C38.5955 37.9058 38.6828 37.9291 38.7469 37.9757C38.776 37.9931 38.8052 38.0048 38.8226 38.0164C38.8401 38.0281 38.8634 38.0281 38.8925 38.0281C38.9624 38.0281 39.0148 38.0048 39.0498 37.964C39.0847 37.9232 39.1022 37.8766 39.1022 37.83C39.1022 37.8009 39.0964 37.766 39.0789 37.7369C39.0614 37.7077 39.0381 37.6786 39.0032 37.6495C38.9741 37.6262 38.9391 37.6029 38.8984 37.5854C38.8576 37.5679 38.8168 37.5505 38.7702 37.5388C38.7236 37.5272 38.6771 37.5155 38.6305 37.5097C38.5839 37.5039 38.5372 37.498 38.4906 37.498C38.3217 37.498 38.182 37.5272 38.0655 37.5796C37.949 37.632 37.8558 37.7077 37.7859 37.8009C37.716 37.8941 37.6636 38.0106 37.6286 38.1387C37.5937 38.2669 37.582 38.4125 37.582 38.5639V38.9367C37.582 39.0939 37.5995 39.2395 37.6286 39.3735C37.6636 39.5075 37.7102 39.6181 37.7859 39.7113C37.8558 39.8045 37.949 39.8802 38.0596 39.9327C38.1703 39.9851 38.3101 40.0084 38.4674 40.0084C38.5081 40.0084 38.5547 40.0084 38.6013 39.9967C38.6479 39.9909 38.7003 39.9793 38.7469 39.9676C38.7935 39.956 38.846 39.9385 38.8867 39.9152C38.9333 39.8919 38.9682 39.8686 39.0032 39.8336C39.0614 39.7812 39.0964 39.723 39.0964 39.6531C39.0964 39.5948 39.0789 39.5482 39.0381 39.5133C38.9974 39.4784 38.9566 39.4609 38.9042 39.4609C38.8809 39.4609 38.8576 39.4609 38.8343 39.4725C38.811 39.4842 38.7877 39.49 38.7586 39.5075C38.7178 39.5366 38.6712 39.5599 38.6246 39.5715C38.578 39.5832 38.5256 39.589 38.4674 39.589C38.3975 39.589 38.3392 39.5774 38.281 39.5541C38.2285 39.5308 38.182 39.4958 38.147 39.4434C38.1121 39.391 38.0829 39.3269 38.0655 39.2396C38.048 39.158 38.0364 39.0532 38.0364 38.9309V38.5756C38.0364 38.3368 38.0713 38.1679 38.147 38.063H38.1587Z" fill="#0F0F0F"/>
<path d="M38.083 35.3834V36.1406C38.083 36.2047 38.1063 36.2629 38.1528 36.3037C38.1994 36.3503 38.2518 36.3736 38.3159 36.3736C38.38 36.3736 38.4382 36.3503 38.4848 36.3037C38.5314 36.2571 38.5547 36.2047 38.5547 36.1406V34.0904C38.5547 34.0263 38.5314 33.9739 38.4848 33.9273C38.4382 33.8807 38.3858 33.8574 38.3159 33.8574C38.246 33.8574 38.1936 33.8807 38.1528 33.9273C38.1063 33.9739 38.083 34.0263 38.083 34.0904V34.9757C38.0189 34.999 37.9432 35.0223 37.85 35.0398C37.7626 35.0573 37.6694 35.0689 37.5704 35.0689C37.5063 35.0689 37.4539 35.0631 37.4131 35.0456C37.3724 35.0281 37.3374 35.0107 37.3141 34.9815C37.2908 34.9524 37.2733 34.9175 37.2617 34.8767C37.25 34.8359 37.2442 34.7893 37.2442 34.7369V34.0962C37.2442 34.0322 37.2209 33.9797 37.1743 33.9331C37.1278 33.8865 37.0753 33.8633 37.0054 33.8633C36.9355 33.8633 36.8889 33.8865 36.8424 33.9331C36.7958 33.9797 36.7725 34.0322 36.7725 34.0962V34.7544C36.7725 34.999 36.8365 35.1854 36.9646 35.3077C37.0928 35.43 37.2675 35.4883 37.4947 35.4883C37.5879 35.4883 37.6811 35.4824 37.7801 35.465C37.8791 35.4475 37.9781 35.4242 38.0771 35.3951L38.083 35.3834Z" fill="#0F0F0F"/>
<path d="M52.0782 28.4648C52.5209 28.4648 52.8762 28.8201 52.8762 29.2628C52.8762 29.7054 52.5209 30.0607 52.0782 30.0607C51.6356 30.0607 51.2803 29.7054 51.2803 29.2628C51.2803 28.8201 51.6356 28.4648 52.0782 28.4648ZM52.0782 28.6396C51.7346 28.6396 51.4667 28.9075 51.4667 29.2628C51.4667 29.6181 51.7346 29.886 52.0782 29.886C52.4219 29.886 52.6898 29.6181 52.6898 29.2628C52.6898 28.9075 52.4219 28.6396 52.0782 28.6396ZM51.985 29.356V29.554C51.985 29.6006 51.985 29.6181 51.9734 29.6355C51.9617 29.6647 51.9326 29.6763 51.8918 29.6763C51.8569 29.6763 51.8278 29.6588 51.8161 29.6355C51.8045 29.6123 51.8045 29.6006 51.8045 29.554V28.9716C51.8045 28.9716 51.8045 28.9133 51.8336 28.8842C51.8627 28.8551 51.8918 28.8551 51.9209 28.8551H52.1365C52.3054 28.8551 52.4044 28.9716 52.4044 29.1114C52.4044 29.2278 52.3345 29.2977 52.2588 29.3269L52.3694 29.5132C52.3927 29.5482 52.3986 29.5657 52.3986 29.589C52.3986 29.6123 52.3869 29.6414 52.352 29.6647C52.3345 29.6763 52.3229 29.6763 52.3054 29.6763C52.2646 29.6763 52.2413 29.6472 52.218 29.6006L52.0724 29.356H51.985ZM51.985 29.0123V29.2162H52.1073C52.1714 29.2162 52.218 29.1812 52.218 29.1114C52.218 29.0473 52.1714 29.0123 52.1073 29.0123H51.985Z" fill="#0F0F0F"/>
<path d="M51.4903 41.6621C49.3818 48.0107 43.5283 52.2509 36.8011 52.2509C30.0739 52.2509 24.2145 48.0107 22.1119 41.6621H21.8848C22.8807 44.6908 24.8203 47.405 27.3772 49.327C30.1147 51.3831 33.3705 52.4722 36.8011 52.4722C40.2317 52.4722 43.4933 51.3831 46.225 49.327C48.7877 47.3992 50.7273 44.685 51.7174 41.6621H51.4903Z" fill="#0F0F0F"/>
<path d="M58.4564 32.0117H15.111C14.3655 32.0117 13.7598 32.6233 13.7598 33.3688V40.4979C13.7598 41.2434 14.3655 41.8492 15.111 41.8492H58.4564C59.2019 41.8492 59.8076 41.2376 59.8076 40.4921V33.363C59.8076 32.6175 59.2019 32.0117 58.4564 32.0117ZM49.446 40.2591C49.446 40.7134 49.079 41.0803 48.6247 41.0803H15.3731C14.9188 41.0803 14.5519 40.7134 14.5519 40.2591V33.596C14.5519 33.1417 14.9188 32.7747 15.3731 32.7747H48.6247C49.079 32.7747 49.446 33.1417 49.446 33.596V40.2591ZM59.0213 40.2591C59.0213 40.7134 58.6544 41.0803 58.2001 41.0803H51.0884C50.6341 41.0803 50.2672 40.7134 50.2672 40.2591V33.5901C50.2672 33.1358 50.6341 32.7689 51.0884 32.7689H58.2001C58.6544 32.7689 59.0213 33.1358 59.0213 33.5901V40.2591Z" fill="#0F0F0F"/>
<path fill-rule="evenodd" clip-rule="evenodd" d="M58.2528 32.7754H51.0305C50.6054 32.7754 50.2617 33.119 50.2617 33.5442V35.542V38.3144V40.3122C50.2617 40.7374 50.6054 41.081 51.0305 41.081H58.2528C58.678 41.081 59.0216 40.7374 59.0216 40.3122V38.3144V35.542V33.5442C59.0216 33.119 58.678 32.7754 58.2528 32.7754Z" stroke="#706F6F" stroke-width="0.75" stroke-miterlimit="10"/>
</svg>
