<svg width="35" height="51" viewBox="0 0 35 51" fill="none" xmlns="http://www.w3.org/2000/svg">
<path fill-rule="evenodd" clip-rule="evenodd" d="M19.8382 48.8887C24.605 41.6124 35 24.893 35 17.4608C35 7.81746 27.165 0 17.5 0C7.83502 0 0 7.81746 0 17.4608C0 24.893 10.395 41.6124 15.1618 48.8887C16.2781 50.5926 18.7219 50.5926 19.8382 48.8887ZM17.5 31.5C25.232 31.5 31.5 25.232 31.5 17.5C31.5 9.76801 25.232 3.5 17.5 3.5C9.76801 3.5 3.5 9.76801 3.5 17.5C3.5 25.232 9.76801 31.5 17.5 31.5Z" fill="#E42313"/>
</svg>
