<svg width="9" height="15" viewBox="0 0 9 15" fill="none" xmlns="http://www.w3.org/2000/svg">
<g clip-path="url(#clip0_1107_1970)">
<path d="M4.51841 7.75243C5.31083 7.74869 6.08432 7.51766 6.74118 7.08852C7.39804 6.65937 7.90879 6.05137 8.20892 5.34132C8.50905 4.63127 8.58509 3.85103 8.42742 3.09916C8.26976 2.34729 7.88547 1.65752 7.32311 1.11701C6.76074 0.576489 6.04553 0.209467 5.26782 0.0623044C4.49012 -0.0848578 3.68481 -0.00555687 2.95363 0.290189C2.22245 0.585935 1.5982 1.08486 1.15976 1.72393C0.721309 2.363 0.488328 3.11354 0.490246 3.88075C0.491522 4.39122 0.596798 4.89644 0.800045 5.36746C1.00329 5.83848 1.30052 6.26606 1.67469 6.6257C2.04887 6.98535 2.49266 7.26999 2.98063 7.46333C3.4686 7.65667 3.99117 7.75491 4.51841 7.75243ZM4.51841 2.27481C4.84544 2.27481 5.16512 2.36864 5.43709 2.54446C5.70906 2.72028 5.92111 2.97019 6.04645 3.26263C6.17179 3.55506 6.20481 3.87691 6.14132 4.1875C6.07784 4.49809 5.9207 4.7835 5.68977 5.00768C5.45883 5.23185 5.16445 5.38474 4.84382 5.44701C4.52318 5.50929 4.19068 5.47817 3.88831 5.35758C3.58593 5.23699 3.32725 5.03234 3.14495 4.76949C2.96264 4.50663 2.86488 4.19737 2.86403 3.88075C2.85947 3.669 2.89912 3.45854 2.98059 3.26198C3.06206 3.06542 3.18368 2.88681 3.33816 2.73685C3.49265 2.58689 3.67681 2.46867 3.87961 2.38928C4.08242 2.30988 4.29969 2.27095 4.51841 2.27481Z" fill="white"/>
<path d="M6.12487 10.9309C6.94822 10.749 7.73441 10.4353 8.45098 10.0026C8.70813 9.83652 8.88777 9.57945 8.95134 9.28657C9.0149 8.99369 8.95732 8.68835 8.79097 8.43611C8.62461 8.18388 8.36273 8.00484 8.06156 7.93745C7.76039 7.87006 7.44393 7.91969 7.18013 8.07568C6.37119 8.56476 5.43665 8.82408 4.48294 8.82408C3.52923 8.82408 2.59469 8.56476 1.78576 8.07568C1.5215 7.91696 1.20363 7.86455 0.899996 7.92961C0.596366 7.99468 0.33103 8.17207 0.160626 8.42393C0.00773085 8.68352 -0.0357006 8.99025 0.0393964 9.28011C0.114493 9.56996 0.302315 9.82053 0.563659 9.97952C1.2799 10.4121 2.06572 10.7258 2.88869 10.9078L0.659 13.0666C0.440473 13.2794 0.317816 13.5673 0.317816 13.8675C0.317816 14.1676 0.440473 14.4555 0.659 14.6683C0.768637 14.7751 0.89969 14.8591 1.04409 14.915C1.18849 14.9709 1.34319 14.9976 1.49865 14.9935C1.81043 14.9909 2.10979 14.8748 2.33722 14.6683L4.54307 12.5327L6.74892 14.6683C6.96831 14.8806 7.2658 14.9998 7.57596 14.9997C7.88612 14.9996 8.18353 14.8802 8.40277 14.6678C8.62201 14.4554 8.74512 14.1674 8.74502 13.8671C8.74492 13.5668 8.62161 13.2789 8.40223 13.0666L6.12487 10.9309Z" fill="white"/>
</g>
<defs>
<clipPath id="clip0_1107_1970">
<rect width="9" height="15" fill="white"/>
</clipPath>
</defs>
</svg>
