<svg width="15" height="13" viewBox="0 0 15 13" fill="none" xmlns="http://www.w3.org/2000/svg">
<path fill-rule="evenodd" clip-rule="evenodd" d="M11.49 12.8565C11.6912 13.0047 11.9506 13.0417 12.1818 12.9507C12.4131 12.8591 12.5831 12.6537 12.6343 12.4047C13.1775 9.75011 14.4949 3.03105 14.9893 0.616297C15.0268 0.434297 14.9643 0.245147 14.8268 0.123597C14.6893 0.00204639 14.4987 -0.0330537 14.3287 0.0325964C11.7081 1.0414 3.63767 4.19065 0.338991 5.4601C0.129621 5.5407 -0.00662619 5.75 0.000248653 5.97945C0.00774848 6.20955 0.156495 6.4091 0.370865 6.47605C1.85021 6.93625 3.79204 7.5765 3.79204 7.5765C3.79204 7.5765 4.69952 10.4268 5.17263 11.8763C5.232 12.0583 5.36888 12.2013 5.5495 12.2507C5.72949 12.2994 5.92199 12.2481 6.05636 12.1161C6.81634 11.3699 7.99132 10.2162 7.99132 10.2162C7.99132 10.2162 10.2238 11.9185 11.49 12.8565ZM4.60889 7.2164L5.65825 10.8161L5.89136 8.53656C5.89136 8.53656 9.94565 4.7334 12.2568 2.56565C12.3243 2.50195 12.3337 2.39535 12.2775 2.3206C12.2218 2.24585 12.1193 2.2283 12.0425 2.279C9.36379 4.05805 4.60889 7.2164 4.60889 7.2164Z" fill="white"/>
</svg>
