<svg width="15" height="9" viewBox="0 0 15 9" fill="none" xmlns="http://www.w3.org/2000/svg">
<path d="M8.16479 8.99101C3.04307 8.99101 0.121723 5.61938 0 0H2.56554C2.64981 4.11788 4.5412 5.84416 6.03933 6.22178V0.00899122H8.45506V3.56044C9.93446 3.40759 11.4888 1.78921 12.0131 0.00899122H14.4288C14.2347 0.934733 13.8434 1.81195 13.2795 2.58556C12.7155 3.35918 11.9911 4.0125 11.1517 4.5045C12.0875 4.9502 12.9143 5.58128 13.5776 6.35616C14.241 7.13104 14.7257 8.03212 15 9H12.3315C12.0866 8.15772 11.5881 7.40369 10.8984 6.83261C10.2087 6.26154 9.35868 5.89889 8.45506 5.79021V9L8.16479 8.99101Z" fill="white"/>
</svg>
