<?xml version="1.0" encoding="utf-8"?><svg width="9" height="15" fill="none" xmlns="http://www.w3.org/2000/svg" viewBox="0 0 9 15"><g clip-path="url(#dclip0_1107_1970)" fill="#fff"><path d="M4.518 7.752a4.102 4.102 0 002.223-.663A3.91 3.91 0 008.21 5.34c.3-.71.376-1.49.218-2.242a3.846 3.846 0 00-1.104-1.982A4.052 4.052 0 005.268.062 4.13 4.13 0 002.954.29 3.983 3.983 0 001.16 1.724 3.775 3.775 0 00.8 5.368c.203.47.5.898.875 1.258.374.36.818.644 1.306.837.488.194 1.01.292 1.537.29zm0-5.477c.327 0 .647.094.92.27.271.175.483.425.608.718.126.292.159.614.095.925-.063.31-.22.596-.451.82-.231.224-.526.377-.846.439-.32.062-.653.031-.956-.09a1.644 1.644 0 01-.743-.588 1.566 1.566 0 01-.281-.888 1.53 1.53 0 01.117-.619 1.57 1.57 0 01.357-.525 1.63 1.63 0 01.542-.348c.202-.08.42-.118.638-.114zM6.125 10.93a7.723 7.723 0 002.326-.927c.257-.166.437-.424.5-.716a1.113 1.113 0 00-.16-.85 1.18 1.18 0 00-.73-.5 1.214 1.214 0 00-.88.139 5.217 5.217 0 01-2.698.748c-.954 0-1.888-.26-2.697-.748A1.225 1.225 0 00.9 7.93a1.193 1.193 0 00-.74.494c-.152.26-.196.566-.12.856.074.29.262.54.524.7a7.724 7.724 0 002.325.928l-2.23 2.159c-.219.212-.341.5-.341.8 0 .3.122.588.341.801.11.107.24.191.385.247.144.056.3.083.455.079.311-.003.61-.12.838-.326l2.206-2.135 2.206 2.135c.22.213.517.332.827.332.31 0 .608-.12.827-.332.219-.213.342-.5.342-.8 0-.301-.123-.59-.343-.801L6.125 10.93z"/></g><defs><clipPath id="dclip0_1107_1970"><path fill="#fff" d="M0 0h9v15H0z"/></clipPath></defs></svg>