<?xml version="1.0" encoding="utf-8"?><svg viewBox="0 0 50 51" xmlns="http://www.w3.org/2000/svg" xmlns:xlink="http://www.w3.org/1999/xlink"><style>:root>svg{display:none}:root>svg:target{display:block}</style><svg fill="none" viewBox="0 0 26 6" id="btn_arrow" xmlns="http://www.w3.org/2000/svg"><path d="M25.5 3l-5-2.887v5.774L25.5 3zm-25 .5H21v-1H.5v1z" fill="currentColor"/></svg><svg fill="none" viewBox="0 0 46 6" id="btn_back_arrow" xmlns="http://www.w3.org/2000/svg"><path d="M0 3l5 2.887V.113L0 3zm46-.5H4.5v1H46v-1z" fill="#E42313"/></svg><svg fill="none" viewBox="0 0 35 51" id="location" xmlns="http://www.w3.org/2000/svg"><path fill-rule="evenodd" clip-rule="evenodd" d="M19.838 48.889C24.605 41.612 35 24.893 35 17.46 35 7.817 27.165 0 17.5 0S0 7.817 0 17.46c0 7.433 10.395 24.152 15.162 31.429a2.778 2.778 0 004.676 0zM17.5 31.5c7.732 0 14-6.268 14-14s-6.268-14-14-14-14 6.268-14 14 6.268 14 14 14z" fill="#E42313"/></svg><svg fill="none" viewBox="0 0 9 15" id="ok" xmlns="http://www.w3.org/2000/svg"><g clip-path="url(#dclip0_1107_1970)" fill="#fff"><path d="M4.518 7.752a4.102 4.102 0 002.223-.663A3.91 3.91 0 008.21 5.34c.3-.71.376-1.49.218-2.242a3.846 3.846 0 00-1.104-1.982A4.052 4.052 0 005.268.062 4.13 4.13 0 002.954.29 3.983 3.983 0 001.16 1.724 3.775 3.775 0 00.8 5.368c.203.47.5.898.875 1.258.374.36.818.644 1.306.837.488.194 1.01.292 1.537.29zm0-5.477c.327 0 .647.094.92.27.271.175.483.425.608.718.126.292.159.614.095.925-.063.31-.22.596-.451.82-.231.224-.526.377-.846.439-.32.062-.653.031-.956-.09a1.644 1.644 0 01-.743-.588 1.566 1.566 0 01-.281-.888 1.53 1.53 0 01.117-.619 1.57 1.57 0 01.357-.525 1.63 1.63 0 01.542-.348c.202-.08.42-.118.638-.114zM6.125 10.93a7.723 7.723 0 002.326-.927c.257-.166.437-.424.5-.716a1.113 1.113 0 00-.16-.85 1.18 1.18 0 00-.73-.5 1.214 1.214 0 00-.88.139 5.217 5.217 0 01-2.698.748c-.954 0-1.888-.26-2.697-.748A1.225 1.225 0 00.9 7.93a1.193 1.193 0 00-.74.494c-.152.26-.196.566-.12.856.074.29.262.54.524.7a7.724 7.724 0 002.325.928l-2.23 2.159c-.219.212-.341.5-.341.8 0 .3.122.588.341.801.11.107.24.191.385.247.144.056.3.083.455.079.311-.003.61-.12.838-.326l2.206-2.135 2.206 2.135c.22.213.517.332.827.332.31 0 .608-.12.827-.332.219-.213.342-.5.342-.8 0-.301-.123-.59-.343-.801L6.125 10.93z"/></g><defs><clipPath id="dclip0_1107_1970"><path fill="#fff" d="M0 0h9v15H0z"/></clipPath></defs></svg><svg fill="none" viewBox="0 0 50 47" id="quotes" xmlns="http://www.w3.org/2000/svg"><path d="M26.436 46.5l8.354-18.81.043-.097V.5H49.5v26.814L34.424 46.5h-7.988zm-25.667 0l8.355-18.81.043-.097V.5h14.666v26.814L8.757 46.5H.769z" stroke="#E42313"/></svg><svg fill="none" viewBox="0 0 15 13" id="tg" xmlns="http://www.w3.org/2000/svg"><path fill-rule="evenodd" clip-rule="evenodd" d="M11.49 12.857a.72.72 0 00.692.094.746.746 0 00.452-.546C13.177 9.75 14.494 3.03 14.99.616a.52.52 0 00-.162-.492.485.485 0 00-.498-.091C11.709 1.04 3.638 4.19.339 5.46A.538.538 0 000 5.98c.008.23.156.43.37.496 1.48.46 3.422 1.1 3.422 1.1s.908 2.85 1.38 4.3c.06.182.197.325.378.375a.527.527 0 00.506-.135l1.935-1.9s2.233 1.703 3.499 2.64zm-6.881-5.64l1.05 3.6.232-2.28 6.366-5.971a.186.186 0 00.02-.245.173.173 0 00-.234-.042L4.609 7.216z" fill="#fff"/></svg><svg fill="none" viewBox="0 0 15 9" id="vk" xmlns="http://www.w3.org/2000/svg"><path d="M8.165 8.991C3.043 8.991.122 5.619 0 0h2.566C2.65 4.118 4.54 5.844 6.039 6.222V.009h2.416V3.56c1.48-.152 3.034-1.77 3.558-3.551h2.416a6.713 6.713 0 01-1.15 2.577 7.027 7.027 0 01-2.127 1.919 7.35 7.35 0 012.426 1.851A7.002 7.002 0 0115 9h-2.668a4.42 4.42 0 00-1.434-2.167A4.714 4.714 0 008.455 5.79V9l-.29-.009z" fill="#fff"/></svg></svg>