<svg width="468" height="489" viewBox="0 0 468 489" fill="none" xmlns="http://www.w3.org/2000/svg">
<g clip-path="url(#clip0_1121_7184)">
<path d="M344.494 -249.508L336.566 -249.891C196.869 -256.704 68.9472 -209.243 -27.956 -126.721C-126.168 -42.9751 -192.437 76.8262 -206.446 212.933C-216.067 306.248 -194.67 386.779 -154.646 450.469C-125.937 496.093 -87.6065 532.99 -44.1963 559.783C-0.786105 586.575 47.781 603.187 96.8868 608.239C160.54 614.746 225.193 601.962 281.457 566.978C301.469 554.501 319.556 540.262 335.643 524.723C378.668 489.28 425.519 422.987 431.6 345.442C438.296 259.399 389.829 242.328 375.128 185.068C369.586 163.481 374.82 140.593 400.142 134.162C422.309 128.574 449.094 143.655 446.092 176.724C474.34 150.085 475.879 91.8301 441.166 55.0859C396.371 7.77775 282.842 -9.36953 246.359 119.312C248.207 48.1198 168.544 -11.8192 87.2657 5.71088C137.141 70.1663 26.3067 160.725 133.062 208.646C18.9178 197.24 -18.5658 304.564 8.29617 358.455C44.5483 431.331 157.461 442.507 206.413 345.442C153.766 368.254 107.431 324.543 142.683 275.781C169.16 239.19 232.659 229.391 281.226 282.823C322.404 328.141 325.822 412.032 305 449.144C284.179 486.255 267.479 492.101 241.079 508.559C200.209 533.974 151.534 534.904 104.891 530.081C67.4848 526.254 30.3861 513.546 -2.78729 493.031C-35.9607 472.515 -65.4396 444.115 -87.5295 408.902C-118.856 359.068 -135.558 295.378 -127.861 220.971C-115.931 105.533 -59.8209 3.95024 23.4589 -67.012C105.584 -136.979 214.187 -177.168 332.795 -171.503L339.491 -171.121L339.645 -171.121C479.805 -162.547 601.569 -98.5508 686.542 -2.32692C762.587 83.7157 809.306 195.632 813.693 316.888C776.133 235.439 690.467 172.208 597.874 193.948C550.616 205.048 567.67 231.152 543.194 273.484C523.028 308.468 516.64 350.953 526.03 390.224C541.039 452.995 537.454 495.633 602.877 492.954C650.367 491.04 695.239 465.549 713.866 420.844C732.877 375.143 717.175 324.467 669.455 305.176C635.204 291.397 607.88 313.367 604.647 333.117C612.267 329.978 621.965 329.06 629.123 332.198C640.592 337.251 646.133 347.891 646.903 359.986C649.135 394.051 607.187 408.672 579.787 396.73C564.47 390.07 553.925 375.832 550.462 359.757C545.613 337.48 554.31 315.281 567.549 297.598C632.51 210.407 758.276 279.302 778.442 365.804C786.062 398.414 794.682 448.402 790.064 481.395C788.14 495.098 785.754 508.035 782.675 520.359C769.129 559.859 751.349 597.446 730.029 632.888L729.336 633.883C728.644 635.108 727.874 636.256 727.104 637.481L817.773 637.481C859.798 557.18 885.967 467.846 891.893 372.694L891.893 372.54L892.278 365.115L892.278 364.809C900.052 205.814 844.173 57.2292 745.884 -53.9985C647.519 -165.456 506.59 -239.557 344.494 -249.508Z" fill="#D3E4F6"/>
</g>
<defs>
<clipPath id="clip0_1121_7184">
<rect width="467" height="488" fill="white" transform="translate(0.3125 0.28125)"/>
</clipPath>
</defs>
</svg>
