<svg width="204" height="322" viewBox="0 0 204 322" fill="none" xmlns="http://www.w3.org/2000/svg">
<path d="M199.786 187.411L200.277 185.12C208.951 144.748 201.366 105.221 182.156 73.0609C162.654 40.4612 131.194 15.4496 92.5124 4.88634C65.9928 -2.36079 41.6811 0.0371925 21.345 8.66352C6.77556 14.8542 -5.73233 24.2633 -15.5623 35.6335C-25.3923 47.0037 -32.5259 60.3611 -36.3431 74.4261C-41.2789 92.6596 -40.685 112.103 -33.2697 130.16C-30.6221 136.584 -27.3732 142.532 -23.6519 147.958C-15.4685 162.181 2.34708 176.999 24.477 182.464C49.0342 188.512 55.4001 177.193 72.6618 175.638C79.1695 175.052 85.5364 177.666 86.1805 185.35C86.7326 192.073 81.0869 199.158 71.669 196.709C78.0162 206.207 94.7862 209.43 107.076 201.067C122.905 190.27 133.31 158.014 97.8539 141.257C118.35 145.186 139.503 124.833 138.335 100.32C117.305 111.78 96.4389 75.1784 77.4603 103.996C86.2355 71.2868 57.0024 55.2555 40.1311 60.5143C17.32 67.6044 8.6702 99.9659 34.3871 118.85C30.3174 102.426 45.1793 91.0096 57.5871 103.601C66.8966 113.058 66.6827 132.023 48.9027 143.627C33.8234 153.464 14.8099 152.405 2.06585 142.959C-3.63269 136.977 -8.4714 129.639 -11.9634 121.164C-17.3506 108.047 -17.7611 93.8388 -14.1285 80.4804C-11.2268 69.7654 -5.77229 59.563 1.75146 50.876C9.27522 42.189 18.9015 34.9538 30.1431 30.1956C46.0555 23.4432 65.2725 21.6108 86.4173 27.3969C119.223 36.3704 145.902 57.5544 162.424 85.1953C178.714 112.452 185.123 146.005 177.793 180.288L177.361 182.22L177.354 182.265C168.149 222.688 143.802 255.113 111.902 275.284C83.3745 293.34 48.7728 301.62 13.5021 297.123C38.855 290.06 61.2484 268.115 59.4055 240.106C58.4638 225.809 52.8737 212.682 41.8081 203.536C32.6605 195.995 20.6827 192.11 8.87743 192.976C-9.99264 194.358 -24.9251 208.136 -27.2898 227.322C-29.0153 241.248 -23.7979 255.534 -11.7655 263.09C0.536192 270.805 15.9423 268.644 23.81 255.661C29.4377 246.339 24.3964 237.333 18.841 235.451C19.3828 237.82 19.183 240.689 17.9321 242.625C15.9209 245.725 12.5783 246.833 9.04424 246.481C-0.912471 245.509 -3.12716 232.592 1.6406 225.178C4.30124 221.033 8.92415 218.64 13.7385 218.396C20.4122 218.045 26.4136 221.636 30.8913 226.335C52.9847 249.412 27.0291 282.769 1.05005 284.524C-8.74468 285.19 -23.6118 285.321 -32.9299 282.404C-36.7996 281.191 -40.4257 279.88 -43.8416 278.396C-54.6126 272.568 -64.6273 265.599 -73.8522 257.7L-74.1067 257.45C-74.4276 257.19 -74.7227 256.911 -75.0399 256.629L-79.3907 283.042C-58.1888 299.11 -33.6142 310.988 -6.3861 317.246L-6.34183 317.254L-4.2133 317.719L-4.12476 317.734C41.4744 327.571 87.1179 318.369 123.995 295.033C160.942 271.685 189.13 234.159 199.786 187.411Z" fill="#E9F1FB"/>
</svg>
